<svg xmlns="http://www.w3.org/2000/svg" xmlns:xlink="http://www.w3.org/1999/xlink" width="500" zoomAndPan="magnify" viewBox="0 0 375 374.999991" height="500" preserveAspectRatio="xMidYMid meet" version="1.0"><defs><clipPath id="9db9a60469"><path d="M 9.132812 82 L 366.132812 82 L 366.132812 293 L 9.132812 293 Z M 9.132812 82 " clip-rule="nonzero"/></clipPath></defs><g clip-path="url(#9db9a60469)"><path fill="#0000a4" d="M 9.132812 151.960938 L 50.332031 151.960938 L 50.332031 186.113281 C 58.265625 183.027344 66.855469 181.484375 75.449219 181.703125 C 107.835938 181.703125 131.1875 205.28125 131.1875 237.667969 C 131.1875 262.121094 114.445312 290.984375 76.328125 290.984375 L 9.132812 290.984375 Z M 50.332031 255.292969 C 55.398438 256.171875 60.6875 256.613281 65.976562 256.613281 C 80.734375 256.613281 90.429688 248.683594 90.429688 236.125 C 90.429688 224.007812 80.957031 215.632812 67.296875 215.632812 C 61.570312 215.632812 56.0625 216.515625 50.554688 218.058594 Z M 200.144531 181.484375 C 245.53125 181.484375 262.933594 211.007812 262.933594 237.226562 C 262.933594 265.867188 242.886719 292.96875 200.585938 292.96875 C 155.203125 292.96875 137.355469 263.664062 137.355469 237.226562 C 137.355469 209.464844 156.082031 181.484375 200.144531 181.484375 Z M 200.144531 257.9375 C 212.921875 257.9375 221.734375 249.34375 221.734375 237.226562 C 221.734375 225.109375 212.921875 216.515625 200.144531 216.515625 C 187.367188 216.515625 178.554688 225.109375 178.554688 237.226562 C 178.554688 249.34375 187.367188 257.9375 200.144531 257.9375 Z M 271.304688 151.960938 L 312.285156 151.960938 L 312.285156 290.984375 L 271.304688 290.984375 Z M 366.039062 267.851562 C 366.039062 281.730469 355.246094 292.96875 341.804688 292.96875 C 328.367188 292.96875 317.351562 281.730469 317.351562 267.851562 C 317.132812 254.191406 328.148438 243.175781 341.585938 242.953125 C 341.585938 242.953125 341.804688 242.953125 341.804688 242.953125 C 355.464844 242.953125 366.039062 253.96875 366.039062 267.851562 Z M 459.011719 286.136719 C 445.351562 291.203125 436.980469 292.96875 425.746094 292.96875 C 390.714844 292.96875 366.480469 270.273438 366.480469 237.886719 C 366.480469 211.007812 384.105469 181.703125 424.644531 181.703125 C 436.101562 181.703125 447.335938 183.46875 458.351562 187.214844 L 458.351562 222.90625 C 449.320312 218.71875 440.945312 216.515625 432.355469 216.515625 C 417.8125 216.515625 407.898438 225.109375 407.898438 237.445312 C 407.898438 249.785156 418.476562 257.9375 433.675781 257.9375 C 441.386719 257.9375 448.21875 256.171875 459.453125 251.105469 Z M 527.308594 181.484375 C 572.695312 181.484375 590.097656 211.007812 590.097656 237.226562 C 590.097656 265.867188 570.050781 292.96875 527.75 292.96875 C 482.367188 292.96875 464.519531 263.664062 464.519531 237.226562 C 464.519531 209.464844 483.246094 181.484375 527.308594 181.484375 Z M 527.308594 257.9375 C 540.085938 257.9375 548.898438 249.34375 548.898438 237.226562 C 548.898438 225.109375 540.085938 216.515625 527.308594 216.515625 C 514.53125 216.515625 505.71875 225.109375 505.71875 237.226562 C 505.71875 249.34375 514.3125 257.9375 527.308594 257.9375 Z M 598.910156 183.246094 L 639.890625 183.246094 L 639.890625 197.566406 C 649.804688 186.550781 661.480469 181.484375 674.476562 181.484375 C 689.238281 181.484375 698.710938 187.214844 706.644531 200.652344 C 717.4375 188.316406 730.65625 181.484375 744.757812 181.484375 C 768.992188 181.484375 779.347656 200.652344 779.347656 222.023438 L 779.347656 290.984375 L 738.367188 290.984375 L 738.367188 229.292969 C 738.367188 221.582031 733.742188 216.515625 726.914062 216.515625 C 720.964844 216.515625 713.914062 220.480469 709.726562 227.53125 L 709.726562 291.203125 L 668.308594 291.203125 L 668.308594 229.957031 C 668.308594 222.023438 663.460938 216.296875 656.191406 216.296875 C 650.90625 216.296875 644.074219 220.261719 639.667969 227.3125 L 639.667969 290.984375 L 598.691406 290.984375 Z M 828.035156 86.527344 C 860.203125 86.527344 886.199219 112.964844 886.199219 145.574219 C 886.199219 178.179688 859.980469 204.617188 827.816406 204.617188 C 795.648438 204.617188 769.433594 178.179688 769.433594 145.574219 C 769.433594 112.964844 795.871094 86.527344 828.035156 86.527344 M 828.035156 82.558594 C 793.667969 82.558594 765.6875 110.761719 765.6875 145.574219 C 765.6875 180.382812 793.667969 208.585938 828.035156 208.585938 C 862.40625 208.585938 890.382812 180.164062 890.382812 145.574219 C 890.382812 110.980469 862.40625 82.558594 828.035156 82.558594 Z M 799.175781 151.300781 C 791.023438 151.300781 782.429688 145.792969 782.429688 136.757812 C 782.429688 119.574219 804.023438 103.929688 811.511719 100.625 C 812.613281 99.964844 814.597656 102.390625 815.257812 103.710938 C 815.917969 104.8125 815.699219 105.253906 815.257812 105.472656 C 801.597656 112.746094 787.058594 126.40625 787.058594 139.183594 C 787.058594 144.691406 789.921875 146.894531 797.414062 146.894531 C 806.226562 146.894531 826.273438 134.777344 826.273438 125.964844 C 826.273438 122.660156 823.851562 121.117188 819.003906 121.117188 C 807.105469 121.117188 800.71875 128.828125 798.953125 135.4375 C 798.734375 135.878906 798.292969 136.097656 797.632812 136.097656 C 796.75 135.878906 795.648438 135.21875 795.871094 134.335938 C 796.53125 128.386719 802.921875 115.609375 816.359375 115.609375 C 822.527344 115.609375 829.796875 121.117188 829.796875 127.507812 C 829.796875 139.625 812.613281 151.300781 799.175781 151.300781 Z M 815.039062 104.59375 L 815.257812 104.8125 Z M 818.78125 192.722656 C 812.171875 192.722656 800.71875 189.636719 800.71875 178.398438 C 800.71875 169.585938 807.988281 159.453125 821.867188 148.65625 L 822.308594 148.4375 C 823.1875 147.777344 825.613281 149.097656 826.492188 150.417969 C 827.59375 151.742188 826.933594 152.183594 826.714844 152.402344 C 820.105469 157.910156 804.683594 170.910156 804.683594 181.484375 C 804.683594 185.449219 807.988281 188.09375 813.273438 188.09375 C 820.105469 188.09375 828.695312 186.113281 837.507812 182.585938 C 838.609375 182.144531 839.933594 183.6875 840.59375 184.789062 C 841.253906 186.113281 841.035156 186.773438 840.375 186.992188 C 832.441406 190.957031 826.273438 192.722656 818.78125 192.722656 Z M 848.085938 151.742188 C 833.542969 151.742188 833.324219 140.945312 833.324219 140.503906 C 833.324219 138.523438 834.203125 136.757812 835.746094 135.4375 C 836.40625 134.777344 837.730469 135.21875 838.171875 135.21875 C 839.273438 135.4375 840.375 136.097656 840.375 136.980469 C 840.375 137.199219 840.375 137.640625 840.152344 137.859375 C 838.171875 139.625 837.070312 140.945312 837.070312 143.367188 C 837.070312 145.351562 839.273438 147.777344 843.238281 147.777344 C 859.101562 147.777344 869.234375 134.117188 869.234375 126.84375 C 869.234375 120.234375 864.386719 118.914062 860.421875 118.914062 C 846.542969 118.914062 836.1875 132.351562 835.746094 132.792969 C 835.527344 133.015625 835.304688 133.234375 834.867188 133.234375 C 833.765625 133.015625 832.222656 131.472656 831.78125 130.148438 C 831.5625 129.710938 831.5625 129.046875 831.78125 128.386719 C 834.425781 125.304688 837.289062 122.4375 840.59375 120.015625 C 846.320312 115.828125 851.828125 113.625 856.898438 113.625 C 868.132812 113.625 873.199219 121.777344 873.199219 129.269531 C 872.980469 141.386719 861.304688 151.960938 848.085938 151.742188 Z M 848.085938 151.742188 " fill-opacity="1" fill-rule="nonzero"/></g></svg>