<svg xmlns="http://www.w3.org/2000/svg" xmlns:xlink="http://www.w3.org/1999/xlink" width="48" zoomAndPan="magnify" viewBox="0 0 36 36.000001" height="48" preserveAspectRatio="xMidYMid meet" version="1.0"><defs><clipPath id="a995804718"><path d="M 2.238281 5 L 17 5 L 17 24 L 2.238281 24 Z M 2.238281 5 " clip-rule="nonzero"/></clipPath></defs><g clip-path="url(#a995804718)"><path fill="#e30613" d="M 9.21875 5.851562 L 8.425781 7.253906 L 14.703125 10.941406 L 14.703125 17.980469 L 8.882812 21.464844 L 3.667969 18.335938 L 2.855469 19.753906 L 8.882812 23.359375 L 16.3125 18.902344 L 16.3125 10.019531 Z M 9.21875 5.851562 " fill-opacity="1" fill-rule="nonzero"/></g><path fill="#e30613" d="M 24.910156 5.542969 L 17.480469 10.019531 L 17.480469 18.902344 L 24.910156 23.359375 L 32.34375 18.902344 L 32.34375 16.203125 L 30.734375 16.203125 L 30.734375 17.980469 L 24.910156 21.464844 L 19.089844 17.980469 L 19.089844 10.941406 L 24.910156 7.441406 L 31.378906 11.335938 L 32.171875 9.917969 L 24.960938 5.578125 Z M 24.910156 5.542969 " fill-opacity="1" fill-rule="nonzero"/><path fill="#2f4e9d" d="M 10.355469 18.390625 C 10.355469 19.277344 9.644531 19.996094 8.761719 19.996094 C 7.882812 19.996094 7.171875 19.277344 7.171875 18.390625 C 7.171875 17.5 7.882812 16.785156 8.761719 16.785156 C 9.644531 16.785156 10.355469 17.5 10.355469 18.390625 " fill-opacity="1" fill-rule="nonzero"/><path fill="#2f4e9d" d="M 26.671875 10.753906 C 26.671875 11.640625 25.960938 12.359375 25.082031 12.359375 C 24.199219 12.359375 23.488281 11.640625 23.488281 10.753906 C 23.488281 9.867188 24.199219 9.148438 25.082031 9.148438 C 25.960938 9.148438 26.671875 9.867188 26.671875 10.753906 " fill-opacity="1" fill-rule="nonzero"/><path fill="#2f4e9d" d="M 23.421875 24.761719 C 21.355469 24.761719 19.359375 25.460938 17.75 26.707031 C 16.125 25.460938 14.128906 24.761719 12.0625 24.761719 C 10 24.761719 7.441406 25.664062 5.699219 27.289062 L 6.78125 28.464844 C 8.222656 27.117188 10.082031 26.367188 12.046875 26.367188 C 14.011719 26.367188 15.535156 26.980469 16.90625 28.109375 L 17.699219 28.84375 C 17.699219 28.84375 17.71875 28.859375 17.734375 28.875 C 17.769531 28.84375 17.785156 28.824219 17.820312 28.792969 L 18.496094 28.160156 C 19.867188 27.015625 21.609375 26.382812 23.40625 26.382812 C 25.199219 26.382812 27.246094 27.132812 28.6875 28.484375 L 29.769531 27.304688 C 28.042969 25.683594 25.773438 24.777344 23.40625 24.777344 Z M 23.421875 24.761719 " fill-opacity="1" fill-rule="nonzero"/></svg>