<svg xmlns="http://www.w3.org/2000/svg" xmlns:xlink="http://www.w3.org/1999/xlink" width="500" zoomAndPan="magnify" viewBox="0 0 375 160.499995" height="214" preserveAspectRatio="xMidYMid meet" version="1.0"><path fill="#ffffff" d="M 14.554688 94.058594 C 11.78125 94.058594 8.589844 94.542969 7.808594 94.722656 C 7.808594 95.445312 7.867188 96.046875 7.867188 98.214844 L 7.867188 113.511719 C 9.976562 113.871094 11.964844 114.050781 14.3125 114.050781 C 20.695312 114.050781 25.574219 110.378906 25.574219 103.695312 C 25.574219 97.011719 23.828125 94.058594 14.613281 94.058594 Z M 14.433594 111.28125 C 13.710938 111.28125 13.046875 111.28125 12.324219 111.101562 L 12.324219 96.890625 C 12.6875 96.828125 13.167969 96.769531 14.070312 96.769531 C 18.167969 96.769531 20.753906 99.058594 20.753906 103.695312 C 20.753906 108.332031 16.722656 111.28125 14.433594 111.28125 Z M 14.433594 111.28125 " fill-opacity="1" fill-rule="nonzero"/><path fill="#ffffff" d="M 35.386719 105.863281 C 34.785156 105.5625 33.460938 104.957031 32.917969 104.65625 C 32.316406 104.296875 31.835938 103.996094 31.835938 103.453125 C 31.835938 102.910156 32.378906 102.488281 33.21875 102.488281 C 34.0625 102.488281 34.664062 102.671875 35.328125 102.972656 C 36.53125 103.09375 36.953125 101.648438 36.894531 100.742188 C 35.75 99.960938 34.605469 99.660156 33.28125 99.660156 C 30.449219 99.660156 27.980469 101.285156 27.980469 104.238281 C 27.980469 107.1875 28.945312 107.125 30.148438 107.847656 C 30.992188 108.269531 31.777344 108.691406 32.558594 109.113281 C 33.339844 109.535156 33.640625 109.898438 33.640625 110.378906 C 33.640625 110.859375 33.101562 111.402344 32.136719 111.402344 C 31.171875 111.402344 29.488281 110.800781 28.582031 110.257812 C 28.101562 110.679688 27.679688 111.523438 27.679688 112.304688 C 27.679688 113.089844 28.042969 113.207031 28.523438 113.511719 C 29.425781 114.050781 30.75 114.292969 31.835938 114.292969 C 34.90625 114.292969 37.675781 112.726562 37.675781 109.597656 C 37.675781 106.464844 37.074219 106.945312 35.449219 106.042969 Z M 35.386719 105.863281 " fill-opacity="1" fill-rule="nonzero"/><path fill="#ffffff" d="M 40.628906 109.476562 L 44.902344 109.476562 L 44.902344 113.75 L 40.628906 113.75 Z M 40.628906 109.476562 " fill-opacity="1" fill-rule="nonzero"/><path fill="#ffffff" d="M 59.535156 92.675781 C 58.8125 92.675781 56.644531 92.855469 55.683594 92.914062 C 55.742188 93.457031 55.800781 94.78125 55.800781 96.828125 L 55.800781 105.019531 C 55.800781 110.378906 52.730469 109.835938 50.203125 110.257812 C 50.382812 111.34375 51.527344 113.691406 52.550781 113.691406 C 53.574219 113.691406 57.367188 113.148438 58.390625 112.125 C 59.714844 110.679688 60.257812 109.054688 60.257812 104.957031 L 60.257812 94.300781 C 60.257812 92.976562 60.136719 92.613281 59.535156 92.613281 Z M 59.535156 92.675781 " fill-opacity="1" fill-rule="nonzero"/><path fill="#ffffff" d="M 70.796875 99.597656 C 66.582031 99.597656 63.511719 102.671875 63.511719 107.007812 C 63.511719 111.34375 66.703125 114.171875 70.496094 114.171875 C 74.289062 114.171875 77.84375 111.160156 77.84375 106.707031 C 77.84375 102.25 75.492188 99.660156 70.855469 99.660156 Z M 70.796875 111.523438 C 69.292969 111.523438 67.964844 109.957031 67.964844 106.523438 C 67.964844 103.09375 68.628906 102.1875 70.4375 102.1875 C 72.484375 102.1875 73.265625 104.539062 73.265625 107.066406 C 73.265625 109.597656 72.785156 111.582031 70.796875 111.582031 Z M 70.796875 111.523438 " fill-opacity="1" fill-rule="nonzero"/><path fill="#ffffff" d="M 93.679688 105.019531 C 93.679688 101.527344 91.875 99.539062 89.222656 99.539062 C 86.574219 99.539062 86.273438 100.261719 85.007812 101.226562 L 85.007812 94.601562 C 85.007812 92.675781 84.886719 92.554688 84.347656 92.554688 C 83.804688 92.554688 81.15625 92.976562 80.550781 93.214844 C 80.613281 93.878906 80.671875 94.601562 80.671875 96.527344 L 80.671875 108.332031 C 80.671875 110.136719 80.671875 112.003906 80.550781 113.929688 C 81.9375 113.929688 82.960938 113.929688 84.226562 113.75 C 84.949219 113.628906 85.007812 113.449219 85.007812 112.847656 L 85.007812 103.574219 C 85.730469 103.09375 86.453125 102.851562 87.238281 102.851562 C 88.5625 102.851562 89.34375 103.933594 89.34375 105.261719 L 89.34375 113.269531 C 89.34375 113.8125 89.585938 113.992188 90.066406 113.992188 C 91.632812 113.992188 93.078125 113.8125 93.800781 113.75 C 93.738281 112.546875 93.679688 110.679688 93.679688 109.234375 Z M 93.679688 105.019531 " fill-opacity="1" fill-rule="nonzero"/><path fill="#ffffff" d="M 97.835938 109.476562 L 102.109375 109.476562 L 102.109375 113.75 L 97.835938 113.75 Z M 97.835938 109.476562 " fill-opacity="1" fill-rule="nonzero"/><path fill="#ffffff" d="M 122.945312 96.890625 C 124.570312 96.890625 126.136719 97.25 127.460938 97.851562 C 128.605469 98.035156 129.570312 97.070312 129.570312 95.625 C 128.726562 94.84375 126.378906 93.757812 123.007812 93.757812 C 116.863281 93.757812 111.867188 97.671875 111.867188 104.117188 C 111.867188 110.558594 117.527344 114.171875 122.644531 114.171875 C 127.761719 114.171875 125.777344 113.871094 126.921875 113.511719 C 127.824219 113.089844 128.847656 112.367188 129.570312 111.824219 L 129.570312 104.839844 C 129.570312 104.175781 129.328125 103.996094 128.847656 103.996094 C 127.882812 103.996094 126.199219 104.296875 124.992188 104.476562 C 124.992188 105.199219 125.113281 105.800781 125.113281 106.886719 L 125.113281 111.222656 C 124.8125 111.34375 124.148438 111.460938 123.425781 111.460938 C 120.054688 111.460938 116.683594 108.992188 116.683594 103.875 C 116.683594 98.757812 119.511719 96.890625 123.066406 96.890625 Z M 122.945312 96.890625 " fill-opacity="1" fill-rule="nonzero"/><path fill="#ffffff" d="M 141.191406 99.597656 C 139.445312 99.597656 138.179688 100.742188 137.277344 102.851562 C 137.277344 100.984375 136.675781 99.597656 135.109375 99.597656 C 133.542969 99.597656 132.820312 100.625 132.519531 101.464844 L 132.519531 101.585938 C 133.0625 101.886719 133.242188 102.429688 133.242188 103.03125 L 133.242188 108.332031 C 133.242188 110.136719 133.242188 112.066406 133.121094 113.992188 C 134.507812 113.992188 135.53125 113.992188 136.796875 113.8125 C 137.519531 113.691406 137.578125 113.449219 137.578125 112.90625 L 137.578125 106.585938 C 137.578125 105.921875 137.640625 105.5625 137.820312 105.140625 C 138.242188 103.933594 139.085938 103.695312 139.507812 103.695312 C 139.925781 103.695312 140.46875 103.753906 141.132812 104.054688 C 141.613281 103.996094 142.335938 103.09375 142.457031 102.371094 C 142.816406 101.707031 142.878906 100.683594 142.699219 100.261719 C 142.394531 100.019531 141.734375 99.71875 141.191406 99.71875 Z M 141.191406 99.597656 " fill-opacity="1" fill-rule="nonzero"/><path fill="#ffffff" d="M 150.949219 99.597656 C 146.730469 99.597656 143.660156 102.671875 143.660156 107.007812 C 143.660156 111.34375 146.851562 114.171875 150.644531 114.171875 C 154.441406 114.171875 157.992188 111.160156 157.992188 106.707031 C 157.992188 102.25 155.644531 99.660156 151.007812 99.660156 Z M 150.949219 111.523438 C 149.441406 111.523438 148.117188 109.957031 148.117188 106.523438 C 148.117188 103.09375 148.78125 102.1875 150.585938 102.1875 C 152.632812 102.1875 153.417969 104.539062 153.417969 107.066406 C 153.417969 109.597656 152.933594 111.582031 150.949219 111.582031 Z M 150.949219 111.523438 " fill-opacity="1" fill-rule="nonzero"/><path fill="#ffffff" d="M 166.90625 99.597656 C 162.628906 99.597656 160.160156 103.332031 160.160156 107.007812 C 160.160156 110.679688 162.691406 114.171875 167.386719 114.171875 C 172.085938 114.171875 169.734375 113.871094 170.21875 113.691406 C 170.757812 113.449219 172.085938 112.003906 172.085938 110.4375 L 172.085938 110.320312 C 171.480469 110.558594 170.035156 110.980469 168.53125 110.980469 C 167.027344 110.980469 164.738281 110.199219 164.496094 107.609375 C 165.882812 107.667969 169.253906 107.609375 169.976562 107.429688 C 171.363281 107.066406 172.445312 106.585938 172.503906 106.164062 C 172.566406 105.921875 172.625 105.621094 172.625 105.140625 C 172.625 102.550781 171.121094 99.597656 166.964844 99.597656 Z M 168.230469 105.199219 C 167.449219 105.261719 165.21875 105.320312 164.4375 105.199219 C 164.4375 102.972656 165.582031 102.007812 166.605469 102.007812 C 167.988281 102.007812 168.53125 103.152344 168.53125 104.539062 C 168.53125 105.921875 168.410156 105.199219 168.230469 105.199219 Z M 168.230469 105.199219 " fill-opacity="1" fill-rule="nonzero"/><path fill="#ffffff" d="M 188.28125 105.320312 C 188.28125 103.09375 187.742188 99.539062 183.585938 99.539062 C 179.429688 99.539062 180.695312 100.441406 179.371094 101.527344 C 179.128906 100.503906 178.648438 99.539062 177.324219 99.539062 C 176 99.539062 175.035156 100.503906 174.671875 101.40625 L 174.671875 101.648438 C 175.15625 101.949219 175.277344 102.371094 175.277344 103.210938 L 175.277344 108.269531 C 175.277344 110.078125 175.277344 112.003906 175.15625 113.871094 C 176.480469 113.871094 177.5625 113.871094 178.828125 113.628906 C 179.550781 113.511719 179.613281 113.390625 179.613281 112.847656 L 179.613281 103.515625 C 180.273438 103.03125 180.816406 102.730469 181.898438 102.730469 C 182.984375 102.730469 184.007812 103.695312 184.007812 105.199219 L 184.007812 113.207031 C 184.007812 113.691406 184.25 113.871094 184.730469 113.871094 C 186.296875 113.871094 187.742188 113.691406 188.464844 113.628906 C 188.402344 112.425781 188.34375 110.558594 188.34375 108.992188 L 188.34375 105.320312 Z M 188.28125 105.320312 " fill-opacity="1" fill-rule="nonzero"/><path fill="#ffffff" d="M 197.859375 99.597656 C 193.582031 99.597656 191.113281 103.332031 191.113281 107.007812 C 191.113281 110.679688 193.640625 114.171875 198.339844 114.171875 C 203.035156 114.171875 200.6875 113.871094 201.167969 113.691406 C 201.710938 113.449219 203.035156 112.003906 203.035156 110.4375 L 203.035156 110.320312 C 202.433594 110.558594 200.988281 110.980469 199.484375 110.980469 C 197.976562 110.980469 195.691406 110.199219 195.449219 107.609375 C 196.832031 107.667969 200.207031 107.609375 200.929688 107.429688 C 202.3125 107.066406 203.398438 106.585938 203.457031 106.164062 C 203.519531 105.921875 203.578125 105.621094 203.578125 105.140625 C 203.578125 102.550781 202.074219 99.597656 197.917969 99.597656 Z M 199.183594 105.199219 C 198.398438 105.261719 196.171875 105.320312 195.386719 105.199219 C 195.386719 102.972656 196.53125 102.007812 197.554688 102.007812 C 198.941406 102.007812 199.484375 103.152344 199.484375 104.539062 C 199.484375 105.921875 199.363281 105.199219 199.183594 105.199219 Z M 199.183594 105.199219 " fill-opacity="1" fill-rule="nonzero"/><path fill="#ffffff" d="M 224.894531 99.960938 C 224.050781 99.660156 222.910156 99.597656 221.945312 99.597656 C 221.222656 102.609375 219.898438 107.125 219.355469 109.054688 C 218.8125 106.765625 217.789062 103.09375 217.246094 100.863281 C 217.066406 100.261719 217.007812 99.902344 216.464844 99.902344 C 215.921875 99.902344 213.875 100.320312 213.273438 100.503906 C 213.332031 100.804688 213.453125 101.164062 213.453125 101.464844 C 213.03125 103.09375 212.730469 104.117188 211.226562 109.113281 C 210.203125 104.65625 209.71875 102.488281 209.179688 100.320312 C 208.996094 99.71875 208.816406 99.480469 208.394531 99.480469 C 207.3125 99.480469 205.203125 100.082031 204.480469 100.261719 C 204.964844 101.464844 205.386719 102.609375 205.925781 104.417969 C 207.132812 108.03125 208.035156 111.101562 208.878906 113.992188 C 209.71875 113.992188 210.863281 113.871094 211.769531 113.691406 C 212.308594 113.570312 212.492188 113.328125 212.730469 112.605469 C 213.753906 109.476562 214.296875 107.789062 214.960938 105.621094 C 215.742188 108.875 216.523438 111.402344 217.1875 113.992188 C 218.210938 113.992188 219.355469 113.871094 220.199219 113.691406 C 220.859375 113.511719 220.980469 113.269531 221.222656 112.667969 C 222.546875 108.933594 223.933594 105.199219 225.136719 101.40625 C 225.496094 100.382812 225.378906 99.960938 224.894531 99.78125 Z M 224.894531 99.960938 " fill-opacity="1" fill-rule="nonzero"/><path fill="#ffffff" d="M 233.265625 99.597656 C 228.992188 99.597656 226.519531 103.332031 226.519531 107.007812 C 226.519531 110.679688 229.050781 114.171875 233.746094 114.171875 C 238.445312 114.171875 236.097656 113.871094 236.578125 113.691406 C 237.121094 113.449219 238.445312 112.003906 238.445312 110.4375 L 238.445312 110.320312 C 237.84375 110.558594 236.398438 110.980469 234.890625 110.980469 C 233.386719 110.980469 231.097656 110.199219 230.855469 107.609375 C 232.242188 107.667969 235.613281 107.609375 236.335938 107.429688 C 237.722656 107.066406 238.804688 106.585938 238.867188 106.164062 C 238.925781 105.921875 238.988281 105.621094 238.988281 105.140625 C 238.988281 102.550781 237.480469 99.597656 233.328125 99.597656 Z M 234.589844 105.199219 C 233.808594 105.261719 231.578125 105.320312 230.796875 105.199219 C 230.796875 102.972656 231.941406 102.007812 232.964844 102.007812 C 234.351562 102.007812 234.890625 103.152344 234.890625 104.539062 C 234.890625 105.921875 234.769531 105.199219 234.589844 105.199219 Z M 234.589844 105.199219 " fill-opacity="1" fill-rule="nonzero"/><path fill="#ffffff" d="M 254.523438 100.863281 C 254.523438 100.503906 254.402344 100.203125 254.34375 99.960938 C 253.859375 100.140625 252.835938 100.320312 251.8125 100.320312 C 250.789062 100.320312 250.246094 100.082031 249.523438 99.902344 C 248.683594 99.71875 247.597656 99.539062 246.875 99.539062 C 243.503906 99.539062 240.914062 101.464844 240.914062 104.539062 C 240.914062 107.609375 242.417969 108.089844 243.742188 108.570312 C 243.140625 109.234375 242.117188 109.898438 241.515625 110.199219 C 241.273438 110.378906 241.214844 110.5 241.214844 110.621094 C 241.214844 112.125 242.296875 113.027344 243.140625 113.390625 C 241.816406 113.992188 240.3125 114.835938 240.3125 116.160156 C 240.3125 118.566406 242.960938 120.253906 246.632812 120.253906 C 250.308594 120.253906 254.460938 118.148438 254.460938 114.351562 C 254.460938 110.558594 253.378906 110.800781 250.308594 110.621094 C 249.042969 110.558594 247.839844 110.4375 246.695312 110.378906 C 245.730469 110.257812 245.492188 109.957031 245.492188 109.535156 C 245.492188 109.113281 245.730469 109.054688 245.851562 108.933594 C 246.03125 108.933594 246.453125 109.054688 246.875 109.054688 C 250.007812 109.054688 252.535156 107.488281 252.535156 104.355469 C 252.535156 101.226562 252.414062 103.332031 252.234375 102.792969 C 252.597656 102.792969 252.835938 102.792969 253.078125 102.730469 C 254.160156 102.609375 254.644531 101.949219 254.644531 100.742188 Z M 245.730469 114.113281 C 246.515625 114.113281 247.65625 114.113281 248.621094 114.292969 C 250.246094 114.535156 250.730469 115.136719 250.730469 115.859375 C 250.730469 117.0625 249.285156 117.605469 247.597656 117.605469 C 245.910156 117.605469 244.046875 116.820312 244.046875 115.617188 C 244.046875 114.957031 244.285156 114.535156 244.707031 114.351562 C 245.007812 114.171875 245.371094 114.113281 245.730469 114.113281 Z M 246.875 106.886719 C 245.671875 106.886719 244.886719 105.921875 244.886719 104.238281 C 244.886719 102.550781 245.492188 101.765625 246.695312 101.765625 C 248.261719 101.765625 248.683594 103.152344 248.683594 104.417969 C 248.683594 105.679688 247.898438 106.886719 246.875 106.886719 Z M 246.875 106.886719 " fill-opacity="1" fill-rule="nonzero"/><path fill="#ffffff" d="M 261.988281 99.597656 C 257.714844 99.597656 255.246094 103.332031 255.246094 107.007812 C 255.246094 110.679688 257.773438 114.171875 262.472656 114.171875 C 267.167969 114.171875 264.820312 113.871094 265.300781 113.691406 C 265.84375 113.449219 267.167969 112.003906 267.167969 110.4375 L 267.167969 110.320312 C 266.566406 110.558594 265.121094 110.980469 263.617188 110.980469 C 262.109375 110.980469 259.820312 110.199219 259.582031 107.609375 C 260.964844 107.667969 264.339844 107.609375 265.0625 107.429688 C 266.445312 107.066406 267.53125 106.585938 267.589844 106.164062 C 267.652344 105.921875 267.710938 105.621094 267.710938 105.140625 C 267.710938 102.550781 266.207031 99.597656 262.050781 99.597656 Z M 263.316406 105.199219 C 262.53125 105.261719 260.304688 105.320312 259.519531 105.199219 C 259.519531 102.972656 260.664062 102.007812 261.6875 102.007812 C 263.074219 102.007812 263.617188 103.152344 263.617188 104.539062 C 263.617188 105.921875 263.496094 105.199219 263.316406 105.199219 Z M 263.316406 105.199219 " fill-opacity="1" fill-rule="nonzero"/><path fill="#ffffff" d="M 283.367188 105.320312 C 283.367188 103.09375 282.824219 99.539062 278.671875 99.539062 C 274.515625 99.539062 275.78125 100.441406 274.457031 101.527344 C 274.214844 100.503906 273.734375 99.539062 272.40625 99.539062 C 271.082031 99.539062 270.121094 100.503906 269.757812 101.40625 L 269.757812 101.648438 C 270.238281 101.949219 270.359375 102.371094 270.359375 103.210938 L 270.359375 108.269531 C 270.359375 110.078125 270.359375 112.003906 270.238281 113.871094 C 271.566406 113.871094 272.648438 113.871094 273.914062 113.628906 C 274.636719 113.511719 274.695312 113.390625 274.695312 112.847656 L 274.695312 103.515625 C 275.359375 103.03125 275.902344 102.730469 276.984375 102.730469 C 278.070312 102.730469 279.09375 103.695312 279.09375 105.199219 L 279.09375 113.207031 C 279.09375 113.691406 279.332031 113.871094 279.816406 113.871094 C 281.378906 113.871094 282.824219 113.691406 283.546875 113.628906 C 283.488281 112.425781 283.429688 110.558594 283.429688 108.992188 L 283.429688 105.320312 Z M 283.367188 105.320312 " fill-opacity="1" fill-rule="nonzero"/><path fill="#ffffff" d="M 293.84375 105.863281 C 293.242188 105.5625 291.917969 104.957031 291.375 104.65625 C 290.773438 104.296875 290.292969 103.996094 290.292969 103.453125 C 290.292969 102.910156 290.835938 102.488281 291.675781 102.488281 C 292.519531 102.488281 293.121094 102.671875 293.785156 102.972656 C 294.988281 103.09375 295.410156 101.648438 295.351562 100.742188 C 294.207031 99.960938 293.0625 99.660156 291.738281 99.660156 C 288.90625 99.660156 286.4375 101.285156 286.4375 104.238281 C 286.4375 107.1875 287.402344 107.125 288.605469 107.847656 C 289.449219 108.269531 290.234375 108.691406 291.015625 109.113281 C 291.796875 109.535156 292.097656 109.898438 292.097656 110.378906 C 292.097656 110.859375 291.558594 111.402344 290.59375 111.402344 C 289.628906 111.402344 287.945312 110.800781 287.039062 110.257812 C 286.558594 110.679688 286.136719 111.523438 286.136719 112.304688 C 286.136719 113.089844 286.5 113.207031 286.980469 113.511719 C 287.882812 114.050781 289.207031 114.292969 290.292969 114.292969 C 293.363281 114.292969 296.132812 112.726562 296.132812 109.597656 C 296.132812 106.464844 295.53125 106.945312 293.90625 106.042969 Z M 293.84375 105.863281 " fill-opacity="1" fill-rule="nonzero"/><path fill="#ffffff" d="M 306.128906 102.550781 C 306.851562 102.550781 307.816406 102.730469 308.480469 102.972656 C 309.683594 102.972656 310.105469 101.648438 310.105469 100.804688 C 309.503906 100.203125 307.996094 99.597656 305.890625 99.597656 C 301.433594 99.597656 298.0625 102.671875 298.0625 107.246094 C 298.0625 111.824219 300.832031 114.113281 305.347656 114.113281 C 309.863281 114.113281 307.996094 113.871094 308.960938 113.269531 C 309.621094 112.667969 310.105469 111.460938 310.105469 110.4375 L 310.105469 110.320312 C 309.203125 110.621094 308.117188 110.859375 306.671875 110.859375 C 304.503906 110.859375 302.515625 109.535156 302.515625 106.523438 C 302.515625 103.515625 304.144531 102.488281 306.191406 102.488281 Z M 306.128906 102.550781 " fill-opacity="1" fill-rule="nonzero"/><path fill="#ffffff" d="M 325.460938 105.019531 C 325.460938 101.527344 323.652344 99.539062 321.003906 99.539062 C 318.355469 99.539062 318.054688 100.261719 316.789062 101.226562 L 316.789062 94.601562 C 316.789062 92.675781 316.667969 92.554688 316.125 92.554688 C 315.585938 92.554688 312.933594 92.976562 312.332031 93.214844 C 312.394531 93.878906 312.453125 94.601562 312.453125 96.527344 L 312.453125 108.332031 C 312.453125 110.136719 312.453125 112.003906 312.332031 113.929688 C 313.71875 113.929688 314.742188 113.929688 316.007812 113.75 C 316.730469 113.628906 316.789062 113.449219 316.789062 112.847656 L 316.789062 103.574219 C 317.511719 103.09375 318.234375 102.851562 319.015625 102.851562 C 320.339844 102.851562 321.125 103.933594 321.125 105.261719 L 321.125 113.269531 C 321.125 113.8125 321.367188 113.992188 321.847656 113.992188 C 323.414062 113.992188 324.859375 113.8125 325.582031 113.75 C 325.519531 112.546875 325.460938 110.679688 325.460938 109.234375 Z M 325.460938 105.019531 " fill-opacity="1" fill-rule="nonzero"/><path fill="#ffffff" d="M 335.515625 99.597656 C 331.300781 99.597656 328.230469 102.671875 328.230469 107.007812 C 328.230469 111.34375 331.421875 114.171875 335.214844 114.171875 C 339.007812 114.171875 342.5625 111.160156 342.5625 106.707031 C 342.5625 102.25 340.214844 99.660156 335.578125 99.660156 Z M 335.515625 111.523438 C 334.011719 111.523438 332.6875 109.957031 332.6875 106.523438 C 332.6875 103.09375 333.347656 102.1875 335.15625 102.1875 C 337.203125 102.1875 337.984375 104.539062 337.984375 107.066406 C 337.984375 109.597656 337.503906 111.582031 335.515625 111.582031 Z M 335.515625 111.523438 " fill-opacity="1" fill-rule="nonzero"/><path fill="#ffffff" d="M 352.015625 99.597656 C 347.800781 99.597656 344.730469 102.671875 344.730469 107.007812 C 344.730469 111.34375 347.921875 114.171875 351.714844 114.171875 C 355.507812 114.171875 359.0625 111.160156 359.0625 106.707031 C 359.0625 102.25 356.714844 99.660156 352.078125 99.660156 Z M 352.015625 111.523438 C 350.511719 111.523438 349.1875 109.957031 349.1875 106.523438 C 349.1875 103.09375 349.847656 102.1875 351.65625 102.1875 C 353.703125 102.1875 354.484375 104.539062 354.484375 107.066406 C 354.484375 109.597656 354.003906 111.582031 352.015625 111.582031 Z M 352.015625 111.523438 " fill-opacity="1" fill-rule="nonzero"/><path fill="#ffffff" d="M 366.226562 109.65625 L 366.226562 94.660156 C 366.226562 92.792969 366.109375 92.613281 365.566406 92.613281 C 365.023438 92.613281 362.433594 92.976562 361.773438 93.277344 C 361.832031 93.878906 361.890625 94.660156 361.890625 96.46875 L 361.890625 113.570312 C 361.890625 113.871094 362.011719 113.992188 362.3125 113.992188 C 362.796875 113.992188 365.625 113.871094 366.347656 113.75 C 366.289062 112.847656 366.226562 111.160156 366.226562 109.65625 Z M 366.226562 109.65625 " fill-opacity="1" fill-rule="nonzero"/><path fill="#ffffff" d="M 118.789062 4.515625 L 115.960938 9.453125 L 138.300781 22.460938 L 138.300781 47.269531 L 117.585938 59.554688 L 99.039062 48.535156 L 96.148438 53.53125 L 117.585938 66.238281 L 144.023438 50.523438 L 144.023438 19.207031 Z M 118.789062 4.515625 " fill-opacity="1" fill-rule="nonzero"/><path fill="#ffffff" d="M 174.613281 3.429688 L 148.175781 19.207031 L 148.175781 50.523438 L 174.613281 66.238281 L 201.050781 50.523438 L 201.050781 41.007812 L 195.328125 41.007812 L 195.328125 47.269531 L 174.613281 59.554688 L 153.898438 47.269531 L 153.898438 22.460938 L 174.613281 10.113281 L 197.617188 23.84375 L 200.445312 18.847656 L 174.792969 3.550781 Z M 174.613281 3.429688 " fill-opacity="1" fill-rule="nonzero"/><path fill="#ffffff" d="M 122.824219 48.714844 C 122.824219 51.847656 120.296875 54.375 117.164062 54.375 C 114.035156 54.375 111.503906 51.847656 111.503906 48.714844 C 111.503906 45.582031 114.035156 43.054688 117.164062 43.054688 C 120.296875 43.054688 122.824219 45.582031 122.824219 48.714844 " fill-opacity="1" fill-rule="nonzero"/><path fill="#ffffff" d="M 180.875 21.796875 C 180.875 24.929688 178.347656 27.457031 175.214844 27.457031 C 172.085938 27.457031 169.554688 24.929688 169.554688 21.796875 C 169.554688 18.667969 172.085938 16.136719 175.214844 16.136719 C 178.347656 16.136719 180.875 18.667969 180.875 21.796875 " fill-opacity="1" fill-rule="nonzero"/><path fill="#ffffff" d="M 169.3125 71.175781 C 161.96875 71.175781 154.863281 73.644531 149.140625 78.042969 C 143.359375 73.644531 136.253906 71.175781 128.90625 71.175781 C 121.5625 71.175781 112.46875 74.367188 106.265625 80.089844 L 110.121094 84.242188 C 115.238281 79.488281 121.863281 76.835938 128.847656 76.835938 C 135.832031 76.835938 141.253906 79.003906 146.128906 82.980469 L 148.960938 85.570312 C 148.960938 85.570312 149.019531 85.628906 149.082031 85.6875 C 149.199219 85.570312 149.261719 85.507812 149.382812 85.386719 L 151.789062 83.160156 C 156.667969 79.125 162.871094 76.898438 169.253906 76.898438 C 175.636719 76.898438 182.921875 79.546875 188.042969 84.304688 L 191.894531 80.148438 C 185.753906 74.429688 177.683594 71.238281 169.253906 71.238281 Z M 169.3125 71.175781 " fill-opacity="1" fill-rule="nonzero"/><path fill="#ffffff" d="M 115.238281 137.839844 C 115.539062 137.839844 116.082031 137.777344 116.441406 137.65625 C 116.683594 137.597656 116.804688 137.476562 116.925781 137.234375 C 117.585938 135.609375 118.488281 133.503906 119.152344 131.875 C 119.394531 131.335938 119.453125 130.972656 119.152344 130.851562 C 118.789062 130.671875 118.429688 130.613281 117.949219 130.613281 C 117.585938 131.875 116.863281 133.804688 116.203125 135.609375 C 115.660156 133.742188 115.058594 131.996094 114.695312 130.972656 C 114.636719 130.734375 114.515625 130.613281 114.273438 130.613281 C 113.851562 130.613281 113.011719 130.792969 112.648438 130.972656 C 112.890625 131.515625 113.128906 132.175781 113.429688 132.960938 C 114.152344 134.828125 114.695312 136.273438 115.238281 137.777344 Z M 115.238281 137.839844 " fill-opacity="1" fill-rule="nonzero"/><path fill="#ffffff" d="M 130.050781 134.105469 C 130.050781 132.175781 128.847656 130.550781 126.621094 130.550781 C 124.511719 130.550781 123.007812 132.117188 123.007812 134.226562 C 123.007812 136.332031 124.453125 137.777344 126.4375 137.777344 C 128.425781 137.777344 130.050781 136.273438 130.050781 134.042969 Z M 124.933594 134.042969 C 124.933594 132.71875 125.476562 131.695312 126.378906 131.695312 C 127.523438 131.695312 128.003906 132.898438 128.003906 134.226562 C 128.003906 135.550781 127.523438 136.632812 126.558594 136.632812 C 125.59375 136.632812 124.933594 135.789062 124.933594 134.042969 Z M 124.933594 134.042969 " fill-opacity="1" fill-rule="nonzero"/><path fill="#ffffff" d="M 137.820312 130.613281 C 135.710938 130.613281 134.207031 132.175781 134.207031 134.285156 C 134.207031 136.394531 135.652344 137.839844 137.640625 137.839844 C 139.625 137.839844 141.253906 136.332031 141.253906 134.105469 C 141.253906 131.875 140.046875 130.550781 137.820312 130.550781 Z M 137.820312 136.695312 C 136.917969 136.695312 136.195312 135.851562 136.195312 134.105469 C 136.195312 132.359375 136.734375 131.757812 137.640625 131.757812 C 138.785156 131.757812 139.265625 132.960938 139.265625 134.285156 C 139.265625 135.609375 138.785156 136.695312 137.820312 136.695312 Z M 137.820312 136.695312 " fill-opacity="1" fill-rule="nonzero"/><path fill="#ffffff" d="M 145.769531 132.238281 L 145.769531 134.886719 C 145.769531 135.972656 145.769531 136.875 145.769531 137.71875 C 146.3125 137.71875 146.792969 137.71875 147.335938 137.65625 C 147.636719 137.597656 147.695312 137.476562 147.695312 137.234375 L 147.695312 133.984375 C 147.695312 133.621094 147.695312 133.441406 147.816406 133.203125 C 148.058594 132.539062 148.539062 132.359375 148.78125 132.359375 C 149.019531 132.359375 149.199219 132.359375 149.503906 132.539062 C 149.742188 132.539062 150.042969 132.117188 150.105469 131.816406 C 150.285156 131.515625 150.285156 131.09375 150.226562 130.914062 C 150.105469 130.792969 149.804688 130.671875 149.503906 130.671875 C 148.660156 130.671875 147.996094 131.214844 147.574219 132.296875 C 147.574219 131.335938 147.273438 130.671875 146.613281 130.671875 C 145.949219 130.671875 145.589844 131.152344 145.46875 131.453125 C 145.707031 131.695312 145.828125 131.9375 145.828125 132.296875 Z M 145.769531 132.238281 " fill-opacity="1" fill-rule="nonzero"/><path fill="#ffffff" d="M 167.328125 133.863281 C 167.328125 131.996094 166.242188 130.550781 164.316406 130.550781 C 162.390625 130.550781 162.929688 130.914062 162.507812 131.152344 L 162.507812 128.082031 C 162.507812 127.121094 162.449219 127.058594 162.207031 127.058594 C 161.96875 127.058594 160.945312 127.238281 160.582031 127.359375 C 160.582031 127.660156 160.644531 128.144531 160.644531 129.046875 L 160.644531 136.996094 C 160.644531 137.234375 160.761719 137.355469 161.003906 137.476562 C 161.484375 137.65625 162.207031 137.839844 163.050781 137.839844 C 165.398438 137.839844 167.265625 136.332031 167.265625 133.863281 Z M 163.292969 136.695312 C 163.050781 136.695312 162.75 136.695312 162.570312 136.574219 L 162.570312 132.175781 C 162.808594 132.058594 163.230469 131.9375 163.472656 131.9375 C 164.675781 131.9375 165.398438 132.839844 165.398438 134.105469 C 165.398438 135.910156 164.253906 136.632812 163.292969 136.632812 Z M 163.292969 136.695312 " fill-opacity="1" fill-rule="nonzero"/><path fill="#ffffff" d="M 176.359375 137.839844 C 177.261719 137.839844 177.683594 137.355469 177.683594 136.511719 C 177.625 136.511719 177.503906 136.511719 177.445312 136.511719 C 177.082031 136.511719 176.902344 136.273438 176.902344 136.09375 C 176.902344 135.066406 176.960938 133.863281 176.960938 133.261719 C 176.960938 131.574219 175.816406 130.613281 174.433594 130.613281 C 173.046875 130.613281 172.265625 131.152344 171.601562 131.636719 C 171.601562 132.117188 171.84375 132.660156 172.503906 132.480469 C 172.867188 132.296875 173.410156 131.996094 173.949219 131.996094 C 174.492188 131.996094 175.15625 132.539062 175.15625 133.203125 L 175.15625 133.441406 C 174.972656 133.441406 174.613281 133.5625 174.371094 133.621094 C 173.289062 133.863281 171.421875 134.285156 171.421875 135.910156 C 171.421875 137.535156 172.324219 137.839844 173.347656 137.839844 C 174.371094 137.839844 174.792969 137.417969 175.214844 136.933594 C 175.394531 137.476562 175.816406 137.839844 176.480469 137.839844 Z M 175.035156 135.550781 C 175.035156 135.851562 175.035156 135.972656 174.914062 136.09375 C 174.671875 136.332031 174.433594 136.511719 174.011719 136.511719 C 173.589844 136.511719 173.109375 136.210938 173.109375 135.671875 C 173.109375 135.128906 173.710938 134.648438 175.035156 134.464844 Z M 175.035156 135.550781 " fill-opacity="1" fill-rule="nonzero"/><path fill="#ffffff" d="M 186.355469 135.550781 C 186.355469 134.886719 186.054688 134.285156 185.273438 133.863281 C 184.910156 133.683594 184.308594 133.382812 184.007812 133.203125 C 183.707031 133.019531 183.40625 132.839844 183.40625 132.480469 C 183.40625 132.117188 183.707031 131.875 184.1875 131.875 C 184.667969 131.875 184.972656 131.996094 185.273438 132.117188 C 185.8125 132.117188 185.996094 131.574219 185.996094 131.152344 C 185.453125 130.792969 184.851562 130.613281 184.25 130.613281 C 182.921875 130.613281 181.71875 131.394531 181.71875 132.78125 C 181.71875 134.164062 182.199219 134.226562 182.804688 134.585938 C 183.164062 134.828125 183.585938 135.007812 184.007812 135.1875 C 184.429688 135.429688 184.609375 135.609375 184.609375 135.910156 C 184.609375 136.210938 184.308594 136.574219 183.707031 136.574219 C 183.105469 136.574219 182.441406 136.273438 181.960938 136.03125 C 181.71875 136.210938 181.597656 136.574219 181.539062 136.875 C 181.539062 137.117188 181.660156 137.296875 181.898438 137.417969 C 182.320312 137.65625 182.984375 137.839844 183.585938 137.839844 C 185.03125 137.839844 186.355469 137.117188 186.355469 135.550781 Z M 186.355469 135.550781 " fill-opacity="1" fill-rule="nonzero"/><path fill="#ffffff" d="M 191.65625 129.40625 C 192.257812 129.40625 192.679688 128.925781 192.679688 128.324219 C 192.679688 127.722656 192.316406 127.300781 191.714844 127.300781 C 191.355469 127.300781 190.691406 127.601562 190.691406 128.382812 C 190.691406 129.167969 191.171875 129.40625 191.65625 129.40625 Z M 191.65625 129.40625 " fill-opacity="1" fill-rule="nonzero"/><path fill="#ffffff" d="M 190.691406 137.71875 C 191.292969 137.71875 191.835938 137.71875 192.195312 137.65625 C 192.558594 137.65625 192.617188 137.535156 192.617188 137.234375 L 192.617188 131.636719 C 192.617188 130.730469 192.558594 130.671875 192.316406 130.671875 C 192.015625 130.671875 190.992188 130.730469 190.632812 130.851562 C 190.632812 131.152344 190.691406 131.636719 190.691406 132.597656 L 190.691406 135.25 C 190.691406 136.152344 190.691406 137.054688 190.691406 137.71875 Z M 190.691406 137.71875 " fill-opacity="1" fill-rule="nonzero"/><path fill="#ffffff" d="M 200.746094 133.804688 C 200.386719 133.621094 199.785156 133.320312 199.484375 133.140625 C 199.183594 132.960938 198.882812 132.78125 198.882812 132.417969 C 198.882812 132.058594 199.183594 131.816406 199.664062 131.816406 C 200.144531 131.816406 200.445312 131.9375 200.746094 132.058594 C 201.289062 132.058594 201.46875 131.515625 201.46875 131.09375 C 200.929688 130.730469 200.328125 130.550781 199.722656 130.550781 C 198.398438 130.550781 197.195312 131.335938 197.195312 132.71875 C 197.195312 134.105469 197.675781 134.164062 198.277344 134.527344 C 198.640625 134.765625 199.0625 134.949219 199.484375 135.128906 C 199.90625 135.371094 200.085938 135.550781 200.085938 135.851562 C 200.085938 136.152344 199.785156 136.511719 199.183594 136.511719 C 198.582031 136.511719 197.859375 136.210938 197.4375 135.972656 C 197.195312 136.152344 197.074219 136.511719 197.015625 136.816406 C 197.015625 137.054688 197.136719 137.234375 197.375 137.355469 C 197.796875 137.597656 198.460938 137.777344 199.0625 137.777344 C 200.507812 137.777344 201.832031 137.054688 201.832031 135.488281 C 201.832031 133.925781 201.53125 134.226562 200.746094 133.804688 Z M 200.746094 133.804688 " fill-opacity="1" fill-rule="nonzero"/><path fill="#ffffff" d="M 212.914062 134.105469 C 212.914062 132.175781 211.707031 130.550781 209.480469 130.550781 C 207.371094 130.550781 205.867188 132.117188 205.867188 134.226562 C 205.867188 136.332031 207.3125 137.777344 209.300781 137.777344 C 211.285156 137.777344 212.914062 136.273438 212.914062 134.042969 Z M 209.480469 136.695312 C 208.578125 136.695312 207.855469 135.851562 207.855469 134.105469 C 207.855469 132.359375 208.394531 131.757812 209.300781 131.757812 C 210.441406 131.757812 210.925781 132.960938 210.925781 134.285156 C 210.925781 135.609375 210.441406 136.695312 209.480469 136.695312 Z M 209.480469 136.695312 " fill-opacity="1" fill-rule="nonzero"/><path fill="#ffffff" d="M 223.75 133.441406 C 223.75 132.238281 223.390625 130.613281 221.402344 130.613281 C 219.414062 130.613281 219.898438 131.09375 219.234375 131.636719 C 219.113281 131.152344 218.933594 130.613281 218.332031 130.613281 C 217.730469 130.613281 217.308594 131.035156 217.1875 131.394531 L 217.1875 131.515625 C 217.429688 131.636719 217.488281 131.875 217.488281 132.359375 L 217.488281 134.886719 C 217.488281 135.972656 217.488281 136.875 217.488281 137.71875 C 218.03125 137.71875 218.511719 137.71875 219.054688 137.597656 C 219.355469 137.597656 219.414062 137.476562 219.414062 137.234375 L 219.414062 132.597656 C 219.777344 132.296875 220.136719 131.996094 220.742188 131.996094 C 221.34375 131.996094 221.882812 132.539062 221.882812 133.441406 L 221.882812 137.476562 C 221.882812 137.65625 221.945312 137.777344 222.1875 137.777344 C 222.847656 137.777344 223.449219 137.65625 223.8125 137.65625 C 223.8125 137.117188 223.75 136.273438 223.75 135.429688 Z M 223.75 133.441406 " fill-opacity="1" fill-rule="nonzero"/><path fill="#ffffff" d="M 235.011719 135.910156 L 235.011719 128.082031 C 235.011719 127.121094 234.953125 127.058594 234.710938 127.058594 C 234.46875 127.058594 233.386719 127.238281 233.023438 127.359375 C 233.023438 127.660156 233.085938 128.082031 233.085938 128.984375 L 233.085938 130.792969 C 232.964844 130.730469 232.542969 130.613281 232.121094 130.613281 C 229.894531 130.613281 228.207031 132.175781 228.207031 134.464844 C 228.207031 136.753906 229.472656 137.839844 231.277344 137.839844 C 233.085938 137.839844 232.722656 137.476562 233.265625 136.996094 C 233.445312 137.476562 233.746094 137.839844 234.652344 137.839844 C 235.554688 137.839844 235.554688 137.234375 235.613281 136.816406 C 235.191406 136.695312 234.953125 136.511719 234.953125 135.910156 Z M 233.085938 136.152344 C 232.84375 136.332031 232.421875 136.453125 232.121094 136.453125 C 231.097656 136.453125 230.195312 135.671875 230.195312 134.226562 C 230.195312 132.78125 231.277344 131.816406 232.183594 131.816406 C 233.085938 131.816406 232.90625 131.9375 233.085938 131.996094 L 233.085938 136.210938 Z M 233.085938 136.152344 " fill-opacity="1" fill-rule="nonzero"/><path fill="#ffffff" d="M 242.960938 130.613281 C 240.851562 130.613281 239.648438 132.417969 239.648438 134.285156 C 239.648438 136.152344 240.914062 137.839844 243.203125 137.839844 C 245.492188 137.839844 244.40625 137.65625 244.648438 137.535156 C 244.886719 137.417969 245.429688 136.753906 245.429688 136.09375 C 245.1875 136.210938 244.40625 136.394531 243.683594 136.394531 C 242.601562 136.394531 241.636719 135.789062 241.515625 134.464844 C 242.359375 134.464844 243.984375 134.464844 244.40625 134.40625 C 245.070312 134.226562 245.671875 134.042969 245.730469 133.804688 C 245.730469 133.683594 245.730469 133.503906 245.730469 133.261719 C 245.730469 131.996094 244.949219 130.550781 242.960938 130.550781 Z M 243.742188 133.382812 C 243.382812 133.382812 242.179688 133.382812 241.515625 133.382812 C 241.574219 132.238281 242.179688 131.695312 242.78125 131.695312 C 243.5625 131.695312 243.925781 132.296875 243.925781 133.082031 C 243.925781 133.261719 243.804688 133.382812 243.742188 133.382812 Z M 243.742188 133.382812 " fill-opacity="1" fill-rule="nonzero"/><path fill="#ffffff" d="M 253.800781 130.613281 C 252.957031 130.613281 252.296875 131.152344 251.875 132.238281 C 251.875 131.273438 251.574219 130.613281 250.910156 130.613281 C 250.246094 130.613281 249.886719 131.09375 249.765625 131.394531 C 250.007812 131.636719 250.128906 131.875 250.128906 132.238281 L 250.128906 134.886719 C 250.128906 135.972656 250.128906 136.875 250.128906 137.71875 C 250.667969 137.71875 251.152344 137.71875 251.691406 137.65625 C 251.992188 137.597656 252.054688 137.476562 252.054688 137.234375 L 252.054688 133.984375 C 252.054688 133.621094 252.054688 133.441406 252.175781 133.203125 C 252.414062 132.539062 252.898438 132.359375 253.136719 132.359375 C 253.378906 132.359375 253.558594 132.359375 253.859375 132.539062 C 254.101562 132.539062 254.402344 132.117188 254.460938 131.816406 C 254.644531 131.515625 254.644531 131.09375 254.582031 130.914062 C 254.460938 130.792969 254.160156 130.671875 253.859375 130.671875 Z M 253.800781 130.613281 " fill-opacity="1" fill-rule="nonzero"/><path fill="#ffffff" d="M 266.386719 137.175781 C 267.046875 135.25 267.710938 133.503906 268.375 131.636719 C 268.554688 131.09375 268.492188 130.914062 268.3125 130.792969 C 267.953125 130.671875 267.46875 130.613281 267.046875 130.613281 C 266.746094 131.875 266.144531 133.925781 265.601562 135.550781 C 265.242188 134.105469 264.699219 132.417969 264.460938 131.335938 C 264.339844 130.972656 264.339844 130.792969 264.097656 130.792969 C 263.855469 130.792969 262.953125 130.972656 262.710938 131.09375 C 262.710938 131.214844 262.773438 131.394531 262.832031 131.574219 C 262.53125 132.597656 262.292969 133.261719 261.570312 135.671875 C 261.027344 133.503906 260.726562 132.238281 260.363281 131.035156 C 260.304688 130.792969 260.183594 130.671875 260.003906 130.671875 C 259.582031 130.671875 258.617188 130.914062 258.316406 131.035156 C 258.558594 131.574219 258.738281 132.175781 259.097656 133.203125 C 259.703125 135.007812 260.183594 136.574219 260.605469 137.839844 C 260.964844 137.839844 261.449219 137.777344 261.808594 137.71875 C 262.050781 137.65625 262.171875 137.535156 262.230469 137.234375 C 262.652344 135.851562 263.132812 134.464844 263.496094 133.441406 C 263.976562 135.128906 264.339844 136.332031 264.761719 137.898438 C 265.183594 137.898438 265.664062 137.898438 266.023438 137.777344 C 266.324219 137.71875 266.386719 137.597656 266.507812 137.234375 Z M 266.386719 137.175781 " fill-opacity="1" fill-rule="nonzero"/><path fill="#ffffff" d="M 274.273438 130.671875 C 273.972656 130.671875 272.949219 130.730469 272.589844 130.851562 C 272.589844 131.152344 272.648438 131.636719 272.648438 132.597656 L 272.648438 135.25 C 272.648438 136.152344 272.648438 137.054688 272.648438 137.71875 C 273.25 137.71875 273.792969 137.71875 274.152344 137.65625 C 274.515625 137.65625 274.636719 137.535156 274.636719 137.234375 L 274.636719 131.636719 C 274.636719 130.730469 274.574219 130.671875 274.335938 130.671875 Z M 274.273438 130.671875 " fill-opacity="1" fill-rule="nonzero"/><path fill="#ffffff" d="M 273.671875 127.300781 C 273.3125 127.300781 272.648438 127.601562 272.648438 128.382812 C 272.648438 129.167969 273.128906 129.40625 273.613281 129.40625 C 274.09375 129.40625 274.636719 128.925781 274.636719 128.324219 C 274.636719 127.722656 274.273438 127.300781 273.671875 127.300781 Z M 273.671875 127.300781 " fill-opacity="1" fill-rule="nonzero"/><path fill="#ffffff" d="M 281.199219 130.671875 C 280.898438 130.671875 279.875 130.730469 279.511719 130.851562 C 279.511719 131.152344 279.574219 131.636719 279.574219 132.539062 L 279.574219 135.972656 C 279.574219 139.101562 279.152344 139.585938 277.949219 140.066406 C 278.007812 140.609375 278.371094 140.910156 278.789062 140.910156 C 279.210938 140.910156 280.054688 140.609375 280.65625 139.824219 C 281.261719 139.042969 281.5 137.898438 281.5 136.210938 L 281.5 131.636719 C 281.5 130.730469 281.441406 130.671875 281.199219 130.671875 Z M 281.199219 130.671875 " fill-opacity="1" fill-rule="nonzero"/><path fill="#ffffff" d="M 280.597656 127.300781 C 280.234375 127.300781 279.574219 127.601562 279.574219 128.382812 C 279.574219 129.167969 280.054688 129.40625 280.539062 129.40625 C 281.019531 129.40625 281.5625 128.984375 281.5625 128.382812 C 281.5625 127.78125 281.199219 127.359375 280.597656 127.359375 Z M 280.597656 127.300781 " fill-opacity="1" fill-rule="nonzero"/><path fill="#ffffff" d="M 289.628906 133.804688 C 289.269531 133.621094 288.667969 133.320312 288.367188 133.140625 C 288.066406 132.960938 287.761719 132.78125 287.761719 132.417969 C 287.761719 132.058594 288.066406 131.816406 288.546875 131.816406 C 289.027344 131.816406 289.328125 131.9375 289.628906 132.058594 C 290.171875 132.058594 290.351562 131.515625 290.351562 131.09375 C 289.8125 130.730469 289.207031 130.550781 288.605469 130.550781 C 287.28125 130.550781 286.078125 131.335938 286.078125 132.71875 C 286.078125 134.105469 286.558594 134.164062 287.160156 134.527344 C 287.523438 134.765625 287.945312 134.949219 288.367188 135.128906 C 288.847656 135.371094 288.96875 135.550781 288.96875 135.851562 C 288.96875 136.152344 288.667969 136.511719 288.066406 136.511719 C 287.460938 136.511719 286.738281 136.210938 286.316406 135.972656 C 286.078125 136.152344 285.957031 136.511719 285.898438 136.816406 C 285.898438 137.054688 286.015625 137.234375 286.257812 137.355469 C 286.679688 137.597656 287.34375 137.777344 287.945312 137.777344 C 289.390625 137.777344 290.714844 137.054688 290.714844 135.488281 C 290.714844 133.925781 290.414062 134.226562 289.628906 133.804688 Z M 289.628906 133.804688 " fill-opacity="1" fill-rule="nonzero"/><path fill="#ffffff" d="M 116.503906 146.207031 C 114.394531 146.207031 112.890625 147.773438 112.890625 149.882812 C 112.890625 151.988281 114.335938 153.433594 116.320312 153.433594 C 118.308594 153.433594 119.933594 151.929688 119.933594 149.703125 C 119.933594 147.472656 118.730469 146.148438 116.503906 146.148438 Z M 116.503906 152.289062 C 115.597656 152.289062 114.875 151.449219 114.875 149.703125 C 114.875 147.953125 115.417969 147.351562 116.320312 147.351562 C 117.464844 147.351562 117.949219 148.558594 117.949219 149.882812 C 117.949219 151.207031 117.464844 152.289062 116.503906 152.289062 Z M 116.503906 152.289062 " fill-opacity="1" fill-rule="nonzero"/><path fill="#ffffff" d="M 128.484375 146.207031 C 127.824219 146.207031 127.160156 146.507812 126.257812 147.113281 C 126.136719 146.691406 125.957031 146.207031 125.355469 146.207031 C 124.753906 146.207031 124.332031 146.570312 124.148438 146.992188 L 124.148438 147.113281 C 124.390625 147.171875 124.453125 147.472656 124.453125 147.894531 L 124.453125 154.035156 C 124.453125 155.121094 124.453125 155.964844 124.453125 156.566406 C 125.054688 156.566406 125.476562 156.566406 126.015625 156.503906 C 126.316406 156.445312 126.378906 156.324219 126.378906 156.085938 L 126.378906 153.195312 C 126.621094 153.375 127.039062 153.433594 127.460938 153.433594 C 129.449219 153.433594 131.195312 151.867188 131.195312 149.460938 C 131.195312 147.050781 130.050781 146.148438 128.425781 146.148438 Z M 127.28125 152.230469 C 126.980469 152.230469 126.621094 152.171875 126.378906 152.050781 L 126.378906 148.074219 C 126.621094 147.894531 127.160156 147.652344 127.644531 147.652344 C 128.605469 147.652344 129.269531 148.558594 129.269531 149.761719 C 129.269531 151.507812 128.246094 152.230469 127.28125 152.230469 Z M 127.28125 152.230469 " fill-opacity="1" fill-rule="nonzero"/><path fill="#ffffff" d="M 147.09375 144.644531 C 147.9375 144.644531 148.71875 144.824219 149.441406 145.183594 C 149.921875 145.304688 150.40625 144.824219 150.40625 144.222656 C 150.042969 143.859375 148.898438 143.316406 147.152344 143.316406 C 144.082031 143.316406 141.613281 145.304688 141.613281 148.496094 C 141.613281 151.6875 144.382812 153.554688 147.035156 153.554688 C 149.683594 153.554688 148.597656 153.375 149.199219 153.253906 C 149.621094 153.074219 150.164062 152.710938 150.40625 152.472656 L 150.40625 148.917969 C 150.40625 148.617188 150.285156 148.496094 150.105469 148.496094 C 149.683594 148.496094 148.898438 148.675781 148.417969 148.738281 C 148.417969 149.097656 148.480469 149.460938 148.480469 150.121094 L 148.480469 152.171875 C 148.296875 152.230469 147.816406 152.351562 147.394531 152.351562 C 145.589844 152.351562 143.78125 151.144531 143.78125 148.375 C 143.78125 145.605469 145.285156 144.703125 147.152344 144.703125 Z M 147.09375 144.644531 " fill-opacity="1" fill-rule="nonzero"/><path fill="#ffffff" d="M 158.234375 146.207031 C 156.125 146.207031 154.921875 148.015625 154.921875 149.882812 C 154.921875 151.75 156.1875 153.433594 158.476562 153.433594 C 160.761719 153.433594 159.679688 153.253906 159.921875 153.132812 C 160.160156 153.011719 160.703125 152.351562 160.703125 151.6875 C 160.460938 151.808594 159.679688 151.988281 158.957031 151.988281 C 157.871094 151.988281 156.910156 151.386719 156.847656 150.0625 C 157.691406 150.0625 159.316406 150.0625 159.738281 150.003906 C 160.402344 149.820312 161.003906 149.640625 161.0625 149.398438 C 161.0625 149.28125 161.0625 149.097656 161.0625 148.859375 C 161.0625 147.59375 160.28125 146.148438 158.292969 146.148438 Z M 159.015625 148.980469 C 158.65625 148.980469 157.449219 148.980469 156.789062 148.980469 C 156.847656 147.835938 157.449219 147.292969 158.054688 147.292969 C 158.835938 147.292969 159.199219 147.894531 159.199219 148.675781 C 159.199219 148.859375 159.078125 148.980469 159.015625 148.980469 Z M 159.015625 148.980469 " fill-opacity="1" fill-rule="nonzero"/><path fill="#ffffff" d="M 169.074219 146.207031 C 168.230469 146.207031 167.566406 146.75 167.144531 147.835938 C 167.144531 146.871094 166.84375 146.207031 166.183594 146.207031 C 165.519531 146.207031 165.160156 146.691406 165.039062 146.992188 C 165.28125 147.230469 165.398438 147.472656 165.398438 147.835938 L 165.398438 150.484375 C 165.398438 151.566406 165.398438 152.472656 165.398438 153.3125 C 165.941406 153.3125 166.421875 153.3125 166.964844 153.253906 C 167.265625 153.195312 167.328125 153.074219 167.328125 152.832031 L 167.328125 149.582031 C 167.328125 149.21875 167.328125 149.039062 167.449219 148.796875 C 167.6875 148.136719 168.171875 147.953125 168.410156 147.953125 C 168.652344 147.953125 168.832031 147.953125 169.132812 148.136719 C 169.375 148.136719 169.675781 147.714844 169.734375 147.414062 C 169.917969 147.113281 169.917969 146.691406 169.855469 146.507812 C 169.734375 146.390625 169.433594 146.269531 169.132812 146.269531 Z M 169.074219 146.207031 " fill-opacity="1" fill-rule="nonzero"/><path fill="#ffffff" d="M 176.660156 146.207031 C 174.554688 146.207031 173.347656 148.015625 173.347656 149.882812 C 173.347656 151.75 174.613281 153.433594 176.902344 153.433594 C 179.191406 153.433594 178.105469 153.253906 178.347656 153.132812 C 178.585938 153.011719 179.128906 152.351562 179.128906 151.6875 C 178.890625 151.808594 178.105469 151.988281 177.382812 151.988281 C 176.300781 151.988281 175.335938 151.386719 175.214844 150.0625 C 176.058594 150.0625 177.683594 150.0625 178.105469 150.003906 C 178.769531 149.820312 179.371094 149.640625 179.429688 149.398438 C 179.429688 149.28125 179.429688 149.097656 179.429688 148.859375 C 179.429688 147.59375 178.648438 146.148438 176.660156 146.148438 Z M 177.445312 148.980469 C 177.082031 148.980469 175.878906 148.980469 175.214844 148.980469 C 175.277344 147.835938 175.878906 147.292969 176.480469 147.292969 C 177.261719 147.292969 177.625 147.894531 177.625 148.675781 C 177.625 148.859375 177.503906 148.980469 177.445312 148.980469 Z M 177.445312 148.980469 " fill-opacity="1" fill-rule="nonzero"/><path fill="#ffffff" d="M 187.019531 142.59375 C 186.417969 142.59375 185.753906 142.714844 185.089844 143.316406 C 184.429688 143.921875 184.007812 144.824219 184.007812 146.390625 C 183.644531 146.628906 183.34375 146.691406 183.105469 147.050781 C 183.105469 147.414062 183.40625 147.59375 184.007812 147.59375 C 184.007812 149.519531 184.007812 151.386719 184.007812 153.074219 C 184.007812 153.3125 184.128906 153.3125 184.25 153.3125 C 184.367188 153.3125 185.453125 153.3125 185.996094 153.195312 C 185.996094 152.351562 185.933594 148.859375 185.933594 147.535156 C 186.597656 147.535156 187.140625 147.472656 187.378906 147.292969 C 187.558594 147.171875 187.800781 146.8125 187.859375 146.269531 C 187.5 146.269531 186.234375 146.269531 185.996094 146.269531 C 185.996094 144.523438 186.355469 143.800781 187.078125 143.800781 C 187.800781 143.800781 187.378906 143.800781 187.5 143.859375 C 187.921875 143.859375 188.222656 143.199219 188.164062 142.835938 C 187.921875 142.59375 187.5 142.476562 187.078125 142.476562 Z M 187.019531 142.59375 " fill-opacity="1" fill-rule="nonzero"/><path fill="#ffffff" d="M 194.425781 146.207031 C 192.316406 146.207031 190.8125 147.773438 190.8125 149.882812 C 190.8125 151.988281 192.257812 153.433594 194.246094 153.433594 C 196.230469 153.433594 197.859375 151.929688 197.859375 149.703125 C 197.859375 147.472656 196.652344 146.148438 194.425781 146.148438 Z M 194.425781 152.289062 C 193.523438 152.289062 192.800781 151.449219 192.800781 149.703125 C 192.800781 147.953125 193.339844 147.351562 194.246094 147.351562 C 195.386719 147.351562 195.871094 148.558594 195.871094 149.882812 C 195.871094 151.207031 195.386719 152.289062 194.425781 152.289062 Z M 194.425781 152.289062 " fill-opacity="1" fill-rule="nonzero"/><path fill="#ffffff" d="M 206.109375 146.207031 C 205.265625 146.207031 204.601562 146.75 204.179688 147.835938 C 204.179688 146.871094 203.878906 146.207031 203.21875 146.207031 C 202.554688 146.207031 202.191406 146.691406 202.074219 146.992188 C 202.3125 147.230469 202.433594 147.472656 202.433594 147.835938 L 202.433594 150.484375 C 202.433594 151.566406 202.433594 152.472656 202.433594 153.3125 C 202.976562 153.3125 203.457031 153.3125 204 153.253906 C 204.300781 153.195312 204.359375 153.074219 204.359375 152.832031 L 204.359375 149.582031 C 204.359375 149.21875 204.359375 149.039062 204.480469 148.796875 C 204.722656 148.136719 205.203125 147.953125 205.445312 147.953125 C 205.6875 147.953125 205.867188 147.953125 206.167969 148.136719 C 206.410156 148.136719 206.710938 147.714844 206.769531 147.414062 C 206.949219 147.113281 206.949219 146.691406 206.890625 146.507812 C 206.769531 146.390625 206.46875 146.269531 206.167969 146.269531 Z M 206.109375 146.207031 " fill-opacity="1" fill-rule="nonzero"/><path fill="#ffffff" d="M 221.703125 148.859375 C 221.703125 147.652344 221.222656 146.148438 219.476562 146.148438 C 217.730469 146.148438 217.667969 146.75 217.066406 147.292969 C 216.765625 146.628906 216.164062 146.148438 215.199219 146.148438 C 214.238281 146.148438 213.574219 146.691406 212.914062 147.171875 C 212.792969 146.691406 212.609375 146.148438 211.949219 146.148438 C 211.285156 146.148438 210.984375 146.507812 210.804688 146.929688 L 210.804688 147.050781 C 211.046875 147.171875 211.105469 147.414062 211.105469 147.835938 L 211.105469 150.484375 C 211.105469 151.566406 211.105469 152.472656 211.105469 153.3125 C 211.648438 153.3125 212.128906 153.3125 212.671875 153.253906 C 212.972656 153.195312 213.03125 153.074219 213.03125 152.832031 L 213.03125 148.195312 C 213.394531 147.894531 213.816406 147.59375 214.355469 147.59375 C 215.078125 147.59375 215.5 148.136719 215.5 149.039062 L 215.5 150.484375 C 215.5 151.566406 215.5 152.472656 215.5 153.3125 C 216.042969 153.3125 216.523438 153.3125 217.066406 153.253906 C 217.367188 153.253906 217.429688 153.132812 217.429688 152.832031 L 217.429688 148.195312 C 217.730469 147.894531 218.152344 147.59375 218.691406 147.59375 C 219.234375 147.59375 219.835938 148.136719 219.835938 149.039062 L 219.835938 153.074219 C 219.835938 153.253906 219.957031 153.375 220.136719 153.375 C 220.800781 153.375 221.402344 153.253906 221.765625 153.253906 C 221.765625 152.710938 221.765625 151.867188 221.765625 151.027344 L 221.765625 148.917969 Z M 221.703125 148.859375 " fill-opacity="1" fill-rule="nonzero"/><path fill="#ffffff" d="M 229.53125 146.207031 C 227.425781 146.207031 226.21875 148.015625 226.21875 149.882812 C 226.21875 151.75 227.484375 153.433594 229.773438 153.433594 C 232.0625 153.433594 230.976562 153.253906 231.21875 153.132812 C 231.460938 153.011719 232 152.351562 232 151.6875 C 231.761719 151.808594 230.976562 151.988281 230.253906 151.988281 C 229.171875 151.988281 228.207031 151.386719 228.148438 150.0625 C 228.992188 150.0625 230.617188 150.0625 231.039062 150.003906 C 231.699219 149.820312 232.300781 149.640625 232.363281 149.398438 C 232.363281 149.28125 232.363281 149.097656 232.363281 148.859375 C 232.363281 147.59375 231.578125 146.148438 229.59375 146.148438 Z M 230.316406 148.980469 C 229.953125 148.980469 228.75 148.980469 228.085938 148.980469 C 228.148438 147.835938 228.75 147.292969 229.351562 147.292969 C 230.132812 147.292969 230.496094 147.894531 230.496094 148.675781 C 230.496094 148.859375 230.375 148.980469 230.316406 148.980469 Z M 230.316406 148.980469 " fill-opacity="1" fill-rule="nonzero"/><path fill="#ffffff" d="M 239.648438 146.207031 C 237.542969 146.207031 236.335938 148.015625 236.335938 149.882812 C 236.335938 151.75 237.601562 153.433594 239.890625 153.433594 C 242.179688 153.433594 241.09375 153.253906 241.335938 153.132812 C 241.574219 153.011719 242.117188 152.351562 242.117188 151.6875 C 241.878906 151.808594 241.09375 151.988281 240.371094 151.988281 C 239.289062 151.988281 238.324219 151.386719 238.265625 150.0625 C 239.105469 150.0625 240.734375 150.0625 241.15625 150.003906 C 241.816406 149.820312 242.417969 149.640625 242.480469 149.398438 C 242.480469 149.28125 242.480469 149.097656 242.480469 148.859375 C 242.480469 147.59375 241.695312 146.148438 239.710938 146.148438 Z M 240.433594 148.980469 C 240.070312 148.980469 238.867188 148.980469 238.203125 148.980469 C 238.265625 147.835938 238.867188 147.292969 239.46875 147.292969 C 240.25 147.292969 240.613281 147.894531 240.613281 148.675781 C 240.613281 148.859375 240.492188 148.980469 240.433594 148.980469 Z M 240.433594 148.980469 " fill-opacity="1" fill-rule="nonzero"/><path fill="#ffffff" d="M 250.488281 146.207031 C 249.644531 146.207031 248.984375 146.75 248.5625 147.835938 C 248.5625 146.871094 248.261719 146.207031 247.597656 146.207031 C 246.933594 146.207031 246.574219 146.691406 246.453125 146.992188 C 246.695312 147.230469 246.816406 147.472656 246.816406 147.835938 L 246.816406 150.484375 C 246.816406 151.566406 246.816406 152.472656 246.816406 153.3125 C 247.355469 153.3125 247.839844 153.3125 248.378906 153.253906 C 248.683594 153.195312 248.742188 153.074219 248.742188 152.832031 L 248.742188 149.582031 C 248.742188 149.21875 248.742188 149.039062 248.863281 148.796875 C 249.101562 148.136719 249.585938 147.953125 249.824219 147.953125 C 250.066406 147.953125 250.246094 147.953125 250.546875 148.136719 C 250.789062 148.136719 251.089844 147.714844 251.152344 147.414062 C 251.332031 147.113281 251.332031 146.691406 251.269531 146.507812 C 251.152344 146.390625 250.851562 146.269531 250.546875 146.269531 Z M 250.488281 146.207031 " fill-opacity="1" fill-rule="nonzero"/><path fill="#ffffff" d="M 261.507812 151.507812 L 261.507812 143.679688 C 261.507812 142.714844 261.449219 142.65625 261.207031 142.65625 C 260.964844 142.65625 259.882812 142.835938 259.519531 142.957031 C 259.519531 143.257812 259.582031 143.679688 259.582031 144.582031 L 259.582031 146.390625 C 259.460938 146.328125 259.039062 146.207031 258.617188 146.207031 C 256.390625 146.207031 254.703125 147.773438 254.703125 150.0625 C 254.703125 152.351562 255.96875 153.433594 257.773438 153.433594 C 259.582031 153.433594 259.21875 153.074219 259.761719 152.589844 C 259.941406 153.074219 260.242188 153.433594 261.148438 153.433594 C 262.050781 153.433594 262.050781 152.832031 262.109375 152.410156 C 261.6875 152.289062 261.449219 152.109375 261.449219 151.507812 Z M 259.582031 151.75 C 259.339844 151.929688 258.917969 152.050781 258.617188 152.050781 C 257.59375 152.050781 256.691406 151.265625 256.691406 149.820312 C 256.691406 148.375 257.773438 147.414062 258.679688 147.414062 C 259.582031 147.414062 259.402344 147.535156 259.582031 147.59375 L 259.582031 151.808594 Z M 259.582031 151.75 " fill-opacity="1" fill-rule="nonzero"/><path fill="#ffffff" d="M 269.457031 146.207031 C 267.347656 146.207031 266.144531 148.015625 266.144531 149.882812 C 266.144531 151.75 267.410156 153.433594 269.699219 153.433594 C 271.984375 153.433594 270.902344 153.253906 271.144531 153.132812 C 271.382812 153.011719 271.925781 152.351562 271.925781 151.6875 C 271.683594 151.808594 270.902344 151.988281 270.179688 151.988281 C 269.097656 151.988281 268.132812 151.386719 268.011719 150.0625 C 268.855469 150.0625 270.480469 150.0625 270.902344 150.003906 C 271.566406 149.820312 272.167969 149.640625 272.226562 149.398438 C 272.226562 149.28125 272.226562 149.097656 272.226562 148.859375 C 272.226562 147.59375 271.445312 146.148438 269.457031 146.148438 Z M 270.238281 148.980469 C 269.878906 148.980469 268.675781 148.980469 268.011719 148.980469 C 268.070312 147.835938 268.675781 147.292969 269.277344 147.292969 C 270.058594 147.292969 270.421875 147.894531 270.421875 148.675781 C 270.421875 148.859375 270.300781 148.980469 270.238281 148.980469 Z M 270.238281 148.980469 " fill-opacity="1" fill-rule="nonzero"/><path fill="#ffffff" d="M 289.089844 146.75 C 289.089844 146.628906 289.089844 146.449219 289.027344 146.390625 C 288.789062 146.449219 288.304688 146.570312 287.824219 146.570312 C 287.34375 146.570312 287.039062 146.449219 286.679688 146.390625 C 286.316406 146.269531 285.777344 146.207031 285.414062 146.207031 C 283.789062 146.207031 282.523438 147.230469 282.523438 148.675781 C 282.523438 150.121094 283.1875 150.421875 283.910156 150.726562 C 283.609375 151.027344 283.125 151.328125 282.824219 151.507812 C 282.707031 151.566406 282.707031 151.628906 282.707031 151.6875 C 282.707031 152.351562 283.1875 152.832031 283.667969 153.011719 C 282.945312 153.3125 282.222656 153.796875 282.222656 154.457031 C 282.222656 155.601562 283.429688 156.503906 285.292969 156.503906 C 287.160156 156.503906 289.089844 155.421875 289.089844 153.617188 C 289.089844 151.808594 288.546875 151.867188 287.101562 151.808594 C 286.5 151.808594 285.898438 151.75 285.234375 151.6875 C 284.691406 151.6875 284.511719 151.449219 284.511719 151.265625 C 284.511719 151.085938 284.632812 151.027344 284.753906 150.90625 C 284.875 150.90625 285.054688 150.964844 285.292969 150.964844 C 286.800781 150.964844 288.003906 150.183594 288.003906 148.617188 C 288.003906 147.050781 287.945312 148.015625 287.824219 147.714844 C 288.003906 147.714844 288.183594 147.714844 288.246094 147.714844 C 288.789062 147.652344 289.027344 147.351562 289.027344 146.8125 Z M 284.875 153.3125 C 285.292969 153.3125 285.835938 153.3125 286.316406 153.433594 C 287.160156 153.554688 287.402344 153.917969 287.402344 154.339844 C 287.402344 155 286.621094 155.421875 285.65625 155.421875 C 284.691406 155.421875 283.789062 155 283.789062 154.339844 C 283.789062 153.976562 284.03125 153.675781 284.269531 153.554688 C 284.390625 153.496094 284.632812 153.433594 284.8125 153.433594 Z M 285.355469 150.003906 C 284.691406 150.003906 284.210938 149.460938 284.210938 148.617188 C 284.210938 147.773438 284.570312 147.230469 285.234375 147.230469 C 286.078125 147.230469 286.316406 147.953125 286.316406 148.675781 C 286.316406 149.398438 285.898438 150.0625 285.292969 150.0625 Z M 285.355469 150.003906 " fill-opacity="1" fill-rule="nonzero"/><path fill="#ffffff" d="M 296.855469 146.207031 C 296.011719 146.207031 295.351562 146.75 294.929688 147.835938 C 294.929688 146.871094 294.628906 146.207031 293.964844 146.207031 C 293.304688 146.207031 292.941406 146.691406 292.820312 146.992188 C 293.0625 147.230469 293.183594 147.472656 293.183594 147.835938 L 293.183594 150.484375 C 293.183594 151.566406 293.183594 152.472656 293.183594 153.3125 C 293.726562 153.3125 294.207031 153.3125 294.75 153.253906 C 295.050781 153.195312 295.109375 153.074219 295.109375 152.832031 L 295.109375 149.582031 C 295.109375 149.21875 295.109375 149.039062 295.230469 148.796875 C 295.472656 148.136719 295.953125 147.953125 296.195312 147.953125 C 296.433594 147.953125 296.617188 147.953125 296.917969 148.136719 C 297.15625 148.136719 297.457031 147.714844 297.519531 147.414062 C 297.699219 147.113281 297.699219 146.691406 297.640625 146.507812 C 297.519531 146.390625 297.21875 146.269531 296.917969 146.269531 Z M 296.855469 146.207031 " fill-opacity="1" fill-rule="nonzero"/><path fill="#ffffff" d="M 304.625 146.207031 C 302.515625 146.207031 301.011719 147.773438 301.011719 149.882812 C 301.011719 151.988281 302.457031 153.433594 304.445312 153.433594 C 306.429688 153.433594 308.058594 151.929688 308.058594 149.703125 C 308.058594 147.472656 306.851562 146.148438 304.625 146.148438 Z M 304.625 152.289062 C 303.722656 152.289062 303 151.449219 303 149.703125 C 303 147.953125 303.539062 147.351562 304.445312 147.351562 C 305.589844 147.351562 306.070312 148.558594 306.070312 149.882812 C 306.070312 151.207031 305.589844 152.289062 304.625 152.289062 Z M 304.625 152.289062 " fill-opacity="1" fill-rule="nonzero"/><path fill="#ffffff" d="M 318.957031 149.039062 C 318.957031 147.835938 318.59375 146.207031 316.609375 146.207031 C 314.621094 146.207031 315.101562 146.691406 314.441406 147.230469 C 314.320312 146.75 314.140625 146.207031 313.535156 146.207031 C 312.933594 146.207031 312.511719 146.628906 312.394531 146.992188 L 312.394531 147.113281 C 312.632812 147.230469 312.695312 147.472656 312.695312 147.953125 L 312.695312 150.484375 C 312.695312 151.566406 312.695312 152.472656 312.695312 153.3125 C 313.234375 153.3125 313.71875 153.3125 314.257812 153.195312 C 314.5625 153.195312 314.621094 153.074219 314.621094 152.832031 L 314.621094 148.195312 C 314.980469 147.894531 315.34375 147.59375 315.945312 147.59375 C 316.546875 147.59375 317.089844 148.136719 317.089844 149.039062 L 317.089844 153.074219 C 317.089844 153.253906 317.148438 153.375 317.390625 153.375 C 318.054688 153.375 318.65625 153.253906 319.015625 153.253906 C 319.015625 152.710938 318.957031 151.867188 318.957031 151.027344 Z M 318.957031 149.039062 " fill-opacity="1" fill-rule="nonzero"/><path fill="#ffffff" d="M 330.15625 151.507812 L 330.15625 143.679688 C 330.15625 142.714844 330.097656 142.65625 329.855469 142.65625 C 329.617188 142.65625 328.53125 142.835938 328.171875 142.957031 C 328.171875 143.257812 328.230469 143.679688 328.230469 144.582031 L 328.230469 146.390625 C 328.109375 146.328125 327.6875 146.207031 327.265625 146.207031 C 325.039062 146.207031 323.351562 147.773438 323.351562 150.0625 C 323.351562 152.351562 324.617188 153.433594 326.421875 153.433594 C 328.230469 153.433594 327.867188 153.074219 328.410156 152.589844 C 328.589844 153.074219 328.894531 153.433594 329.796875 153.433594 C 330.699219 153.433594 330.699219 152.832031 330.757812 152.410156 C 330.335938 152.289062 330.097656 152.109375 330.097656 151.507812 Z M 328.289062 151.75 C 328.050781 151.929688 327.628906 152.050781 327.328125 152.050781 C 326.304688 152.050781 325.398438 151.265625 325.398438 149.820312 C 325.398438 148.375 326.484375 147.414062 327.386719 147.414062 C 328.289062 147.414062 328.109375 147.535156 328.289062 147.59375 L 328.289062 151.808594 Z M 328.289062 151.75 " fill-opacity="1" fill-rule="nonzero"/><path fill="#ffffff" d="M 338.46875 149.398438 C 338.105469 149.21875 337.503906 148.917969 337.203125 148.738281 C 336.902344 148.558594 336.601562 148.375 336.601562 148.015625 C 336.601562 147.652344 336.902344 147.414062 337.382812 147.414062 C 337.863281 147.414062 338.167969 147.535156 338.46875 147.652344 C 339.007812 147.652344 339.191406 147.113281 339.191406 146.691406 C 338.648438 146.328125 338.046875 146.148438 337.445312 146.148438 C 336.117188 146.148438 334.914062 146.929688 334.914062 148.316406 C 334.914062 149.703125 335.394531 149.761719 336 150.121094 C 336.359375 150.363281 336.78125 150.542969 337.203125 150.726562 C 337.683594 150.964844 337.804688 151.144531 337.804688 151.449219 C 337.804688 151.75 337.503906 152.109375 336.902344 152.109375 C 336.300781 152.109375 335.578125 151.808594 335.15625 151.566406 C 334.914062 151.75 334.792969 152.109375 334.734375 152.410156 C 334.734375 152.652344 334.855469 152.832031 335.09375 152.953125 C 335.515625 153.195312 336.179688 153.375 336.78125 153.375 C 338.226562 153.375 339.550781 152.652344 339.550781 151.085938 C 339.550781 149.519531 339.25 149.820312 338.46875 149.398438 Z M 338.46875 149.398438 " fill-opacity="1" fill-rule="nonzero"/><path fill="#ffffff" d="M 345.753906 143.679688 C 345.753906 142.714844 345.695312 142.65625 345.453125 142.65625 C 345.210938 142.65625 344.128906 142.777344 343.828125 142.957031 C 343.828125 143.257812 343.886719 143.679688 343.886719 144.582031 L 343.886719 153.132812 C 343.886719 153.3125 343.945312 153.3125 344.128906 153.3125 C 344.367188 153.3125 345.511719 153.3125 345.875 153.195312 C 345.875 152.710938 345.8125 151.867188 345.8125 151.144531 L 345.8125 143.621094 Z M 345.753906 143.679688 " fill-opacity="1" fill-rule="nonzero"/><path fill="#ffffff" d="M 355.75 151.6875 C 355.75 150.664062 355.808594 149.460938 355.808594 148.859375 C 355.808594 147.171875 354.667969 146.207031 353.28125 146.207031 C 351.894531 146.207031 351.113281 146.75 350.449219 147.230469 C 350.449219 147.714844 350.691406 148.257812 351.355469 148.074219 C 351.714844 147.894531 352.257812 147.59375 352.800781 147.59375 C 353.339844 147.59375 354.003906 148.136719 354.003906 148.796875 L 354.003906 149.039062 C 353.824219 149.039062 353.460938 149.160156 353.222656 149.21875 C 352.136719 149.460938 350.269531 149.882812 350.269531 151.507812 C 350.269531 153.132812 351.171875 153.433594 352.195312 153.433594 C 353.222656 153.433594 353.640625 153.011719 354.0625 152.53125 C 354.246094 153.074219 354.667969 153.433594 355.328125 153.433594 C 355.992188 153.433594 356.652344 152.953125 356.652344 152.109375 C 356.59375 152.109375 356.472656 152.109375 356.414062 152.109375 C 356.050781 152.109375 355.871094 151.867188 355.871094 151.6875 Z M 354.003906 151.144531 C 354.003906 151.449219 354.003906 151.566406 353.882812 151.6875 C 353.640625 151.929688 353.402344 152.109375 352.980469 152.109375 C 352.558594 152.109375 352.078125 151.808594 352.078125 151.265625 C 352.078125 150.726562 352.679688 150.242188 354.003906 150.0625 Z M 354.003906 151.144531 " fill-opacity="1" fill-rule="nonzero"/><path fill="#ffffff" d="M 365.144531 151.867188 C 364.542969 151.867188 363.941406 151.808594 363.277344 151.75 C 362.734375 151.75 362.554688 151.507812 362.554688 151.328125 C 362.554688 151.144531 362.675781 151.085938 362.796875 150.964844 C 362.917969 150.964844 363.097656 151.027344 363.335938 151.027344 C 364.84375 151.027344 366.046875 150.242188 366.046875 148.675781 C 366.046875 147.113281 365.988281 148.074219 365.867188 147.773438 C 366.046875 147.773438 366.226562 147.773438 366.289062 147.773438 C 366.832031 147.714844 367.070312 147.414062 367.070312 146.871094 C 367.070312 146.328125 367.070312 146.570312 367.011719 146.507812 C 366.769531 146.570312 366.289062 146.691406 365.804688 146.691406 C 365.324219 146.691406 365.023438 146.570312 364.664062 146.507812 C 364.300781 146.390625 363.757812 146.328125 363.398438 146.328125 C 361.773438 146.328125 360.507812 147.351562 360.507812 148.796875 C 360.507812 150.242188 361.167969 150.542969 361.890625 150.84375 C 361.589844 151.144531 361.109375 151.449219 360.808594 151.628906 C 360.6875 151.6875 360.6875 151.75 360.6875 151.808594 C 360.6875 152.472656 361.167969 152.953125 361.652344 153.132812 C 360.929688 153.433594 360.207031 153.917969 360.207031 154.578125 C 360.207031 155.722656 361.410156 156.625 363.277344 156.625 C 365.144531 156.625 367.070312 155.542969 367.070312 153.734375 C 367.070312 151.929688 366.527344 151.988281 365.082031 151.929688 Z M 363.335938 147.171875 C 364.179688 147.171875 364.421875 147.894531 364.421875 148.617188 C 364.421875 149.339844 364 150.003906 363.398438 150.003906 C 362.796875 150.003906 362.253906 149.460938 362.253906 148.617188 C 362.253906 147.773438 362.613281 147.230469 363.277344 147.230469 Z M 363.757812 155.363281 C 362.734375 155.363281 361.890625 154.941406 361.890625 154.277344 C 361.890625 153.917969 362.132812 153.617188 362.375 153.496094 C 362.496094 153.433594 362.734375 153.375 362.917969 153.375 C 363.335938 153.375 363.878906 153.375 364.359375 153.496094 C 365.203125 153.617188 365.445312 153.976562 365.445312 154.398438 C 365.445312 155.0625 364.664062 155.480469 363.699219 155.480469 Z M 363.757812 155.363281 " fill-opacity="1" fill-rule="nonzero"/></svg>