<svg xmlns="http://www.w3.org/2000/svg" version="1.1" viewBox="0 0 620.8 264.5">
<defs>
</defs>
<g>
<g>
<path class="st1" d="M23.2,155.6c-4.6,0-9.9.8-11.2,1.1,0,1.2.1,2.2.1,5.8v25.4c3.5.6,6.8.9,10.7.9,10.6,0,18.7-6.1,18.7-17.2s-2.9-16-18.2-16ZM23,184.2c-1.2,0-2.3,0-3.5-.3v-23.6c.6-.1,1.4-.2,2.9-.2,6.8,0,11.1,3.8,11.1,11.5s-6.7,12.6-10.5,12.6Z" fill="#e30613"></path>
<path class="st1" d="M57.8,175.2c-1-.5-3.2-1.5-4.1-2-1-.6-1.8-1.1-1.8-2s.9-1.6,2.3-1.6,2.4.3,3.5.8c2,.2,2.7-2.2,2.6-3.7-1.9-1.3-3.8-1.8-6-1.8h0c-4.7,0-8.8,2.7-8.8,7.6s1.6,4.8,3.6,6c1.4.7,2.7,1.4,4,2.1,1.3.7,1.8,1.3,1.8,2.1s-.9,1.7-2.5,1.7-4.4-1-5.9-1.9c-.8.7-1.5,2.1-1.5,3.4s.6,1.5,1.4,2c1.5.9,3.7,1.3,5.5,1.3,5.1,0,9.7-2.6,9.7-7.8s-1-4.4-3.7-5.9Z" fill="#e30613"></path>
<rect class="st1" x="66.5" y="181.2" width="7.1" height="7.1" fill="#e30613"></rect>
<path class="st1" d="M97.9,153.3c-1.2,0-4.8.3-6.4.4.1.9.2,3.1.2,6.5v13.6c0,8.9-5.1,8-9.3,8.7.3,1.8,2.2,5.7,3.9,5.7s8-.9,9.7-2.6c2.2-2.4,3.1-5.1,3.1-11.9v-17.7c0-2.2-.2-2.8-1.2-2.8Z" fill="#e30613"></path>
<path class="st1" d="M116.6,164.8h0c-7,0-12.1,5.1-12.1,12.3s5.3,11.9,11.6,11.9,12.2-5,12.2-12.4-3.9-11.7-11.6-11.7ZM116.6,184.6c-2.5,0-4.7-2.6-4.7-8.3s1.1-7.2,4.1-7.2h0c3.4,0,4.7,3.9,4.7,8.1s-.8,7.5-4.1,7.5Z" fill="#e30613"></path>
<path class="st1" d="M154.6,173.8c0-5.8-3-9.1-7.4-9.1s-4.9,1.2-7,2.8v-11c0-3.2-.2-3.4-1.1-3.4s-5.3.7-6.3,1.1c.1,1.1.2,2.3.2,5.5v19.6c0,3,0,6.1-.2,9.3,2.3,0,4,0,6.1-.3,1.2-.2,1.3-.5,1.3-1.5v-15.4c1.2-.8,2.4-1.2,3.7-1.2,2.2,0,3.5,1.8,3.5,4v13.3c0,.9.4,1.2,1.2,1.2,2.6,0,5-.3,6.2-.4-.1-2-.2-5.1-.2-7.5v-6.8Z" fill="#e30613"></path>
<rect class="st1" x="161.5" y="181.2" width="7.1" height="7.1" fill="#e30613"></rect>
<path class="st1" d="M203.2,160.3c2.7,0,5.3.6,7.5,1.6,1.9.3,3.5-1.3,3.5-3.7-1.4-1.3-5.3-3.1-10.9-3.1-10.2,0-18.5,6.5-18.5,17.2s9.4,16.7,17.9,16.7,5.2-.5,7.1-1.1c1.5-.7,3.2-1.9,4.4-2.8v-11.6c0-1.1-.4-1.4-1.2-1.4-1.6,0-4.4.5-6.4.8,0,1.2.2,2.2.2,4v7.2c-.5.2-1.6.4-2.8.4-5.6,0-11.2-4.1-11.2-12.6s4.7-11.6,10.6-11.6Z" fill="#e30613"></path>
<path class="st1" d="M233.5,164.8c-2.9,0-5,1.9-6.5,5.4,0-3.1-1-5.4-3.6-5.4s-3.8,1.7-4.3,3.1v.2c.9.5,1.2,1.4,1.2,2.4v8.8c0,3,0,6.2-.2,9.4,2.3,0,4,0,6.1-.3,1.2-.2,1.3-.6,1.3-1.5v-10.5c0-1.1.1-1.7.4-2.4.7-2,2.1-2.4,2.8-2.4s1.6.1,2.7.6c.8-.1,2-1.6,2.2-2.8.6-1.1.7-2.8.4-3.5-.5-.4-1.6-.9-2.5-.9Z" fill="#e30613"></path>
<path class="st1" d="M249.7,164.8h0c-7,0-12.1,5.1-12.1,12.3s5.3,11.9,11.6,11.9,12.2-5,12.2-12.4-3.9-11.7-11.6-11.7ZM249.7,184.6c-2.5,0-4.7-2.6-4.7-8.3s1.1-7.2,4.1-7.2h0c3.4,0,4.7,3.9,4.7,8.1s-.8,7.5-4.1,7.5Z" fill="#e30613"></path>
<path class="st1" d="M276.2,164.8c-7.1,0-11.2,6.2-11.2,12.3s4.2,11.9,12,11.9,3.9-.5,4.7-.8c.9-.4,3.1-2.8,3.1-5.4v-.2c-1,.4-3.4,1.1-5.9,1.1s-6.3-1.3-6.7-5.6c2.3.1,7.9,0,9.1-.3,2.3-.6,4.1-1.4,4.2-2.1.1-.4.2-.9.2-1.7,0-4.3-2.5-9.2-9.4-9.2ZM278.4,174.1c-1.3.1-5,.2-6.3,0,0-3.7,1.9-5.3,3.6-5.3h0c2.3,0,3.2,1.9,3.2,4.2s-.2,1.1-.5,1.1Z" fill="#e30613"></path>
<path class="st1" d="M311.7,174.3c0-3.7-.9-9.6-7.8-9.6s-4.8,1.5-7,3.3c-.4-1.7-1.2-3.3-3.4-3.3s-3.8,1.6-4.4,3.1v.4c.8.5,1,1.2,1,2.6v8.4c0,3,0,6.2-.2,9.3,2.2,0,4,0,6.1-.4,1.2-.2,1.3-.4,1.3-1.3v-15.5c1.1-.8,2-1.3,3.8-1.3s3.5,1.6,3.5,4.1v13.3c0,.8.4,1.1,1.2,1.1,2.6,0,5-.3,6.2-.4-.1-2-.2-5.1-.2-7.7v-6.1Z" fill="#e30613"></path>
<path class="st1" d="M327.6,164.8c-7.1,0-11.2,6.2-11.2,12.3s4.2,11.9,12,11.9,3.9-.5,4.7-.8c.9-.4,3.1-2.8,3.1-5.4v-.2c-1,.4-3.4,1.1-5.9,1.1s-6.3-1.3-6.7-5.6c2.3.1,7.9,0,9.1-.3,2.3-.6,4.1-1.4,4.2-2.1.1-.4.2-.9.2-1.7,0-4.3-2.5-9.2-9.4-9.2ZM329.8,174.1c-1.3.1-5,.2-6.3,0,0-3.7,1.9-5.3,3.6-5.3h0c2.3,0,3.2,1.9,3.2,4.2s-.2,1.1-.5,1.1Z" fill="#e30613"></path>
<path class="st1" d="M372.5,165.4c-1.4-.5-3.3-.6-4.9-.6-1.2,5-3.4,12.5-4.3,15.7-.9-3.8-2.6-9.9-3.5-13.6-.3-1-.4-1.6-1.3-1.6s-4.3.7-5.3,1c.1.5.3,1.1.3,1.6-.7,2.7-1.2,4.4-3.7,12.7-1.7-7.4-2.5-11-3.4-14.6-.3-1-.6-1.4-1.3-1.4h0c-1.8,0-5.3,1-6.5,1.3.8,2,1.5,3.9,2.4,6.9,2,6,3.5,11.1,4.9,15.9,1.4,0,3.3-.2,4.8-.5.9-.2,1.2-.6,1.6-1.8,1.7-5.2,2.6-8,3.7-11.6,1.3,5.4,2.6,9.6,3.7,13.9,1.7,0,3.6-.2,5-.5,1.1-.3,1.3-.7,1.7-1.7,2.2-6.2,4.5-12.4,6.5-18.7.6-1.7.4-2.4-.4-2.7Z" fill="#e30613"></path>
<path class="st1" d="M386.4,164.8c-7.1,0-11.2,6.2-11.2,12.3s4.2,11.9,12,11.9,3.9-.5,4.7-.8c.9-.4,3.1-2.8,3.1-5.4v-.2c-1,.4-3.4,1.1-5.9,1.1s-6.3-1.3-6.7-5.6c2.3.1,7.9,0,9.1-.3,2.3-.6,4.1-1.4,4.2-2.1.1-.4.2-.9.2-1.7,0-4.3-2.5-9.2-9.4-9.2ZM388.6,174.1c-1.3.1-5,.2-6.3,0,0-3.7,1.9-5.3,3.6-5.3h0c2.3,0,3.2,1.9,3.2,4.2s-.2,1.1-.5,1.1Z" fill="#e30613"></path>
<path class="st1" d="M421.7,166.9c0-.6-.2-1.1-.3-1.5-.8.3-2.5.6-4.2.6s-2.6-.4-3.8-.7c-1.4-.3-3.2-.6-4.4-.6h0c-5.6,0-9.9,3.2-9.9,8.3s2.5,5.9,4.7,6.7c-1,1.1-2.7,2.2-3.7,2.7-.4.3-.5.5-.5.7,0,2.5,1.8,4,3.2,4.6-2.2,1-4.7,2.4-4.7,4.6,0,4,4.4,6.8,10.5,6.8s13-3.5,13-9.8-1.8-5.9-6.9-6.2c-2.1-.1-4.1-.3-6-.4-1.6-.2-2-.7-2-1.4s.4-.8.6-1c.3,0,1,.2,1.7.2,5.2,0,9.4-2.6,9.4-7.8s-.2-1.7-.5-2.6c.6,0,1,0,1.4-.1,1.8-.2,2.6-1.3,2.6-3.3ZM407.1,188.9c1.3,0,3.2,0,4.8.3,2.7.4,3.5,1.4,3.5,2.6,0,2-2.4,2.9-5.2,2.9s-5.9-1.3-5.9-3.3h0c0-1.1.4-1.8,1.1-2.1.5-.3,1.1-.4,1.7-.4ZM409,176.9c-2,0-3.3-1.6-3.3-4.4s1-4.1,3-4.1h0c2.6,0,3.3,2.3,3.3,4.4s-1.3,4.1-3,4.1Z" fill="#e30613"></path>
<path class="st1" d="M434.1,164.8c-7.1,0-11.2,6.2-11.2,12.3s4.2,11.9,12,11.9,3.9-.5,4.7-.8c.9-.4,3.1-2.8,3.1-5.4v-.2c-1,.4-3.4,1.1-5.9,1.1s-6.3-1.3-6.7-5.6c2.3.1,7.9,0,9.1-.3,2.3-.6,4.1-1.4,4.2-2.1.1-.4.2-.9.2-1.7,0-4.3-2.5-9.2-9.4-9.2ZM436.3,174.1c-1.3.1-5,.2-6.3,0,0-3.7,1.9-5.3,3.6-5.3h0c2.3,0,3.2,1.9,3.2,4.2s-.2,1.1-.5,1.1Z" fill="#e30613"></path>
<path class="st1" d="M469.6,174.3c0-3.7-.9-9.6-7.8-9.6s-4.8,1.5-7,3.3c-.4-1.7-1.2-3.3-3.4-3.3s-3.8,1.6-4.4,3.1v.4c.8.5,1,1.2,1,2.6v8.4c0,3,0,6.2-.2,9.3,2.2,0,4,0,6.1-.4,1.2-.2,1.3-.4,1.3-1.3v-15.5c1.1-.8,2-1.3,3.8-1.3s3.5,1.6,3.5,4.1v13.3c0,.8.4,1.1,1.2,1.1,2.6,0,5-.3,6.2-.4-.1-2-.2-5.1-.2-7.7v-6.1Z" fill="#e30613"></path>
<path class="st1" d="M487,175.2c-1-.5-3.2-1.5-4.1-2-1-.6-1.8-1.1-1.8-2s.9-1.6,2.3-1.6,2.4.3,3.5.8c2,.2,2.7-2.2,2.6-3.7-1.9-1.3-3.8-1.8-6-1.8h0c-4.7,0-8.8,2.7-8.8,7.6s1.6,4.8,3.6,6c1.4.7,2.7,1.4,4,2.1,1.3.7,1.8,1.3,1.8,2.1s-.9,1.7-2.5,1.7-4.4-1-5.9-1.9c-.8.7-1.5,2.1-1.5,3.4s.6,1.5,1.4,2c1.5.9,3.7,1.3,5.5,1.3,5.1,0,9.7-2.6,9.7-7.8s-1-4.4-3.7-5.9Z" fill="#e30613"></path>
<path class="st1" d="M507.4,169.7c1.2,0,2.8.3,3.9.7,2,0,2.7-2.2,2.7-3.6-1-1-3.5-2-7-2-7.4,0-13,5.1-13,12.7s4.6,11.4,12.1,11.4,4.4-.4,6-1.4c1.1-1,1.9-3,1.9-4.7v-.2c-1.5.5-3.3.9-5.7.9-3.6,0-6.9-2.2-6.9-7.2s2.7-6.7,6.1-6.7Z" fill="#e30613"></path>
<path class="st1" d="M539.5,173.8c0-5.8-3-9.1-7.4-9.1s-4.9,1.2-7,2.8v-11c0-3.2-.2-3.4-1.1-3.4s-5.3.7-6.3,1.1c.1,1.1.2,2.3.2,5.5v19.6c0,3,0,6.1-.2,9.3,2.3,0,4,0,6.1-.3,1.2-.2,1.3-.5,1.3-1.5v-15.4c1.2-.8,2.4-1.2,3.7-1.2,2.2,0,3.5,1.8,3.5,4v13.3c0,.9.4,1.2,1.2,1.2,2.6,0,5-.3,6.2-.4-.1-2-.2-5.1-.2-7.5v-6.8Z" fill="#e30613"></path>
<path class="st1" d="M556.2,164.8h0c-7,0-12.1,5.1-12.1,12.3s5.3,11.9,11.6,11.9,12.2-5,12.2-12.4-3.9-11.7-11.6-11.7ZM556.2,184.6c-2.5,0-4.7-2.6-4.7-8.3s1.1-7.2,4.1-7.2h0c3.4,0,4.7,3.9,4.7,8.1s-.8,7.5-4.1,7.5Z" fill="#e30613"></path>
<path class="st1" d="M583.6,164.8h0c-7,0-12.1,5.1-12.1,12.3s5.3,11.9,11.6,11.9,12.2-5,12.2-12.4-3.9-11.7-11.6-11.7ZM583.6,184.6c-2.5,0-4.7-2.6-4.7-8.3s1.1-7.2,4.1-7.2h0c3.4,0,4.7,3.9,4.7,8.1s-.8,7.5-4.1,7.5Z" fill="#e30613"></path>
<path class="st1" d="M607.2,181.5v-24.9c0-3.1-.2-3.4-1.1-3.4s-5.2.6-6.3,1.1c.1,1,.2,2.3.2,5.3v28.4c0,.5.2.7.7.7.8,0,5.5-.2,6.7-.4-.1-1.5-.2-4.3-.2-6.8Z" fill="#e30613"></path>
</g>
<g>
<polygon class="st1" points="196.3 6.9 191.6 15.1 228.7 36.7 228.7 77.9 194.3 98.3 163.5 80 158.7 88.3 194.3 109.4 238.2 83.3 238.2 31.3 196.3 6.9"  fill="#e30613"></polygon>
<polygon class="st1" points="289 5.1 245.1 31.3 245.1 83.3 289 109.4 332.9 83.3 332.9 67.5 323.4 67.5 323.4 77.9 289 98.3 254.6 77.9 254.6 36.7 289 16.2 327.2 39 331.9 30.7 289.3 5.3 289 5.1" fill="#e30613"></polygon>
<path class="st0" d="M203,80.3c0,5.2-4.2,9.4-9.4,9.4s-9.4-4.2-9.4-9.4,4.2-9.4,9.4-9.4,9.4,4.2,9.4,9.4" fill="#2f4e9d"></path>
<path class="st0" d="M299.4,35.6c0,5.2-4.2,9.4-9.4,9.4s-9.4-4.2-9.4-9.4,4.2-9.4,9.4-9.4,9.4,4.2,9.4,9.4" fill="#2f4e9d"></path>
<path class="st0" d="M280.2,117.6c-12.2,0-24,4.1-33.5,11.4-9.6-7.3-21.4-11.4-33.6-11.4s-27.3,5.3-37.6,14.8l6.4,6.9c8.5-7.9,19.5-12.3,31.1-12.3s20.6,3.6,28.7,10.2l4.7,4.3c0,0,.1.1.2.2h0s0,0,0,0c.2-.2.3-.3.5-.5l4-3.7c8.1-6.7,18.4-10.4,29-10.4s22.7,4.4,31.2,12.3l6.4-6.9c-10.2-9.5-23.6-14.8-37.6-14.8Z"  fill="#2f4e9d"></path>
</g>
</g>
<g class="logo-scroll">
<path class="st0" d="M190.4,228.3c.5,0,1.4-.1,2-.3.4-.1.6-.3.8-.7,1.1-2.7,2.6-6.2,3.7-8.9.4-.9.5-1.5,0-1.7-.6-.3-1.2-.4-2-.4-.6,2.1-1.8,5.3-2.9,8.3-.9-3.1-1.9-6-2.5-7.7-.1-.4-.3-.6-.7-.6h0c-.7,0-2.1.3-2.7.6.4.9.8,2,1.3,3.3,1.2,3.1,2.1,5.5,3,8Z" fill="#2f4e9d"></path>
<path class="st0" d="M215,222.1c0-3.2-2-5.9-5.7-5.9h0c-3.5,0-6,2.6-6,6.1s2.4,5.9,5.7,5.9,6-2.5,6-6.2ZM206.5,222c0-2.2.9-3.9,2.4-3.9h0c1.9,0,2.7,2,2.7,4.2s-.8,4-2.4,4-2.7-1.4-2.7-4.3Z" fill="#2f4e9d"></path>
<path class="st0" d="M227.9,216.3h0c-3.5,0-6,2.6-6,6.1s2.4,5.9,5.7,5.9,6-2.5,6-6.2-2-5.9-5.7-5.9ZM227.9,226.4c-1.5,0-2.7-1.4-2.7-4.3s.9-3.9,2.4-3.9h0c1.9,0,2.7,2,2.7,4.2s-.8,4-2.4,4Z" fill="#2f4e9d"></path>
<path class="st0" d="M241.1,219v4.4c0,1.8,0,3.3,0,4.7.9,0,1.7,0,2.6-.1.5-.1.6-.3.6-.7v-5.4c0-.6,0-.9.2-1.3.4-1.1,1.2-1.4,1.6-1.4s.7,0,1.2.3c.4,0,.9-.7,1-1.2.3-.5.3-1.2.2-1.5-.2-.2-.7-.4-1.2-.4-1.4,0-2.5.9-3.2,2.7,0-1.6-.5-2.7-1.6-2.7s-1.7.8-1.9,1.3h0c.4.4.6.8.6,1.4Z" fill="#2f4e9d"></path>
<path class="st0" d="M276.9,221.7c0-3.1-1.8-5.5-5-5.5s-2.3.6-3,1v-5.1c0-1.6-.1-1.7-.5-1.7s-2.1.3-2.7.5c0,.5.1,1.3.1,2.8v13.2c0,.4.2.6.6.8.8.3,2,.6,3.4.6,3.9,0,7-2.5,7-6.6ZM270.2,226.4c-.4,0-.9,0-1.2-.2v-7.3c.4-.2,1.1-.4,1.5-.4,2,0,3.2,1.5,3.2,3.6,0,3-1.9,4.2-3.5,4.2Z" fill="#2f4e9d"></path>
<path class="st0" d="M291.9,228.3c1.5,0,2.2-.8,2.2-2.2h0c-.1,0-.3,0-.4,0-.6,0-.9-.4-.9-.7,0-1.7.1-3.7.1-4.7,0-2.8-1.9-4.4-4.2-4.4s-3.6.9-4.7,1.7c0,.8.4,1.7,1.5,1.4.6-.3,1.5-.8,2.4-.8s2,.9,2,2v.4c-.3,0-.9.2-1.3.3-1.8.4-4.9,1.1-4.9,3.8s1.5,3.2,3.2,3.2,2.4-.7,3.1-1.5c.3.9,1,1.5,2.1,1.5ZM289.7,224.5c0,.5,0,.7-.2.9-.4.4-.8.7-1.5.7s-1.5-.5-1.5-1.4h0c0-.9,1-1.7,3.2-2v1.8Z" fill="#2f4e9d"></path>
<path class="st0" d="M308.5,224.5c0-1.1-.5-2.1-1.8-2.8-.6-.3-1.6-.8-2.1-1.1-.5-.3-1-.6-1-1.2s.5-1,1.3-1,1.3.2,1.8.4c.9,0,1.2-.9,1.2-1.6-.9-.6-1.9-.9-2.9-.9h0c-2.2,0-4.2,1.3-4.2,3.6s.8,2.4,1.8,3c.6.4,1.3.7,2,1,.7.4,1,.7,1,1.2s-.5,1.1-1.5,1.1-2.1-.5-2.9-.9c-.4.3-.6.9-.7,1.4,0,.4.2.7.6.9.7.4,1.8.7,2.8.7,2.4,0,4.6-1.2,4.6-3.8Z" fill="#2f4e9d"></path>
<path class="st0" d="M317.3,214.3c1,0,1.7-.8,1.7-1.8s-.6-1.7-1.6-1.7h0c-.6,0-1.7.5-1.7,1.8s.8,1.7,1.6,1.7Z" fill="#2f4e9d"></path>
<path class="st0" d="M315.7,228.1c1,0,1.9,0,2.5-.1.6,0,.7-.2.7-.7v-9.3c0-1.5-.1-1.6-.5-1.6-.5,0-2.2.1-2.8.3,0,.5.1,1.3.1,2.9v4.4c0,1.5,0,3,0,4.1Z" fill="#2f4e9d"></path>
<path class="st0" d="M332.4,221.6c-.6-.3-1.6-.8-2.1-1.1-.5-.3-1-.6-1-1.2s.5-1,1.3-1,1.3.2,1.8.4c.9,0,1.2-.9,1.2-1.6-.9-.6-1.9-.9-2.9-.9h0c-2.2,0-4.2,1.3-4.2,3.6s.8,2.4,1.8,3c.6.4,1.3.7,2,1,.7.4,1,.7,1,1.2s-.5,1.1-1.5,1.1-2.2-.5-2.9-.9c-.4.3-.6.9-.7,1.4,0,.4.2.7.6.9.7.4,1.8.7,2.8.7,2.4,0,4.6-1.2,4.6-3.8s-.5-2.1-1.8-2.8Z" fill="#2f4e9d"></path>
<path class="st0" d="M352.6,222.1c0-3.2-2-5.9-5.7-5.9h0c-3.5,0-6,2.6-6,6.1s2.4,5.9,5.7,5.9,6-2.5,6-6.2ZM346.9,226.4c-1.5,0-2.7-1.4-2.7-4.3s.9-3.9,2.4-3.9h0c1.9,0,2.7,2,2.7,4.2s-.8,4-2.4,4Z" fill="#2f4e9d"></path>
<path class="st0" d="M370.6,221c0-2-.6-4.7-3.9-4.7s-2.5.8-3.6,1.7c-.2-.8-.5-1.7-1.5-1.7s-1.7.7-1.9,1.3v.2c.4.2.5.6.5,1.4v4.2c0,1.8,0,3.3,0,4.7.9,0,1.7,0,2.6-.2.5,0,.6-.2.6-.6v-7.7c.6-.5,1.2-1,2.2-1s1.9.9,1.9,2.4v6.7c0,.3.1.5.5.5,1.1,0,2.1-.2,2.7-.2,0-.9-.1-2.3-.1-3.7v-3.3Z" fill="#2f4e9d"></path>
<path class="st0" d="M389.3,225.1v-13c0-1.6-.1-1.7-.5-1.7s-2.2.3-2.8.5c0,.5.1,1.2.1,2.7v3c-.2-.1-.9-.3-1.6-.3-3.7,0-6.5,2.6-6.5,6.4s2.1,5.6,5.1,5.6,2.4-.6,3.3-1.4c.3.8.8,1.4,2.3,1.4s1.5-1,1.6-1.7h0c-.7-.2-1.1-.5-1.1-1.5ZM386.1,225.5c-.4.3-1.1.5-1.6.5-1.7,0-3.2-1.3-3.2-3.7s1.8-4,3.3-4,1.2.2,1.5.3v7Z" fill="#2f4e9d"></path>
<path class="st0" d="M402.5,216.3c-3.5,0-5.5,3-5.5,6.1s2.1,5.9,5.9,5.9,2-.3,2.4-.5c.4-.2,1.3-1.3,1.3-2.4h0c-.4.2-1.7.5-2.9.5-1.8,0-3.4-1-3.6-3.2,1.4,0,4.1,0,4.8-.1,1.1-.3,2.1-.6,2.2-1,0-.2,0-.5,0-.9,0-2.1-1.3-4.5-4.6-4.5ZM403.8,220.9c-.6,0-2.6,0-3.7,0,.1-1.9,1.1-2.8,2.1-2.8h0c1.3,0,1.9,1,1.9,2.3,0,.3-.2.5-.3.5Z" fill="#2f4e9d"></path>
<path class="st0" d="M420.5,216.3c-1.4,0-2.5.9-3.2,2.7,0-1.6-.5-2.7-1.6-2.7s-1.7.8-1.9,1.3h0c.4.4.6.8.6,1.4v4.4c0,1.8,0,3.3,0,4.7.9,0,1.7,0,2.6-.1.5-.1.6-.3.6-.7v-5.4c0-.6,0-.9.2-1.3.4-1.1,1.2-1.4,1.6-1.4s.7,0,1.2.3c.4,0,.9-.7,1-1.2.3-.5.3-1.2.2-1.5-.2-.2-.7-.4-1.2-.4Z" fill="#2f4e9d"></path>
<path class="st0" d="M441.4,227.2c1.1-3.2,2.2-6.1,3.3-9.2.3-.9.2-1.2-.1-1.4-.6-.2-1.4-.3-2.1-.3-.5,2.1-1.5,5.5-2.4,8.2-.6-2.4-1.5-5.2-1.9-7-.2-.6-.2-.9-.6-.9s-1.9.3-2.3.5c0,.2.1.5.2.8-.5,1.7-.9,2.8-2.1,6.8-.9-3.6-1.4-5.7-2-7.7-.1-.4-.3-.6-.6-.6h0c-.7,0-2.3.4-2.8.6.4.9.7,1.9,1.3,3.6,1,3,1.8,5.6,2.5,7.7.6,0,1.4-.1,2-.2.4-.1.6-.3.7-.8.7-2.3,1.5-4.6,2.1-6.3.8,2.8,1.4,4.8,2.1,7.4.7,0,1.5,0,2.1-.2.5-.1.6-.3.8-.9Z" fill="#2f4e9d"></path>
<path class="st0" d="M454.5,216.4c-.5,0-2.2.1-2.8.3,0,.5.1,1.3.1,2.9v4.4c0,1.5,0,3,0,4.1,1,0,1.9,0,2.5-.1.6,0,.8-.2.8-.7v-9.3c0-1.5-.1-1.6-.5-1.6Z" fill="#2f4e9d"></path>
<path class="st0" d="M453.5,210.8h0c-.6,0-1.7.5-1.7,1.8s.8,1.7,1.6,1.7,1.7-.8,1.7-1.8-.6-1.7-1.6-1.7Z" fill="#2f4e9d"></path>
<path class="st0" d="M466,216.4c-.5,0-2.2.1-2.8.3,0,.5.1,1.3.1,2.8v5.7c0,5.2-.7,6-2.7,6.8h0c.1.9.7,1.4,1.4,1.4s2.1-.5,3.1-1.8c1-1.3,1.4-3.2,1.4-6v-7.6c0-1.5-.1-1.6-.5-1.6Z" fill="#2f4e9d"></path>
<path class="st0" d="M465,210.8h0c-.6,0-1.7.5-1.7,1.8s.8,1.7,1.6,1.7,1.7-.7,1.7-1.7-.6-1.7-1.6-1.7Z" fill="#2f4e9d"></path>
<path class="st0" d="M480,221.6c-.6-.3-1.6-.8-2.1-1.1-.5-.3-1-.6-1-1.2s.5-1,1.3-1,1.3.2,1.8.4c.9,0,1.2-.9,1.2-1.6-.9-.6-1.9-.9-2.9-.9h0c-2.2,0-4.2,1.3-4.2,3.6s.8,2.4,1.8,3c.6.4,1.3.7,2,1,.8.4,1,.7,1,1.2s-.5,1.1-1.5,1.1-2.2-.5-2.9-.9c-.4.3-.6.9-.7,1.4,0,.4.2.7.6.9.7.4,1.8.7,2.8.7,2.4,0,4.6-1.2,4.6-3.8s-.5-2.1-1.8-2.8Z" fill="#2f4e9d"></path>
<path class="st0" d="M192.5,242.2h0c-3.5,0-6,2.6-6,6.1s2.4,5.9,5.7,5.9,6-2.5,6-6.2-2-5.9-5.7-5.9ZM192.5,252.3c-1.5,0-2.7-1.4-2.7-4.3s.9-3.9,2.4-3.9h0c1.9,0,2.7,2,2.7,4.2s-.8,4-2.4,4Z" fill="#2f4e9d"></path>
<path class="st0" d="M212.4,242.2c-1.1,0-2.2.5-3.7,1.5-.2-.7-.5-1.5-1.5-1.5s-1.7.6-2,1.3v.2c.4.1.5.6.5,1.3v10.2c0,1.8,0,3.2,0,4.2,1,0,1.7,0,2.6-.1.5-.1.6-.3.6-.7v-4.8c.4.3,1.1.4,1.8.4,3.3,0,6.2-2.6,6.2-6.6s-1.9-5.5-4.6-5.5ZM210.4,252.2c-.5,0-1.1-.1-1.5-.3v-6.6c.4-.3,1.3-.7,2.1-.7,1.6,0,2.7,1.5,2.7,3.5,0,2.9-1.7,4.1-3.3,4.1Z" fill="#2f4e9d"></path>
<path class="st0" d="M243.3,239.6c1.4,0,2.7.3,3.9.9.8.2,1.6-.6,1.6-1.6-.6-.6-2.5-1.5-5.4-1.5-5.1,0-9.2,3.3-9.2,8.6s4.6,8.4,9,8.4,2.6-.3,3.6-.5c.7-.3,1.6-.9,2-1.3v-5.9c0-.5-.2-.7-.5-.7-.7,0-2,.3-2.8.4,0,.6.1,1.2.1,2.3v3.4c-.3.1-1.1.3-1.8.3-3,0-6-2-6-6.6s2.5-6.1,5.6-6.1Z" fill="#2f4e9d"></path>
<path class="st0" d="M261.8,242.2c-3.5,0-5.5,3-5.5,6.1s2.1,5.9,5.9,5.9,2-.3,2.4-.5c.4-.2,1.3-1.3,1.3-2.4h0c-.4.2-1.7.5-2.9.5-1.8,0-3.4-1-3.5-3.2,1.4,0,4.1,0,4.8-.1,1.1-.3,2.1-.6,2.2-1,0-.2,0-.5,0-.9,0-2.1-1.3-4.5-4.6-4.5ZM263.1,246.8c-.6,0-2.6,0-3.7,0,.1-1.9,1.1-2.8,2.1-2.8h0c1.3,0,1.9,1,1.9,2.3,0,.3-.2.5-.3.5Z" fill="#2f4e9d"></path>
<path class="st0" d="M279.8,242.2c-1.4,0-2.5.9-3.2,2.7,0-1.6-.5-2.7-1.6-2.7s-1.7.8-1.9,1.3h0c.4.4.6.8.6,1.4v4.4c0,1.8,0,3.3,0,4.7.9,0,1.7,0,2.6-.1.5-.1.6-.3.6-.7v-5.4c0-.6,0-.9.2-1.3.4-1.1,1.2-1.4,1.6-1.4s.7,0,1.2.3c.4,0,.9-.7,1-1.2.3-.5.3-1.2.2-1.5-.2-.2-.7-.4-1.2-.4Z" fill="#2f4e9d"></path>
<path class="st0" d="M292.4,242.2c-3.5,0-5.5,3-5.5,6.1s2.1,5.9,5.9,5.9,2-.3,2.4-.5c.4-.2,1.3-1.3,1.3-2.4h0c-.4.2-1.7.5-2.9.5-1.8,0-3.4-1-3.6-3.2,1.4,0,4.1,0,4.8-.1,1.1-.3,2.1-.6,2.2-1,0-.2,0-.5,0-.9,0-2.1-1.3-4.5-4.6-4.5ZM293.7,246.8c-.6,0-2.6,0-3.7,0,.1-1.9,1.1-2.8,2.1-2.8h0c1.3,0,1.9,1,1.9,2.3,0,.3-.2.5-.3.5Z" fill="#2f4e9d"></path>
<path class="st0" d="M309.6,236.2h0c-1,0-2.1.2-3.2,1.2-1.1,1-1.8,2.5-1.8,5.1-.6.4-1.1.5-1.5,1.1,0,.6.5.9,1.5.9,0,3.2,0,6.3,0,9.1,0,.4.2.4.4.4s2,0,2.9-.2c0-1.4-.1-7.2-.1-9.4,1.1,0,2-.1,2.4-.4.3-.2.7-.8.8-1.7-.6,0-2.7,0-3.1,0,0-2.9.6-4.1,1.8-4.1s.5,0,.7.1c.7,0,1.2-1.1,1.1-1.7-.4-.4-1.1-.6-1.8-.6Z" fill="#2f4e9d"></path>
<path class="st0" d="M321.9,242.2h0c-3.5,0-6,2.6-6,6.1s2.4,5.9,5.7,5.9,6-2.5,6-6.2-2-5.9-5.7-5.9ZM321.9,252.3c-1.5,0-2.7-1.4-2.7-4.3s.9-3.9,2.4-3.9h0c1.9,0,2.7,2,2.7,4.2s-.8,4-2.4,4Z" fill="#2f4e9d"></path>
<path class="st0" d="M341.3,242.2c-1.4,0-2.5.9-3.2,2.7,0-1.6-.5-2.7-1.6-2.7s-1.7.8-1.9,1.3h0c.4.4.6.8.6,1.4v4.4c0,1.8,0,3.3,0,4.7.9,0,1.7,0,2.6-.1.5-.1.6-.3.6-.7v-5.4c0-.6,0-.9.2-1.3.4-1.1,1.2-1.4,1.6-1.4s.7,0,1.2.3c.4,0,.9-.7,1-1.2.3-.5.3-1.2.2-1.5-.2-.2-.7-.4-1.2-.4Z" fill="#2f4e9d"></path>
<path class="st0" d="M367.2,246.6c0-2-.8-4.5-3.7-4.5s-3,1-4,1.9c-.5-1.1-1.5-1.9-3.1-1.9s-2.7.9-3.8,1.7c-.2-.8-.5-1.7-1.6-1.7s-1.6.6-1.9,1.3v.2c.4.2.5.6.5,1.3v4.4c0,1.8,0,3.3,0,4.7.9,0,1.7,0,2.6-.1.5-.1.6-.3.6-.7v-7.7c.6-.5,1.3-1,2.2-1,1.2,0,1.9.9,1.9,2.4v2.4c0,1.8,0,3.3,0,4.7.9,0,1.7,0,2.6-.1.5,0,.6-.2.6-.7v-7.7c.5-.5,1.2-1,2.1-1s1.9.9,1.9,2.4v6.7c0,.3.2.5.5.5,1.1,0,2.1-.2,2.7-.2,0-.9,0-2.3,0-3.7v-3.5Z" fill="#2f4e9d"></path>
<path class="st0" d="M380.2,242.2c-3.5,0-5.5,3-5.5,6.1s2.1,5.9,5.9,5.9,2-.3,2.4-.5c.4-.2,1.3-1.3,1.3-2.4h0c-.4.2-1.7.5-2.9.5-1.8,0-3.4-1-3.5-3.2,1.4,0,4.1,0,4.8-.1,1.1-.3,2.1-.6,2.2-1,0-.2,0-.5,0-.9,0-2.1-1.3-4.5-4.6-4.5ZM381.5,246.8c-.6,0-2.6,0-3.7,0,.1-1.9,1.1-2.8,2.1-2.8h0c1.3,0,1.9,1,1.9,2.3,0,.3-.2.5-.3.5Z" fill="#2f4e9d"></path>
<path class="st0" d="M397,242.2c-3.5,0-5.5,3-5.5,6.1s2.1,5.9,5.9,5.9,2-.3,2.4-.5c.4-.2,1.3-1.3,1.3-2.4h0c-.4.2-1.7.5-2.9.5-1.8,0-3.4-1-3.5-3.2,1.4,0,4.1,0,4.8-.1,1.1-.3,2.1-.6,2.2-1,0-.2,0-.5,0-.9,0-2.1-1.3-4.5-4.6-4.5ZM398.3,246.8c-.6,0-2.6,0-3.7,0,.1-1.9,1.1-2.8,2.1-2.8h0c1.3,0,1.9,1,1.9,2.3,0,.3-.2.5-.3.5Z" fill="#2f4e9d"></path>
<path class="st0" d="M415,242.2c-1.4,0-2.5.9-3.2,2.7,0-1.6-.5-2.7-1.6-2.7s-1.7.8-1.9,1.3h0c.4.4.6.8.6,1.4v4.4c0,1.8,0,3.3,0,4.7.9,0,1.7,0,2.6-.1.5-.1.6-.3.6-.7v-5.4c0-.6,0-.9.2-1.3.4-1.1,1.2-1.4,1.6-1.4s.7,0,1.2.3c.4,0,.9-.7,1-1.2.3-.5.3-1.2.2-1.5-.2-.2-.7-.4-1.2-.4Z" fill="#2f4e9d"></path>
<path class="st0" d="M433.3,251v-13c0-1.6-.1-1.7-.5-1.7s-2.2.3-2.8.5c0,.5.1,1.2.1,2.7v3c-.2-.1-.9-.3-1.6-.3-3.7,0-6.5,2.6-6.5,6.4s2.1,5.6,5.1,5.6,2.4-.6,3.3-1.4c.3.8.8,1.4,2.3,1.4s1.5-1,1.6-1.7h0c-.7-.2-1.1-.5-1.1-1.5ZM430.1,251.4c-.4.3-1.1.5-1.6.5-1.7,0-3.2-1.3-3.2-3.7s1.8-4,3.3-4,1.2.2,1.5.3v7Z" fill="#2f4e9d"></path>
<path class="st0" d="M446.5,242.2c-3.5,0-5.5,3-5.5,6.1s2.1,5.9,5.9,5.9,2-.3,2.4-.5c.4-.2,1.3-1.3,1.3-2.4h0c-.4.2-1.7.5-2.9.5-1.8,0-3.4-1-3.6-3.2,1.4,0,4.1,0,4.8-.1,1.1-.3,2.1-.6,2.2-1,0-.2,0-.5,0-.9,0-2.1-1.3-4.5-4.6-4.5ZM447.8,246.8c-.6,0-2.6,0-3.7,0,.1-1.9,1.1-2.8,2.1-2.8h0c1.3,0,1.9,1,1.9,2.3,0,.3-.2.5-.3.5Z" fill="#2f4e9d"></path>
<path class="st0" d="M479.1,243.1c0-.2,0-.5-.1-.6-.4.1-1.2.3-2,.3s-1.3-.2-1.9-.3c-.6-.2-1.5-.3-2.1-.3h0c-2.7,0-4.8,1.7-4.8,4.1s1.1,2.9,2.3,3.4c-.5.5-1.3,1-1.8,1.3-.2.1-.2.2-.2.3,0,1.1.8,1.9,1.6,2.2-1.2.5-2.4,1.3-2.4,2.4,0,1.9,2,3.4,5.1,3.4s6.3-1.8,6.3-4.8-.9-2.9-3.3-3c-1,0-2-.1-3.1-.2-.9,0-1.2-.4-1.2-.7s.2-.4.4-.6c.2,0,.5.1.9.1,2.5,0,4.5-1.3,4.5-3.9s-.1-1-.3-1.5c.3,0,.6,0,.7,0,.9-.1,1.3-.6,1.3-1.5ZM472.1,254c.7,0,1.6,0,2.4.2,1.4.2,1.8.8,1.8,1.5,0,1.1-1.3,1.8-2.9,1.8s-3.1-.7-3.1-1.8h0c0-.6.4-1.1.8-1.3.2-.1.6-.2.9-.2ZM472.9,248.5c-1.1,0-1.9-.9-1.9-2.3s.6-2.3,1.7-2.3h0c1.4,0,1.8,1.2,1.8,2.4s-.7,2.3-1.7,2.3Z" fill="#2f4e9d"></path>
<path class="st0" d="M492,242.2c-1.4,0-2.5.9-3.2,2.7,0-1.6-.5-2.7-1.6-2.7s-1.7.8-1.9,1.3h0c.4.4.6.8.6,1.4v4.4c0,1.8,0,3.3,0,4.7.9,0,1.7,0,2.6-.1.5-.1.6-.3.6-.7v-5.4c0-.6,0-.9.2-1.3.4-1.1,1.2-1.4,1.6-1.4s.7,0,1.2.3c.4,0,.9-.7,1-1.2.3-.5.3-1.2.2-1.5-.2-.2-.7-.4-1.2-.4Z" fill="#2f4e9d"></path>
<path class="st0" d="M504.9,242.2h0c-3.5,0-6,2.6-6,6.1s2.4,5.9,5.7,5.9,6-2.5,6-6.2-2-5.9-5.7-5.9ZM504.9,252.3c-1.5,0-2.7-1.4-2.7-4.3s.9-3.9,2.4-3.9h0c1.9,0,2.7,2,2.7,4.2s-.8,4-2.4,4Z" fill="#2f4e9d"></path>
<path class="st0" d="M528.7,246.9c0-2-.6-4.7-3.9-4.7s-2.5.8-3.6,1.7c-.2-.8-.5-1.7-1.5-1.7s-1.7.7-1.9,1.3v.2c.4.2.5.6.5,1.4v4.2c0,1.8,0,3.3,0,4.7.9,0,1.7,0,2.6-.2.5,0,.6-.2.6-.6v-7.7c.6-.5,1.2-1,2.2-1s1.9.9,1.9,2.4v6.7c0,.3.1.5.5.5,1.1,0,2.1-.2,2.7-.2,0-.9-.1-2.3-.1-3.7v-3.3Z" fill="#2f4e9d"></path>
<path class="st0" d="M547.3,251v-13c0-1.6-.1-1.7-.5-1.7s-2.2.3-2.8.5c0,.5.1,1.2.1,2.7v3c-.2-.1-.9-.3-1.6-.3-3.7,0-6.5,2.6-6.5,6.4s2.1,5.6,5.1,5.6,2.4-.6,3.3-1.4c.3.8.8,1.4,2.3,1.4s1.5-1,1.6-1.7h0c-.7-.2-1.1-.5-1.1-1.5ZM544.2,251.4c-.4.3-1.1.5-1.6.5-1.7,0-3.2-1.3-3.2-3.7s1.8-4,3.3-4,1.2.2,1.5.3v7Z" fill="#2f4e9d"></path>
<path class="st0" d="M561.1,247.5c-.6-.3-1.6-.8-2.1-1.1-.5-.3-1-.6-1-1.2s.5-1,1.3-1,1.3.2,1.8.4c.9,0,1.2-.9,1.2-1.6-.9-.6-1.9-.9-2.9-.9h0c-2.2,0-4.2,1.3-4.2,3.6s.8,2.4,1.8,3c.6.4,1.3.7,2,1,.8.4,1,.7,1,1.2s-.5,1.1-1.5,1.1-2.2-.5-2.9-.9c-.4.3-.6.9-.7,1.4,0,.4.2.7.6.9.7.4,1.8.7,2.8.7,2.4,0,4.6-1.2,4.6-3.8s-.5-2.1-1.8-2.8Z" fill="#2f4e9d"></path>
<path class="st0" d="M573.2,238c0-1.6-.1-1.7-.5-1.7s-2.2.2-2.7.5c0,.5.1,1.2.1,2.7v14.2c0,.3.1.3.4.3.4,0,2.3,0,2.9-.2,0-.8-.1-2.2-.1-3.4v-12.5Z" fill="#2f4e9d"></path>
<path class="st0" d="M589.8,251.3c0-1.7.1-3.7.1-4.7,0-2.8-1.9-4.4-4.2-4.4s-3.6.9-4.7,1.7c0,.8.4,1.7,1.5,1.4.6-.3,1.5-.8,2.4-.8s2,.9,2,2v.4c-.3,0-.9.2-1.3.3-1.8.4-4.9,1.1-4.9,3.8s1.5,3.2,3.2,3.2,2.4-.7,3.1-1.5c.3.9,1,1.5,2.1,1.5s2.2-.8,2.2-2.2h0c-.1,0-.3,0-.4,0-.6,0-.9-.4-.9-.7ZM586.9,250.4c0,.5,0,.7-.2.9-.4.4-.8.7-1.5.7s-1.5-.5-1.5-1.4h0c0-.9,1-1.7,3.2-2v1.8Z" fill="#2f4e9d"></path>
<path class="st0" d="M605.4,251.6c-1,0-2-.1-3.1-.2-.9,0-1.2-.4-1.2-.7s.2-.4.4-.6c.2,0,.5.1.9.1,2.5,0,4.5-1.3,4.5-3.9s-.1-1-.3-1.5c.3,0,.6,0,.7,0,.9-.1,1.3-.6,1.3-1.5s0-.5-.1-.6c-.4.1-1.2.3-2,.3s-1.3-.2-1.9-.3c-.6-.2-1.5-.3-2.1-.3h0c-2.7,0-4.8,1.7-4.8,4.1s1.1,2.9,2.3,3.4c-.5.5-1.3,1-1.8,1.3-.2.1-.2.2-.2.3,0,1.1.8,1.9,1.6,2.2-1.2.5-2.4,1.3-2.4,2.4,0,1.9,2,3.4,5.1,3.4s6.3-1.8,6.3-4.8-.9-2.9-3.3-3ZM602.4,243.8h0c1.4,0,1.8,1.2,1.8,2.4s-.7,2.3-1.7,2.3-1.9-.9-1.9-2.3.6-2.3,1.7-2.3ZM603.1,257.4c-1.7,0-3.1-.7-3.1-1.8h0c0-.6.4-1.1.8-1.3.2-.1.6-.2.9-.2.7,0,1.6,0,2.4.2,1.4.2,1.8.8,1.8,1.5,0,1.1-1.3,1.8-2.9,1.8Z" fill="#2f4e9d"></path>
</g>
</svg>