<svg xmlns="http://www.w3.org/2000/svg" xmlns:xlink="http://www.w3.org/1999/xlink" width="500" zoomAndPan="magnify" viewBox="0 0 375 374.999991" height="500" preserveAspectRatio="xMidYMid meet" version="1.0"><defs><clipPath id="e550f10c39"><path d="M 29.417969 80 L 371.417969 80 L 371.417969 348.039062 L 29.417969 348.039062 Z M 29.417969 80 " clip-rule="nonzero"/></clipPath><clipPath id="2890a08eaa"><path d="M 29.417969 27.039062 L 339 27.039062 L 339 345 L 29.417969 345 Z M 29.417969 27.039062 " clip-rule="nonzero"/></clipPath></defs><g clip-path="url(#e550f10c39)"><path fill="#ffffff" d="M -107.1875 343.992188 L -107.1875 84.667969 L -50.394531 84.667969 L -50.394531 295.550781 L 33.125 295.550781 L 33.125 343.992188 Z M 602.089844 343.992188 L 602.089844 84.667969 L 759.523438 84.667969 L 759.523438 129.558594 L 658.675781 129.558594 L 658.675781 189.273438 L 737.390625 189.273438 L 737.390625 233.957031 L 658.675781 233.957031 L 658.675781 297.847656 L 759.523438 297.847656 L 759.523438 343.992188 Z M 881.667969 126.84375 L 858.699219 126.84375 L 858.699219 199.921875 L 883.964844 199.921875 C 907.765625 199.921875 917.371094 184.472656 917.371094 162.128906 C 917.371094 139.789062 905.679688 126.84375 881.667969 126.84375 M 922.171875 344.199219 L 887.511719 241.890625 L 858.699219 241.890625 L 858.699219 344.199219 L 802.953125 344.199219 L 802.953125 84.667969 L 883.128906 84.667969 C 898.3125 83.765625 913.207031 85.4375 927.8125 89.679688 C 929.617188 90.375 931.394531 91.140625 933.140625 91.980469 C 934.882812 92.820312 936.59375 93.730469 938.265625 94.707031 C 939.9375 95.683594 941.566406 96.730469 943.152344 97.839844 C 944.738281 98.949219 946.28125 100.117188 947.773438 101.351562 C 949.265625 102.585938 950.703125 103.878906 952.09375 105.230469 C 953.480469 106.582031 954.8125 107.984375 956.085938 109.441406 C 957.359375 110.902344 958.574219 112.40625 959.726562 113.964844 C 960.878906 115.519531 961.964844 117.121094 962.988281 118.765625 C 964.011719 120.410156 964.964844 122.09375 965.855469 123.8125 C 966.742188 125.535156 967.554688 127.289062 968.300781 129.078125 C 969.046875 130.863281 969.71875 132.679688 970.316406 134.519531 C 970.914062 136.363281 971.4375 138.226562 971.882812 140.109375 C 972.332031 141.992188 972.703125 143.894531 972.996094 145.808594 C 973.289062 147.722656 973.507812 149.644531 973.644531 151.574219 C 973.785156 153.507812 973.84375 155.441406 973.824219 157.378906 C 973.808594 159.3125 973.710938 161.246094 973.535156 163.175781 C 973.726562 171.0625 972.863281 178.832031 970.949219 186.488281 C 969.035156 194.140625 966.140625 201.402344 962.261719 208.273438 C 959.253906 213.066406 955.636719 217.34375 951.410156 221.105469 C 947.1875 224.871094 942.519531 227.96875 937.414062 230.40625 L 984.8125 343.992188 Z M -226.199219 246.066406 L -251.882812 141.667969 L -276.726562 246.066406 Z M -202.398438 343.992188 L -216.59375 290.75 L -288.421875 290.75 L -301.367188 343.992188 L -353.773438 343.992188 L -275.890625 84.667969 L -218.265625 84.667969 L -144.351562 343.992188 Z M 461.363281 231.242188 L 433.382812 231.242188 L 433.382812 298.472656 L 461.363281 298.472656 C 485.375 298.472656 500.199219 290.332031 500.199219 264.230469 C 500.199219 238.132812 485.375 230.40625 461.363281 230.40625 M 455.933594 126.007812 L 433.382812 126.007812 L 433.382812 188.648438 L 451.550781 188.648438 C 475.144531 188.648438 493.308594 184.679688 493.308594 156.492188 C 493.308594 132.273438 477.859375 126.21875 455.933594 126.21875 M 529.847656 331.464844 C 525.101562 334.066406 520.179688 336.285156 515.085938 338.125 C 509.996094 339.960938 504.792969 341.394531 499.476562 342.421875 C 494.160156 343.449219 488.796875 344.058594 483.386719 344.253906 C 477.976562 344.445312 472.585938 344.21875 467.210938 343.574219 L 378.472656 343.574219 L 378.472656 84.667969 L 466.792969 84.667969 C 471.890625 84.074219 477.007812 83.871094 482.140625 84.054688 C 487.273438 84.238281 492.359375 84.804688 497.40625 85.761719 C 502.449219 86.71875 507.394531 88.050781 512.238281 89.757812 C 517.082031 91.460938 521.769531 93.523438 526.296875 95.941406 C 528.339844 97.652344 530.277344 99.46875 532.109375 101.402344 C 533.941406 103.332031 535.660156 105.363281 537.257812 107.488281 C 538.859375 109.617188 540.332031 111.832031 541.675781 114.128906 C 543.023438 116.425781 544.230469 118.792969 545.304688 121.226562 C 546.378906 123.664062 547.3125 126.152344 548.097656 128.695312 C 548.886719 131.238281 549.527344 133.820312 550.015625 136.4375 C 550.507812 139.050781 550.847656 141.6875 551.035156 144.34375 C 551.226562 147 551.261719 149.65625 551.144531 152.316406 C 551.289062 155.847656 551.136719 159.363281 550.6875 162.863281 C 550.238281 166.367188 549.5 169.808594 548.46875 173.183594 C 547.4375 176.5625 546.128906 179.828125 544.546875 182.984375 C 542.964844 186.140625 541.125 189.144531 539.035156 191.988281 C 535.835938 195.96875 532.117188 199.382812 527.882812 202.230469 C 523.644531 205.078125 519.082031 207.234375 514.1875 208.691406 C 516.738281 209.269531 519.226562 210.039062 521.65625 211.003906 C 524.082031 211.96875 526.421875 213.113281 528.675781 214.445312 C 530.925781 215.773438 533.058594 217.265625 535.074219 218.929688 C 537.09375 220.589844 538.96875 222.398438 540.703125 224.351562 C 543.601562 227.566406 546.171875 231.023438 548.410156 234.726562 C 550.648438 238.429688 552.519531 242.308594 554.019531 246.367188 C 555.523438 250.425781 556.628906 254.589844 557.339844 258.855469 C 558.050781 263.125 558.351562 267.421875 558.242188 271.75 C 558.324219 274.601562 558.238281 277.453125 557.980469 280.296875 C 557.726562 283.140625 557.300781 285.960938 556.710938 288.757812 C 556.121094 291.550781 555.367188 294.300781 554.449219 297.003906 C 553.535156 299.710938 552.460938 302.351562 551.230469 304.929688 C 550 307.507812 548.621094 310.003906 547.097656 312.417969 C 545.570312 314.832031 543.90625 317.148438 542.105469 319.363281 C 540.304688 321.582031 538.378906 323.683594 536.328125 325.671875 C 534.277344 327.660156 532.117188 329.523438 529.847656 331.253906 M 1175.859375 343.992188 L 1169.386719 319.351562 C 1167.601562 321.6875 1165.683594 323.90625 1163.632812 326.007812 C 1161.578125 328.109375 1159.410156 330.078125 1157.117188 331.917969 C 1154.828125 333.757812 1152.4375 335.457031 1149.941406 337.007812 C 1147.449219 338.558594 1144.871094 339.957031 1142.207031 341.195312 C 1139.542969 342.4375 1136.816406 343.511719 1134.023438 344.425781 C 1131.230469 345.335938 1128.394531 346.078125 1125.511719 346.648438 C 1122.632812 347.21875 1119.726562 347.613281 1116.796875 347.832031 C 1113.867188 348.050781 1110.933594 348.09375 1108 347.957031 C 1035.339844 347.957031 1011.957031 278.429688 1011.957031 217.042969 C 1011.957031 151.273438 1035.550781 80.910156 1113.011719 80.910156 C 1172.519531 80.910156 1195.066406 114.316406 1202.375 169.855469 L 1150.59375 178 C 1147.878906 157.121094 1142.453125 127.054688 1114.054688 127.054688 C 1072.296875 127.054688 1072.296875 186.976562 1072.296875 215.375 C 1072.296875 243.769531 1073.550781 301.605469 1116.144531 301.605469 C 1146 301.605469 1149.96875 273.628906 1150.804688 250.242188 L 1112.175781 250.242188 L 1112.175781 205.558594 L 1200.707031 205.558594 L 1200.707031 343.992188 Z M -472.785156 84.667969 L -513.710938 243.351562 L -514.335938 243.351562 L -550.667969 84.667969 L -634.183594 84.667969 L -634.183594 343.992188 L -587.832031 343.992188 L -587.832031 136.238281 L -587.414062 136.238281 L -540.4375 343.992188 L -498.050781 343.992188 L -446.058594 137.492188 L -445.226562 137.492188 L -445.226562 343.992188 L -390.519531 343.992188 L -390.519531 84.667969 Z M -472.785156 84.667969 " fill-opacity="1" fill-rule="nonzero"/></g><g clip-path="url(#2890a08eaa)"><path fill="#e01737" d="M 271.359375 27.039062 L 187.839844 47.917969 L 187.839844 206.394531 L 117.476562 66.085938 L 29.785156 88.21875 L 92.421875 344.410156 L 141.699219 331.882812 L 94.511719 136.238281 L 188.675781 319.351562 L 229.390625 309.121094 L 229.390625 100.328125 C 229.390625 100.328125 265.722656 238.550781 271.152344 256.714844 C 278.667969 286.574219 293.910156 294.089844 319.171875 287.617188 L 338.171875 282.8125 Z M 271.359375 27.039062 " fill-opacity="1" fill-rule="nonzero"/></g></svg>