<svg xmlns="http://www.w3.org/2000/svg" xmlns:xlink="http://www.w3.org/1999/xlink" width="1584" zoomAndPan="magnify" viewBox="0 0 1188 296.999993" height="396" preserveAspectRatio="xMidYMid meet" version="1.2"><defs><clipPath id="bdbc4782d4"><rect x="0" width="1092" y="0" height="131"/></clipPath></defs><g id="d3f2e100b7"><g transform="matrix(1,0,0,1,46,83)"><g clip-path="url(#bdbc4782d4)"><g style="fill:#000000;fill-opacity:1;"><g transform="translate(0.780862, 101.157514)"><path style="stroke:none" d="M 43.75 -72.8125 C 49.050781 -72.8125 54.046875 -71.859375 58.734375 -69.953125 C 63.421875 -68.046875 67.53125 -65.394531 71.0625 -62 C 74.601562 -58.601562 77.375 -54.675781 79.375 -50.21875 C 81.382812 -45.769531 82.390625 -40.992188 82.390625 -35.890625 C 82.390625 -30.796875 81.382812 -26.003906 79.375 -21.515625 C 77.375 -17.023438 74.601562 -13.082031 71.0625 -9.6875 C 67.53125 -6.289062 63.421875 -3.640625 58.734375 -1.734375 C 54.046875 0.171875 49.050781 1.125 43.75 1.125 C 38.445312 1.125 33.445312 0.171875 28.75 -1.734375 C 24.0625 -3.640625 19.945312 -6.289062 16.40625 -9.6875 C 12.875 -13.082031 10.101562 -17.023438 8.09375 -21.515625 C 6.09375 -26.003906 5.09375 -30.796875 5.09375 -35.890625 C 5.09375 -40.992188 6.09375 -45.769531 8.09375 -50.21875 C 10.101562 -54.675781 12.875 -58.601562 16.40625 -62 C 19.945312 -65.394531 24.0625 -68.046875 28.75 -69.953125 C 33.445312 -71.859375 38.445312 -72.8125 43.75 -72.8125 Z M 43.953125 -7.03125 C 48.160156 -7.03125 52.082031 -7.773438 55.71875 -9.265625 C 59.363281 -10.765625 62.5625 -12.820312 65.3125 -15.4375 C 68.0625 -18.0625 70.21875 -21.109375 71.78125 -24.578125 C 73.34375 -28.046875 74.125 -31.75 74.125 -35.6875 C 74.125 -39.632812 73.34375 -43.335938 71.78125 -46.796875 C 70.21875 -50.265625 68.0625 -53.304688 65.3125 -55.921875 C 62.5625 -58.546875 59.363281 -60.601562 55.71875 -62.09375 C 52.082031 -63.59375 48.160156 -64.34375 43.953125 -64.34375 C 39.804688 -64.34375 35.894531 -63.59375 32.21875 -62.09375 C 28.550781 -60.601562 25.320312 -58.546875 22.53125 -55.921875 C 19.75 -53.304688 17.570312 -50.265625 16 -46.796875 C 14.4375 -43.335938 13.65625 -39.632812 13.65625 -35.6875 C 13.65625 -31.75 14.4375 -28.046875 16 -24.578125 C 17.570312 -21.109375 19.75 -18.0625 22.53125 -15.4375 C 25.320312 -12.820312 28.550781 -10.765625 32.21875 -9.265625 C 35.894531 -7.773438 39.804688 -7.03125 43.953125 -7.03125 Z M 43.953125 -7.03125 "/></g></g><g style="fill:#000000;fill-opacity:1;"><g transform="translate(83.159687, 101.157514)"><path style="stroke:none" d="M 79.125 -49.5625 C 80.21875 -49.5625 81.132812 -49.203125 81.875 -48.484375 C 82.625 -47.773438 83 -46.875 83 -45.78125 L 83 -45.578125 C 83 -44.554688 82.625 -43.671875 81.875 -42.921875 C 81.132812 -42.179688 80.21875 -41.8125 79.125 -41.8125 L 70.15625 -41.8125 L 48.4375 -1.53125 C 47.757812 -0.375 46.632812 0.269531 45.0625 0.40625 C 43.570312 0.40625 42.453125 -0.238281 41.703125 -1.53125 L 19.890625 -41.8125 L 10.90625 -41.8125 C 9.882812 -41.8125 9 -42.179688 8.25 -42.921875 C 7.507812 -43.671875 7.140625 -44.554688 7.140625 -45.578125 L 7.140625 -45.78125 C 7.140625 -46.875 7.507812 -47.773438 8.25 -48.484375 C 9 -49.203125 9.882812 -49.5625 10.90625 -49.5625 L 37.328125 -49.5625 C 38.335938 -49.5625 39.21875 -49.203125 39.96875 -48.484375 C 40.71875 -47.773438 41.09375 -46.875 41.09375 -45.78125 L 41.09375 -45.578125 C 41.09375 -44.554688 40.71875 -43.671875 39.96875 -42.921875 C 39.21875 -42.179688 38.335938 -41.8125 37.328125 -41.8125 L 28.859375 -41.8125 L 45.0625 -11.71875 L 61.1875 -41.8125 L 52.8125 -41.8125 C 51.726562 -41.8125 50.828125 -42.179688 50.109375 -42.921875 C 49.398438 -43.671875 49.046875 -44.554688 49.046875 -45.578125 L 49.046875 -45.78125 C 49.046875 -46.875 49.398438 -47.773438 50.109375 -48.484375 C 50.828125 -49.203125 51.726562 -49.5625 52.8125 -49.5625 Z M 79.125 -49.5625 "/></g></g><g style="fill:#000000;fill-opacity:1;"><g transform="translate(163.091262, 101.157514)"><path style="stroke:none" d="M 29.578125 -6.625 C 33.242188 -6.625 36.210938 -7.164062 38.484375 -8.25 C 40.765625 -9.34375 42.753906 -10.640625 44.453125 -12.140625 C 46.765625 -14.109375 48.703125 -14.273438 50.265625 -12.640625 C 51.085938 -11.753906 51.445312 -10.785156 51.34375 -9.734375 C 51.238281 -8.679688 50.710938 -7.613281 49.765625 -6.53125 C 47.859375 -4.28125 45.304688 -2.441406 42.109375 -1.015625 C 38.921875 0.410156 34.742188 1.125 29.578125 1.125 C 24.816406 1.125 20.546875 -0.0820312 16.765625 -2.5 C 12.992188 -4.914062 10.070312 -8.144531 8 -12.1875 C 5.925781 -16.226562 4.992188 -20.664062 5.203125 -25.5 C 5.398438 -29.84375 6.484375 -33.882812 8.453125 -37.625 C 10.429688 -41.363281 13.15625 -44.40625 16.625 -46.75 C 20.09375 -49.09375 24.132812 -50.265625 28.75 -50.265625 C 32.757812 -50.265625 36.15625 -49.515625 38.9375 -48.015625 C 41.726562 -46.523438 44.023438 -44.625 45.828125 -42.3125 C 47.628906 -40 48.9375 -37.515625 49.75 -34.859375 C 50.570312 -32.210938 50.984375 -29.703125 50.984375 -27.328125 C 50.984375 -25.628906 50.59375 -24.164062 49.8125 -22.9375 C 49.03125 -21.71875 47.550781 -21.109375 45.375 -21.109375 L 13.15625 -21.109375 C 13.90625 -16.960938 15.753906 -13.507812 18.703125 -10.75 C 21.660156 -8 25.285156 -6.625 29.578125 -6.625 Z M 28.25 -42.515625 C 25.457031 -42.515625 23.078125 -41.867188 21.109375 -40.578125 C 19.140625 -39.285156 17.539062 -37.601562 16.3125 -35.53125 C 15.09375 -33.457031 14.140625 -31.234375 13.453125 -28.859375 L 42.625 -28.859375 C 42.144531 -32.660156 40.832031 -35.882812 38.6875 -38.53125 C 36.550781 -41.1875 33.070312 -42.515625 28.25 -42.515625 Z M 28.25 -42.515625 "/></g></g><g style="fill:#000000;fill-opacity:1;"><g transform="translate(215.495571, 101.157514)"><path style="stroke:none" d="M 45.375 -50.171875 C 48.84375 -50.640625 51.898438 -50.429688 54.546875 -49.546875 C 57.203125 -48.671875 59.410156 -47.378906 61.171875 -45.671875 C 62.941406 -43.972656 64.21875 -42.085938 65 -40.015625 C 65.78125 -37.941406 66.003906 -35.921875 65.671875 -33.953125 C 65.398438 -32.253906 64.6875 -30.773438 63.53125 -29.515625 C 62.375 -28.265625 60.8125 -27.640625 58.84375 -27.640625 C 56.664062 -27.640625 55.015625 -28.25 53.890625 -29.46875 C 52.765625 -30.6875 52.132812 -32.046875 52 -33.546875 C 51.9375 -34.703125 52.191406 -35.941406 52.765625 -37.265625 C 53.347656 -38.597656 54.382812 -39.601562 55.875 -40.28125 C 54.65625 -41.769531 52.71875 -42.632812 50.0625 -42.875 C 47.414062 -43.113281 44.898438 -42.789062 42.515625 -41.90625 C 38.773438 -40.613281 35.679688 -38.382812 33.234375 -35.21875 C 30.796875 -32.0625 29.03125 -28.679688 27.9375 -25.078125 L 27.9375 -7.859375 L 38.03125 -7.859375 C 39.125 -7.859375 40.023438 -7.484375 40.734375 -6.734375 C 41.453125 -5.984375 41.8125 -5.097656 41.8125 -4.078125 L 41.8125 -3.875 C 41.8125 -2.789062 41.453125 -1.890625 40.734375 -1.171875 C 40.023438 -0.460938 39.125 -0.109375 38.03125 -0.109375 L 9.890625 -0.109375 C 8.867188 -0.109375 7.984375 -0.460938 7.234375 -1.171875 C 6.492188 -1.890625 6.125 -2.789062 6.125 -3.875 L 6.125 -4.078125 C 6.125 -5.097656 6.492188 -5.984375 7.234375 -6.734375 C 7.984375 -7.484375 8.867188 -7.859375 9.890625 -7.859375 L 20.1875 -7.859375 L 20.1875 -41.8125 L 9.890625 -41.8125 C 8.867188 -41.8125 7.984375 -42.179688 7.234375 -42.921875 C 6.492188 -43.671875 6.125 -44.554688 6.125 -45.578125 L 6.125 -45.78125 C 6.125 -46.875 6.492188 -47.773438 7.234375 -48.484375 C 7.984375 -49.203125 8.867188 -49.5625 9.890625 -49.5625 L 24.171875 -49.5625 C 25.191406 -49.5625 26.070312 -49.203125 26.8125 -48.484375 C 27.5625 -47.773438 27.9375 -46.875 27.9375 -45.78125 L 27.9375 -37.109375 C 29.90625 -40.304688 32.398438 -43.160156 35.421875 -45.671875 C 38.453125 -48.191406 41.769531 -49.691406 45.375 -50.171875 Z M 45.375 -50.171875 "/></g></g><g style="fill:#000000;fill-opacity:1;"><g transform="translate(285.436243, 101.157514)"><path style="stroke:none" d="M 51.09375 -18.765625 C 52.101562 -18.765625 52.984375 -18.390625 53.734375 -17.640625 C 54.484375 -16.890625 54.859375 -16.003906 54.859375 -14.984375 L 54.859375 -3.875 C 54.859375 -2.789062 54.484375 -1.890625 53.734375 -1.171875 C 52.984375 -0.460938 52.101562 -0.109375 51.09375 -0.109375 L 9.078125 -0.109375 C 8.460938 -0.109375 7.816406 -0.222656 7.140625 -0.453125 C 6.460938 -0.691406 5.914062 -1.222656 5.5 -2.046875 C 5.03125 -2.992188 4.945312 -3.890625 5.25 -4.734375 C 5.550781 -5.585938 6.007812 -6.351562 6.625 -7.03125 C 6.832031 -7.300781 7.785156 -8.300781 9.484375 -10.03125 C 11.179688 -11.769531 13.304688 -13.945312 15.859375 -16.5625 C 18.410156 -19.1875 21.179688 -22.023438 24.171875 -25.078125 C 27.160156 -28.140625 30.082031 -31.128906 32.9375 -34.046875 C 35.789062 -36.972656 38.335938 -39.5625 40.578125 -41.8125 L 13.15625 -41.8125 L 13.15625 -34.671875 C 13.15625 -33.648438 12.78125 -32.765625 12.03125 -32.015625 C 11.28125 -31.265625 10.394531 -30.890625 9.375 -30.890625 L 9.171875 -30.890625 C 8.085938 -30.890625 7.1875 -31.265625 6.46875 -32.015625 C 5.757812 -32.765625 5.40625 -33.648438 5.40625 -34.671875 L 5.40625 -45.78125 C 5.40625 -46.875 5.757812 -47.773438 6.46875 -48.484375 C 7.1875 -49.203125 8.085938 -49.5625 9.171875 -49.5625 L 49.859375 -49.5625 C 51.554688 -49.5625 52.710938 -48.78125 53.328125 -47.21875 C 54.003906 -45.582031 53.628906 -44.050781 52.203125 -42.625 C 52.003906 -42.414062 51.238281 -41.628906 49.90625 -40.265625 C 48.582031 -38.910156 46.914062 -37.195312 44.90625 -35.125 C 42.90625 -33.050781 40.710938 -30.789062 38.328125 -28.34375 C 35.953125 -25.894531 33.578125 -23.460938 31.203125 -21.046875 C 28.828125 -18.640625 26.671875 -16.445312 24.734375 -14.46875 C 22.796875 -12.5 21.226562 -10.90625 20.03125 -9.6875 C 18.84375 -8.46875 18.25 -7.859375 18.25 -7.859375 L 47 -7.859375 L 47 -14.984375 C 47 -16.003906 47.375 -16.890625 48.125 -17.640625 C 48.875 -18.390625 49.757812 -18.765625 50.78125 -18.765625 Z M 51.09375 -18.765625 "/></g></g><g style="fill:#000000;fill-opacity:1;"><g transform="translate(343.346221, 101.157514)"><path style="stroke:none" d="M 29.875 -62.8125 C 29.875 -61.25 29.296875 -59.90625 28.140625 -58.78125 C 26.984375 -57.664062 25.625 -57.109375 24.0625 -57.109375 C 22.5 -57.109375 21.15625 -57.664062 20.03125 -58.78125 C 18.914062 -59.90625 18.359375 -61.25 18.359375 -62.8125 C 18.359375 -64.375 18.914062 -65.710938 20.03125 -66.828125 C 21.15625 -67.953125 22.5 -68.515625 24.0625 -68.515625 C 25.625 -68.515625 26.984375 -67.953125 28.140625 -66.828125 C 29.296875 -65.710938 29.875 -64.375 29.875 -62.8125 Z M 38.140625 -7.859375 C 39.160156 -7.859375 40.039062 -7.484375 40.78125 -6.734375 C 41.53125 -5.984375 41.90625 -5.097656 41.90625 -4.078125 L 41.90625 -3.875 C 41.90625 -2.789062 41.53125 -1.875 40.78125 -1.125 C 40.039062 -0.375 39.160156 0 38.140625 0 L 9.890625 0 C 8.867188 0 7.984375 -0.375 7.234375 -1.125 C 6.492188 -1.875 6.125 -2.789062 6.125 -3.875 L 6.125 -4.078125 C 6.125 -5.097656 6.492188 -5.984375 7.234375 -6.734375 C 7.984375 -7.484375 8.867188 -7.859375 9.890625 -7.859375 L 20.1875 -7.859375 L 20.1875 -41.8125 L 9.890625 -41.8125 C 8.867188 -41.8125 7.984375 -42.179688 7.234375 -42.921875 C 6.492188 -43.671875 6.125 -44.554688 6.125 -45.578125 L 6.125 -45.78125 C 6.125 -46.875 6.492188 -47.773438 7.234375 -48.484375 C 7.984375 -49.203125 8.867188 -49.5625 9.890625 -49.5625 L 24.171875 -49.5625 C 25.253906 -49.5625 26.148438 -49.203125 26.859375 -48.484375 C 27.578125 -47.773438 27.9375 -46.875 27.9375 -45.78125 L 27.9375 -7.859375 Z M 38.140625 -7.859375 "/></g></g><g style="fill:#000000;fill-opacity:1;"><g transform="translate(385.249073, 101.157514)"><path style="stroke:none" d="M 29.78125 -6.734375 C 33.582031 -6.734375 36.671875 -7.460938 39.046875 -8.921875 C 41.429688 -10.378906 43.539062 -12.164062 45.375 -14.28125 C 46.53125 -15.632812 47.617188 -16.394531 48.640625 -16.5625 C 49.660156 -16.738281 50.578125 -16.554688 51.390625 -16.015625 C 52.203125 -15.460938 52.726562 -14.675781 52.96875 -13.65625 C 53.207031 -12.644531 53.019531 -11.660156 52.40625 -10.703125 C 50.09375 -7.035156 46.8125 -4.113281 42.5625 -1.9375 C 38.320312 0.238281 33.820312 1.257812 29.0625 1.125 C 24.644531 0.914062 20.664062 -0.289062 17.125 -2.5 C 13.59375 -4.707031 10.769531 -7.628906 8.65625 -11.265625 C 6.550781 -14.898438 5.398438 -18.925781 5.203125 -23.34375 C 4.992188 -28.238281 5.976562 -32.722656 8.15625 -36.796875 C 10.332031 -40.878906 13.40625 -44.128906 17.375 -46.546875 C 21.351562 -48.960938 25.859375 -50.171875 30.890625 -50.171875 C 33.742188 -50.171875 36.476562 -49.691406 39.09375 -48.734375 C 41.71875 -47.785156 44.050781 -46.507812 46.09375 -44.90625 C 48.132812 -43.3125 49.644531 -41.546875 50.625 -39.609375 C 51.613281 -37.671875 51.90625 -35.6875 51.5 -33.65625 C 51.226562 -32.082031 50.5625 -30.851562 49.5 -29.96875 C 48.445312 -29.09375 47.378906 -28.585938 46.296875 -28.453125 C 44.390625 -28.179688 42.632812 -28.671875 41.03125 -29.921875 C 39.4375 -31.179688 38.773438 -32.929688 39.046875 -35.171875 C 39.191406 -36.191406 39.601562 -37.109375 40.28125 -37.921875 C 40.957031 -38.742188 41.632812 -39.289062 42.3125 -39.5625 C 40.957031 -40.507812 39.101562 -41.222656 36.75 -41.703125 C 34.40625 -42.179688 32.453125 -42.421875 30.890625 -42.421875 C 27.222656 -42.421875 24.007812 -41.550781 21.25 -39.8125 C 18.5 -38.082031 16.394531 -35.769531 14.9375 -32.875 C 13.476562 -29.988281 12.847656 -26.78125 13.046875 -23.25 C 13.253906 -20.257812 14.101562 -17.503906 15.59375 -14.984375 C 17.09375 -12.472656 19.066406 -10.46875 21.515625 -8.96875 C 23.960938 -7.476562 26.71875 -6.734375 29.78125 -6.734375 Z M 29.78125 -6.734375 "/></g></g><g style="fill:#000000;fill-opacity:1;"><g transform="translate(436.327758, 101.157514)"><path style="stroke:none" d="M 77.09375 -7.859375 C 78.113281 -7.859375 78.992188 -7.484375 79.734375 -6.734375 C 80.484375 -5.984375 80.859375 -5.097656 80.859375 -4.078125 L 80.859375 -3.875 C 80.859375 -2.789062 80.484375 -1.875 79.734375 -1.125 C 78.992188 -0.375 78.113281 0 77.09375 0 L 62.921875 0 C 61.898438 0 61.015625 -0.375 60.265625 -1.125 C 59.515625 -1.875 59.140625 -2.789062 59.140625 -3.875 C 59.140625 -3.875 59.140625 -4.707031 59.140625 -6.375 C 59.140625 -8.039062 59.140625 -10.097656 59.140625 -12.546875 C 59.140625 -14.992188 59.125 -17.390625 59.09375 -19.734375 C 59.0625 -22.078125 59.046875 -23.925781 59.046875 -25.28125 C 59.046875 -30.113281 58.257812 -33.820312 56.6875 -36.40625 C 55.125 -38.988281 53.101562 -40.703125 50.625 -41.546875 C 48.144531 -42.398438 45.441406 -42.519531 42.515625 -41.90625 C 39.929688 -41.4375 37.6875 -40.367188 35.78125 -38.703125 C 33.882812 -37.035156 32.289062 -35.046875 31 -32.734375 C 29.707031 -30.421875 28.6875 -28.039062 27.9375 -25.59375 L 27.9375 -7.859375 L 38.140625 -7.859375 C 39.160156 -7.859375 40.039062 -7.484375 40.78125 -6.734375 C 41.53125 -5.984375 41.90625 -5.097656 41.90625 -4.078125 L 41.90625 -3.875 C 41.90625 -2.789062 41.53125 -1.875 40.78125 -1.125 C 40.039062 -0.375 39.160156 0 38.140625 0 L 9.890625 0 C 8.867188 0 7.984375 -0.375 7.234375 -1.125 C 6.492188 -1.875 6.125 -2.789062 6.125 -3.875 L 6.125 -4.078125 C 6.125 -5.097656 6.492188 -5.984375 7.234375 -6.734375 C 7.984375 -7.484375 8.867188 -7.859375 9.890625 -7.859375 L 20.1875 -7.859375 L 20.1875 -63.625 L 9.890625 -63.625 C 8.867188 -63.625 7.984375 -63.976562 7.234375 -64.6875 C 6.492188 -65.40625 6.125 -66.3125 6.125 -67.40625 L 6.125 -67.609375 C 6.125 -68.628906 6.492188 -69.507812 7.234375 -70.25 C 7.984375 -71 8.867188 -71.375 9.890625 -71.375 L 24.171875 -71.375 C 25.253906 -71.375 26.148438 -71 26.859375 -70.25 C 27.578125 -69.507812 27.9375 -68.628906 27.9375 -67.609375 L 27.9375 -38.03125 C 29.632812 -41.019531 31.804688 -43.671875 34.453125 -45.984375 C 37.109375 -48.296875 40.171875 -49.691406 43.640625 -50.171875 C 46.429688 -50.503906 49.203125 -50.347656 51.953125 -49.703125 C 54.703125 -49.054688 57.195312 -47.796875 59.4375 -45.921875 C 61.6875 -44.054688 63.472656 -41.492188 64.796875 -38.234375 C 66.128906 -34.972656 66.796875 -30.894531 66.796875 -26 L 66.890625 -7.859375 Z M 77.09375 -7.859375 "/></g></g><g style="fill:#000000;fill-opacity:1;"><g transform="translate(509.020286, 101.157514)"><path style="stroke:none" d="M 55.578125 -14.484375 C 56.253906 -13.929688 56.660156 -13.09375 56.796875 -11.96875 C 56.929688 -10.851562 56.625 -9.820312 55.875 -8.875 C 54.113281 -6.488281 51.597656 -4.242188 48.328125 -2.140625 C 45.066406 -0.0351562 40.988281 1.015625 36.09375 1.015625 C 31.601562 1.015625 27.945312 -0.0351562 25.125 -2.140625 C 22.3125 -4.242188 20.257812 -7.03125 18.96875 -10.5 C 17.675781 -13.96875 17.03125 -17.773438 17.03125 -21.921875 L 17.03125 -41.8125 L 8.875 -41.8125 C 7.78125 -41.8125 6.875 -42.179688 6.15625 -42.921875 C 5.445312 -43.671875 5.09375 -44.554688 5.09375 -45.578125 L 5.09375 -45.78125 C 5.09375 -46.875 5.445312 -47.773438 6.15625 -48.484375 C 6.875 -49.203125 7.78125 -49.5625 8.875 -49.5625 L 17.03125 -49.5625 C 17.03125 -53.4375 17.007812 -56.441406 16.96875 -58.578125 C 16.9375 -60.722656 16.921875 -61.796875 16.921875 -61.796875 C 16.921875 -62.878906 17.273438 -63.773438 17.984375 -64.484375 C 18.703125 -65.203125 19.609375 -65.5625 20.703125 -65.5625 L 20.90625 -65.5625 C 21.988281 -65.5625 22.882812 -65.203125 23.59375 -64.484375 C 24.3125 -63.773438 24.671875 -62.878906 24.671875 -61.796875 L 24.671875 -49.5625 L 46.390625 -49.5625 C 47.410156 -49.5625 48.296875 -49.203125 49.046875 -48.484375 C 49.796875 -47.773438 50.171875 -46.875 50.171875 -45.78125 L 50.171875 -45.578125 C 50.171875 -44.554688 49.796875 -43.671875 49.046875 -42.921875 C 48.296875 -42.179688 47.410156 -41.8125 46.390625 -41.8125 L 24.671875 -41.8125 L 24.671875 -23.5625 C 24.535156 -17.976562 25.488281 -13.691406 27.53125 -10.703125 C 29.570312 -7.710938 32.765625 -6.21875 37.109375 -6.21875 C 39.835938 -6.21875 42.203125 -6.945312 44.203125 -8.40625 C 46.210938 -9.875 47.894531 -11.421875 49.25 -13.046875 C 51.488281 -15.703125 53.597656 -16.179688 55.578125 -14.484375 Z M 55.578125 -14.484375 "/></g></g><g style="fill:#000000;fill-opacity:1;"><g transform="translate(570.906608, 101.157514)"><path style="stroke:none" d=""/></g></g><g style="fill:#000000;fill-opacity:1;"><g transform="translate(607.100468, 101.157514)"><path style="stroke:none" d="M 79.125 -49.5625 C 80.21875 -49.5625 81.132812 -49.203125 81.875 -48.484375 C 82.625 -47.773438 83 -46.875 83 -45.78125 L 83 -45.578125 C 83 -44.554688 82.625 -43.671875 81.875 -42.921875 C 81.132812 -42.179688 80.21875 -41.8125 79.125 -41.8125 L 70.15625 -41.8125 L 48.4375 -1.53125 C 47.757812 -0.375 46.632812 0.269531 45.0625 0.40625 C 43.570312 0.40625 42.453125 -0.238281 41.703125 -1.53125 L 19.890625 -41.8125 L 10.90625 -41.8125 C 9.882812 -41.8125 9 -42.179688 8.25 -42.921875 C 7.507812 -43.671875 7.140625 -44.554688 7.140625 -45.578125 L 7.140625 -45.78125 C 7.140625 -46.875 7.507812 -47.773438 8.25 -48.484375 C 9 -49.203125 9.882812 -49.5625 10.90625 -49.5625 L 37.328125 -49.5625 C 38.335938 -49.5625 39.21875 -49.203125 39.96875 -48.484375 C 40.71875 -47.773438 41.09375 -46.875 41.09375 -45.78125 L 41.09375 -45.578125 C 41.09375 -44.554688 40.71875 -43.671875 39.96875 -42.921875 C 39.21875 -42.179688 38.335938 -41.8125 37.328125 -41.8125 L 28.859375 -41.8125 L 45.0625 -11.71875 L 61.1875 -41.8125 L 52.8125 -41.8125 C 51.726562 -41.8125 50.828125 -42.179688 50.109375 -42.921875 C 49.398438 -43.671875 49.046875 -44.554688 49.046875 -45.578125 L 49.046875 -45.78125 C 49.046875 -46.875 49.398438 -47.773438 50.109375 -48.484375 C 50.828125 -49.203125 51.726562 -49.5625 52.8125 -49.5625 Z M 79.125 -49.5625 "/></g></g><g style="fill:#000000;fill-opacity:1;"><g transform="translate(686.012425, 101.157514)"><path style="stroke:none" d="M 59.25 -7.75 C 60.332031 -7.75 61.226562 -7.390625 61.9375 -6.671875 C 62.65625 -5.960938 63.015625 -5.066406 63.015625 -3.984375 L 63.015625 -3.765625 C 63.015625 -2.753906 62.65625 -1.875 61.9375 -1.125 C 61.226562 -0.375 60.332031 0 59.25 0 L 47.515625 0 C 46.492188 0 45.609375 -0.375 44.859375 -1.125 C 44.117188 -1.875 43.75 -2.753906 43.75 -3.765625 L 43.75 -7.75 C 41.164062 -4.894531 38.191406 -2.703125 34.828125 -1.171875 C 31.460938 0.359375 27.773438 1.125 23.765625 1.125 C 20.492188 1.125 17.5 0.632812 14.78125 -0.34375 C 12.0625 -1.332031 9.90625 -2.8125 8.3125 -4.78125 C 6.71875 -6.757812 5.921875 -9.28125 5.921875 -12.34375 C 5.921875 -13.5 6.171875 -14.804688 6.671875 -16.265625 C 7.179688 -17.722656 8.132812 -19.148438 9.53125 -20.546875 C 10.925781 -21.941406 12.984375 -23.113281 15.703125 -24.0625 C 18.421875 -25.019531 21.988281 -25.597656 26.40625 -25.796875 C 30.820312 -25.929688 34.351562 -26.164062 37 -26.5 C 39.65625 -26.84375 41.972656 -27.796875 43.953125 -29.359375 C 43.878906 -31.804688 43.65625 -33.660156 43.28125 -34.921875 C 42.90625 -36.179688 42.242188 -37.457031 41.296875 -38.75 C 40.410156 -39.90625 39.03125 -40.851562 37.15625 -41.59375 C 35.289062 -42.34375 33.21875 -42.867188 30.9375 -43.171875 C 28.664062 -43.484375 26.441406 -43.535156 24.265625 -43.328125 C 22.085938 -43.128906 20.21875 -42.625 18.65625 -41.8125 C 19.75 -41.539062 20.582031 -40.992188 21.15625 -40.171875 C 21.738281 -39.359375 22.0625 -38.578125 22.125 -37.828125 C 22.332031 -35.585938 21.65625 -33.9375 20.09375 -32.875 C 18.53125 -31.820312 16.757812 -31.4375 14.78125 -31.71875 C 12.738281 -32.050781 11.289062 -32.984375 10.4375 -34.515625 C 9.59375 -36.046875 9.273438 -37.554688 9.484375 -39.046875 C 9.753906 -40.816406 10.703125 -42.550781 12.328125 -44.25 C 13.960938 -45.945312 16.242188 -47.375 19.171875 -48.53125 C 22.097656 -49.6875 25.566406 -50.265625 29.578125 -50.265625 C 33.109375 -50.265625 36.351562 -49.789062 39.3125 -48.84375 C 42.269531 -47.894531 44.867188 -46.195312 47.109375 -43.75 C 48.804688 -41.976562 49.976562 -40.085938 50.625 -38.078125 C 51.269531 -36.078125 51.625 -33.628906 51.6875 -30.734375 C 51.757812 -27.847656 51.765625 -24.164062 51.703125 -19.6875 C 51.628906 -18.113281 51.59375 -16.320312 51.59375 -14.3125 C 51.59375 -12.3125 51.59375 -10.125 51.59375 -7.75 Z M 24.671875 -5.921875 C 28.617188 -5.984375 32.320312 -6.984375 35.78125 -8.921875 C 39.25 -10.859375 41.9375 -13.492188 43.84375 -16.828125 C 43.84375 -17.367188 43.859375 -18.316406 43.890625 -19.671875 C 43.929688 -21.035156 43.953125 -21.921875 43.953125 -22.328125 C 41.640625 -21.242188 39.191406 -20.492188 36.609375 -20.078125 C 34.023438 -19.671875 30.691406 -19.398438 26.609375 -19.265625 C 23.140625 -19.203125 20.25 -18.726562 17.9375 -17.84375 C 15.632812 -16.957031 14.414062 -15.289062 14.28125 -12.84375 C 14.207031 -10.46875 15.140625 -8.71875 17.078125 -7.59375 C 19.015625 -6.476562 21.546875 -5.921875 24.671875 -5.921875 Z M 24.671875 -5.921875 "/></g></g><g style="fill:#000000;fill-opacity:1;"><g transform="translate(749.019997, 101.157514)"><path style="stroke:none" d="M 76.984375 -7.859375 C 78.078125 -7.859375 78.976562 -7.484375 79.6875 -6.734375 C 80.40625 -5.984375 80.765625 -5.097656 80.765625 -4.078125 L 80.765625 -3.875 C 80.765625 -2.789062 80.40625 -1.875 79.6875 -1.125 C 78.976562 -0.375 78.078125 0 76.984375 0 L 62.8125 0 C 61.789062 0 60.90625 -0.375 60.15625 -1.125 C 59.414062 -1.875 59.046875 -2.789062 59.046875 -3.875 L 59.046875 -25.28125 C 59.046875 -30.113281 58.257812 -33.820312 56.6875 -36.40625 C 55.125 -38.988281 53.082031 -40.703125 50.5625 -41.546875 C 48.050781 -42.398438 45.367188 -42.519531 42.515625 -41.90625 C 39.929688 -41.4375 37.671875 -40.367188 35.734375 -38.703125 C 33.796875 -37.035156 32.179688 -35.046875 30.890625 -32.734375 C 29.597656 -30.421875 28.613281 -28.039062 27.9375 -25.59375 L 27.9375 -7.859375 L 38.03125 -7.859375 C 39.125 -7.859375 40.023438 -7.484375 40.734375 -6.734375 C 41.453125 -5.984375 41.8125 -5.097656 41.8125 -4.078125 L 41.8125 -3.875 C 41.8125 -2.789062 41.453125 -1.875 40.734375 -1.125 C 40.023438 -0.375 39.125 0 38.03125 0 L 9.890625 0 C 8.804688 0 7.90625 -0.375 7.1875 -1.125 C 6.476562 -1.875 6.125 -2.789062 6.125 -3.875 L 6.125 -4.078125 C 6.125 -5.097656 6.476562 -5.984375 7.1875 -6.734375 C 7.90625 -7.484375 8.804688 -7.859375 9.890625 -7.859375 L 20.09375 -7.859375 L 20.09375 -41.8125 L 9.890625 -41.8125 C 8.804688 -41.8125 7.90625 -42.179688 7.1875 -42.921875 C 6.476562 -43.671875 6.125 -44.554688 6.125 -45.578125 L 6.125 -45.78125 C 6.125 -46.875 6.476562 -47.773438 7.1875 -48.484375 C 7.90625 -49.203125 8.804688 -49.5625 9.890625 -49.5625 L 24.171875 -49.5625 C 25.191406 -49.5625 26.070312 -49.203125 26.8125 -48.484375 C 27.5625 -47.773438 27.9375 -46.875 27.9375 -45.78125 L 27.9375 -38.03125 C 29.632812 -41.019531 31.789062 -43.671875 34.40625 -45.984375 C 37.03125 -48.296875 40.078125 -49.691406 43.546875 -50.171875 C 46.398438 -50.503906 49.203125 -50.347656 51.953125 -49.703125 C 54.703125 -49.054688 57.195312 -47.796875 59.4375 -45.921875 C 61.6875 -44.054688 63.472656 -41.492188 64.796875 -38.234375 C 66.128906 -34.972656 66.796875 -30.894531 66.796875 -26 L 66.796875 -7.859375 Z M 76.984375 -7.859375 "/></g></g><g style="fill:#000000;fill-opacity:1;"><g transform="translate(828.74787, 101.157514)"><path style="stroke:none" d="M 63.828125 -7.859375 C 64.921875 -7.859375 65.820312 -7.484375 66.53125 -6.734375 C 67.25 -5.984375 67.609375 -5.097656 67.609375 -4.078125 L 67.609375 -3.765625 C 67.609375 -2.753906 67.25 -1.875 66.53125 -1.125 C 65.820312 -0.375 64.921875 0 63.828125 0 L 49.65625 0 C 48.570312 0 47.671875 -0.375 46.953125 -1.125 C 46.242188 -1.875 45.890625 -2.753906 45.890625 -3.765625 L 45.890625 -7.140625 C 43.847656 -4.753906 41.429688 -2.796875 38.640625 -1.265625 C 35.859375 0.253906 32.800781 1.015625 29.46875 1.015625 C 24.707031 1.015625 20.488281 -0.140625 16.8125 -2.453125 C 13.144531 -4.765625 10.273438 -7.851562 8.203125 -11.71875 C 6.128906 -15.59375 5.09375 -19.878906 5.09375 -24.578125 C 5.09375 -29.335938 6.144531 -33.65625 8.25 -37.53125 C 10.363281 -41.40625 13.253906 -44.492188 16.921875 -46.796875 C 20.597656 -49.109375 24.78125 -50.265625 29.46875 -50.265625 C 32.457031 -50.265625 35.394531 -49.535156 38.28125 -48.078125 C 41.175781 -46.617188 43.710938 -44.597656 45.890625 -42.015625 L 45.890625 -63.625 L 35.6875 -63.625 C 34.601562 -63.625 33.703125 -63.976562 32.984375 -64.6875 C 32.273438 -65.40625 31.921875 -66.3125 31.921875 -67.40625 L 31.921875 -67.609375 C 31.921875 -68.628906 32.273438 -69.507812 32.984375 -70.25 C 33.703125 -71 34.601562 -71.375 35.6875 -71.375 L 49.859375 -71.375 C 50.953125 -71.375 51.851562 -71 52.5625 -70.25 C 53.28125 -69.507812 53.640625 -68.628906 53.640625 -67.609375 L 53.640625 -7.859375 Z M 29.875 -6.734375 C 33.550781 -6.734375 36.816406 -7.75 39.671875 -9.78125 C 42.523438 -11.820312 44.597656 -14.40625 45.890625 -17.53125 L 45.890625 -31.609375 C 44.597656 -34.804688 42.523438 -37.40625 39.671875 -39.40625 C 36.816406 -41.414062 33.550781 -42.421875 29.875 -42.421875 C 26.613281 -42.421875 23.738281 -41.617188 21.25 -40.015625 C 18.769531 -38.421875 16.832031 -36.28125 15.4375 -33.59375 C 14.050781 -30.914062 13.359375 -27.910156 13.359375 -24.578125 C 13.359375 -21.316406 14.050781 -18.34375 15.4375 -15.65625 C 16.832031 -12.96875 18.769531 -10.804688 21.25 -9.171875 C 23.738281 -7.546875 26.613281 -6.734375 29.875 -6.734375 Z M 29.875 -6.734375 "/></g></g><g style="fill:#000000;fill-opacity:1;"><g transform="translate(899.402039, 101.157514)"><path style="stroke:none" d="M 59.25 -7.75 C 60.332031 -7.75 61.226562 -7.390625 61.9375 -6.671875 C 62.65625 -5.960938 63.015625 -5.066406 63.015625 -3.984375 L 63.015625 -3.765625 C 63.015625 -2.753906 62.65625 -1.875 61.9375 -1.125 C 61.226562 -0.375 60.332031 0 59.25 0 L 47.515625 0 C 46.492188 0 45.609375 -0.375 44.859375 -1.125 C 44.117188 -1.875 43.75 -2.753906 43.75 -3.765625 L 43.75 -7.75 C 41.164062 -4.894531 38.191406 -2.703125 34.828125 -1.171875 C 31.460938 0.359375 27.773438 1.125 23.765625 1.125 C 20.492188 1.125 17.5 0.632812 14.78125 -0.34375 C 12.0625 -1.332031 9.90625 -2.8125 8.3125 -4.78125 C 6.71875 -6.757812 5.921875 -9.28125 5.921875 -12.34375 C 5.921875 -13.5 6.171875 -14.804688 6.671875 -16.265625 C 7.179688 -17.722656 8.132812 -19.148438 9.53125 -20.546875 C 10.925781 -21.941406 12.984375 -23.113281 15.703125 -24.0625 C 18.421875 -25.019531 21.988281 -25.597656 26.40625 -25.796875 C 30.820312 -25.929688 34.351562 -26.164062 37 -26.5 C 39.65625 -26.84375 41.972656 -27.796875 43.953125 -29.359375 C 43.878906 -31.804688 43.65625 -33.660156 43.28125 -34.921875 C 42.90625 -36.179688 42.242188 -37.457031 41.296875 -38.75 C 40.410156 -39.90625 39.03125 -40.851562 37.15625 -41.59375 C 35.289062 -42.34375 33.21875 -42.867188 30.9375 -43.171875 C 28.664062 -43.484375 26.441406 -43.535156 24.265625 -43.328125 C 22.085938 -43.128906 20.21875 -42.625 18.65625 -41.8125 C 19.75 -41.539062 20.582031 -40.992188 21.15625 -40.171875 C 21.738281 -39.359375 22.0625 -38.578125 22.125 -37.828125 C 22.332031 -35.585938 21.65625 -33.9375 20.09375 -32.875 C 18.53125 -31.820312 16.757812 -31.4375 14.78125 -31.71875 C 12.738281 -32.050781 11.289062 -32.984375 10.4375 -34.515625 C 9.59375 -36.046875 9.273438 -37.554688 9.484375 -39.046875 C 9.753906 -40.816406 10.703125 -42.550781 12.328125 -44.25 C 13.960938 -45.945312 16.242188 -47.375 19.171875 -48.53125 C 22.097656 -49.6875 25.566406 -50.265625 29.578125 -50.265625 C 33.109375 -50.265625 36.351562 -49.789062 39.3125 -48.84375 C 42.269531 -47.894531 44.867188 -46.195312 47.109375 -43.75 C 48.804688 -41.976562 49.976562 -40.085938 50.625 -38.078125 C 51.269531 -36.078125 51.625 -33.628906 51.6875 -30.734375 C 51.757812 -27.847656 51.765625 -24.164062 51.703125 -19.6875 C 51.628906 -18.113281 51.59375 -16.320312 51.59375 -14.3125 C 51.59375 -12.3125 51.59375 -10.125 51.59375 -7.75 Z M 24.671875 -5.921875 C 28.617188 -5.984375 32.320312 -6.984375 35.78125 -8.921875 C 39.25 -10.859375 41.9375 -13.492188 43.84375 -16.828125 C 43.84375 -17.367188 43.859375 -18.316406 43.890625 -19.671875 C 43.929688 -21.035156 43.953125 -21.921875 43.953125 -22.328125 C 41.640625 -21.242188 39.191406 -20.492188 36.609375 -20.078125 C 34.023438 -19.671875 30.691406 -19.398438 26.609375 -19.265625 C 23.140625 -19.203125 20.25 -18.726562 17.9375 -17.84375 C 15.632812 -16.957031 14.414062 -15.289062 14.28125 -12.84375 C 14.207031 -10.46875 15.140625 -8.71875 17.078125 -7.59375 C 19.015625 -6.476562 21.546875 -5.921875 24.671875 -5.921875 Z M 24.671875 -5.921875 "/></g></g><g style="fill:#000000;fill-opacity:1;"><g transform="translate(962.409611, 101.157514)"><path style="stroke:none" d="M 59.25 -7.75 C 60.332031 -7.75 61.226562 -7.390625 61.9375 -6.671875 C 62.65625 -5.960938 63.015625 -5.066406 63.015625 -3.984375 L 63.015625 -3.765625 C 63.015625 -2.753906 62.65625 -1.875 61.9375 -1.125 C 61.226562 -0.375 60.332031 0 59.25 0 L 47.515625 0 C 46.492188 0 45.609375 -0.375 44.859375 -1.125 C 44.117188 -1.875 43.75 -2.753906 43.75 -3.765625 L 43.75 -7.75 C 41.164062 -4.894531 38.191406 -2.703125 34.828125 -1.171875 C 31.460938 0.359375 27.773438 1.125 23.765625 1.125 C 20.492188 1.125 17.5 0.632812 14.78125 -0.34375 C 12.0625 -1.332031 9.90625 -2.8125 8.3125 -4.78125 C 6.71875 -6.757812 5.921875 -9.28125 5.921875 -12.34375 C 5.921875 -13.5 6.171875 -14.804688 6.671875 -16.265625 C 7.179688 -17.722656 8.132812 -19.148438 9.53125 -20.546875 C 10.925781 -21.941406 12.984375 -23.113281 15.703125 -24.0625 C 18.421875 -25.019531 21.988281 -25.597656 26.40625 -25.796875 C 30.820312 -25.929688 34.351562 -26.164062 37 -26.5 C 39.65625 -26.84375 41.972656 -27.796875 43.953125 -29.359375 C 43.878906 -31.804688 43.65625 -33.660156 43.28125 -34.921875 C 42.90625 -36.179688 42.242188 -37.457031 41.296875 -38.75 C 40.410156 -39.90625 39.03125 -40.851562 37.15625 -41.59375 C 35.289062 -42.34375 33.21875 -42.867188 30.9375 -43.171875 C 28.664062 -43.484375 26.441406 -43.535156 24.265625 -43.328125 C 22.085938 -43.128906 20.21875 -42.625 18.65625 -41.8125 C 19.75 -41.539062 20.582031 -40.992188 21.15625 -40.171875 C 21.738281 -39.359375 22.0625 -38.578125 22.125 -37.828125 C 22.332031 -35.585938 21.65625 -33.9375 20.09375 -32.875 C 18.53125 -31.820312 16.757812 -31.4375 14.78125 -31.71875 C 12.738281 -32.050781 11.289062 -32.984375 10.4375 -34.515625 C 9.59375 -36.046875 9.273438 -37.554688 9.484375 -39.046875 C 9.753906 -40.816406 10.703125 -42.550781 12.328125 -44.25 C 13.960938 -45.945312 16.242188 -47.375 19.171875 -48.53125 C 22.097656 -49.6875 25.566406 -50.265625 29.578125 -50.265625 C 33.109375 -50.265625 36.351562 -49.789062 39.3125 -48.84375 C 42.269531 -47.894531 44.867188 -46.195312 47.109375 -43.75 C 48.804688 -41.976562 49.976562 -40.085938 50.625 -38.078125 C 51.269531 -36.078125 51.625 -33.628906 51.6875 -30.734375 C 51.757812 -27.847656 51.765625 -24.164062 51.703125 -19.6875 C 51.628906 -18.113281 51.59375 -16.320312 51.59375 -14.3125 C 51.59375 -12.3125 51.59375 -10.125 51.59375 -7.75 Z M 24.671875 -5.921875 C 28.617188 -5.984375 32.320312 -6.984375 35.78125 -8.921875 C 39.25 -10.859375 41.9375 -13.492188 43.84375 -16.828125 C 43.84375 -17.367188 43.859375 -18.316406 43.890625 -19.671875 C 43.929688 -21.035156 43.953125 -21.921875 43.953125 -22.328125 C 41.640625 -21.242188 39.191406 -20.492188 36.609375 -20.078125 C 34.023438 -19.671875 30.691406 -19.398438 26.609375 -19.265625 C 23.140625 -19.203125 20.25 -18.726562 17.9375 -17.84375 C 15.632812 -16.957031 14.414062 -15.289062 14.28125 -12.84375 C 14.207031 -10.46875 15.140625 -8.71875 17.078125 -7.59375 C 19.015625 -6.476562 21.546875 -5.921875 24.671875 -5.921875 Z M 24.671875 -5.921875 "/></g></g><g style="fill:#000000;fill-opacity:1;"><g transform="translate(1024.397594, 101.157514)"><path style="stroke:none" d="M 61.890625 -53.734375 C 60.535156 -46.941406 57.101562 -42.390625 51.59375 -40.078125 C 52.75 -37.765625 53.328125 -35.28125 53.328125 -32.625 C 53.328125 -29.226562 52.410156 -26.238281 50.578125 -23.65625 C 48.742188 -21.070312 46.28125 -19.066406 43.1875 -17.640625 C 40.09375 -16.210938 36.570312 -15.5 32.625 -15.5 C 29.15625 -15.5 25.960938 -16.078125 23.046875 -17.234375 C 21.546875 -17.578125 20.148438 -17.320312 18.859375 -16.46875 C 17.566406 -15.613281 17.054688 -14.375 17.328125 -12.75 C 17.671875 -11.457031 19.097656 -10.195312 21.609375 -8.96875 C 24.128906 -7.75 28.484375 -7.171875 34.671875 -7.234375 C 38.472656 -7.304688 41.765625 -7.117188 44.546875 -6.671875 C 47.335938 -6.234375 49.722656 -5.609375 51.703125 -4.796875 C 55.097656 -3.367188 57.390625 -1.535156 58.578125 0.703125 C 59.765625 2.953125 60.394531 5.0625 60.46875 7.03125 C 60.8125 11.25 59.453125 14.988281 56.390625 18.25 C 54.003906 20.769531 50.753906 22.722656 46.640625 24.109375 C 42.535156 25.503906 37.863281 26.203125 32.625 26.203125 C 24.601562 26.203125 17.976562 24.570312 12.75 21.3125 C 10.226562 19.675781 8.285156 17.6875 6.921875 15.34375 C 5.566406 13 4.992188 10.640625 5.203125 8.265625 C 5.472656 4.929688 6.710938 2.207031 8.921875 0.09375 C 11.128906 -2.007812 13.796875 -3.398438 16.921875 -4.078125 C 15.160156 -4.753906 13.75 -5.835938 12.6875 -7.328125 C 11.632812 -8.828125 11.039062 -10.257812 10.90625 -11.625 C 10.769531 -13.800781 11.265625 -15.753906 12.390625 -17.484375 C 13.515625 -19.222656 15.023438 -20.429688 16.921875 -21.109375 C 15.359375 -22.597656 14.132812 -24.328125 13.25 -26.296875 C 12.375 -28.273438 11.9375 -30.453125 11.9375 -32.828125 C 11.9375 -36.296875 12.851562 -39.335938 14.6875 -41.953125 C 16.519531 -44.578125 19 -46.617188 22.125 -48.078125 C 25.25 -49.535156 28.75 -50.265625 32.625 -50.265625 C 35.550781 -50.265625 38.253906 -49.835938 40.734375 -48.984375 C 43.210938 -48.140625 45.375 -46.9375 47.21875 -45.375 C 49.113281 -46.1875 50.640625 -47.441406 51.796875 -49.140625 C 52.953125 -50.847656 53.769531 -52.925781 54.25 -55.375 C 54.519531 -56.394531 55.097656 -57.191406 55.984375 -57.765625 C 56.867188 -58.335938 57.851562 -58.523438 58.9375 -58.328125 C 59.957031 -58.117188 60.753906 -57.554688 61.328125 -56.640625 C 61.910156 -55.722656 62.097656 -54.753906 61.890625 -53.734375 Z M 28.953125 0.40625 C 24.804688 0.476562 21.578125 0.851562 19.265625 1.53125 C 16.960938 2.207031 15.316406 3.003906 14.328125 3.921875 C 13.335938 4.835938 12.738281 5.738281 12.53125 6.625 C 12.332031 7.507812 12.269531 8.222656 12.34375 8.765625 C 12.476562 10.054688 13.273438 11.46875 14.734375 13 C 16.191406 14.53125 18.398438 15.820312 21.359375 16.875 C 24.316406 17.925781 28.070312 18.453125 32.625 18.453125 C 37.1875 18.453125 40.976562 17.90625 44 16.8125 C 47.019531 15.726562 49.28125 14.351562 50.78125 12.6875 C 52.28125 11.03125 52.925781 9.316406 52.71875 7.546875 C 52.644531 6.316406 52.164062 5.160156 51.28125 4.078125 C 50.40625 2.992188 48.691406 2.109375 46.140625 1.421875 C 43.585938 0.742188 39.726562 0.40625 34.5625 0.40625 C 33.75 0.40625 32.796875 0.390625 31.703125 0.359375 C 30.617188 0.328125 29.703125 0.34375 28.953125 0.40625 Z M 32.734375 -22.734375 C 36.742188 -22.734375 39.921875 -23.617188 42.265625 -25.390625 C 44.609375 -27.160156 45.78125 -29.640625 45.78125 -32.828125 C 45.78125 -36.023438 44.609375 -38.503906 42.265625 -40.265625 C 39.921875 -42.035156 36.742188 -42.921875 32.734375 -42.921875 C 28.785156 -42.921875 25.570312 -42.054688 23.09375 -40.328125 C 20.613281 -38.597656 19.375 -36.097656 19.375 -32.828125 C 19.375 -29.640625 20.613281 -27.160156 23.09375 -25.390625 C 25.570312 -23.617188 28.785156 -22.734375 32.734375 -22.734375 Z M 32.734375 -22.734375 "/></g></g></g></g></g></svg>